<?xml version="1.0" encoding="utf-8"?>
<!-- Generator: Adobe Illustrator 23.0.0, SVG Export Plug-In . SVG Version: 6.00 Build 0)  -->
<svg version="1.1" id="Calque_1" xmlns="http://www.w3.org/2000/svg" xmlns:xlink="http://www.w3.org/1999/xlink" x="0px" y="0px"
	 viewBox="0 0 50 50" style="enable-background:new 0 0 50 50;" xml:space="preserve">
<style type="text/css">
	.st0{fill:#E77E20;}
	.st1{fill:#261D15;}
</style>
<rect x="2.98" y="3.42" class="st0" width="44.05" height="43.16"/>
<rect x="4.71" y="5.27" class="st1" width="40.56" height="39.44"/>
<g>
	<path class="st0" d="M35.7,26.08c0,2.35,0,4.71,0,7.06c0,0.4-0.02,0.41-0.41,0.41c-0.82,0-1.64,0-2.46,0
		c-0.4,0-0.42-0.03-0.42-0.43c0-4.59,0-9.17,0-13.76c0-0.17,0-0.35-0.01-0.52c-0.01-0.16,0.06-0.25,0.22-0.25c0.95,0,1.9,0,2.85,0
		c0.15,0,0.23,0.08,0.23,0.23c0,0.09,0,0.19,0,0.28C35.7,21.42,35.7,23.75,35.7,26.08z"/>
	<path class="st0" d="M34.01,16.48c-1.14,0-1.85-0.72-1.85-1.87c0-1.12,0.76-1.87,1.87-1.87c1.13,0,1.87,0.74,1.88,1.86
		C35.91,15.76,35.18,16.48,34.01,16.48z"/>
	<path class="st0" d="M29.53,33.04c-0.73-2.47-1.46-4.95-2.19-7.42c-1.18-4.02-2.37-8.04-3.55-12.06c-0.07-0.22-0.17-0.32-0.41-0.32
		c-1.18,0-2.36,0-3.54,0c-0.28,0-0.31,0.04-0.33,0.31c-0.04,0.53-0.08,1.06-0.23,1.58c-1.07,3.74-2.14,7.48-3.21,11.22
		c-0.65,2.26-1.29,4.53-1.94,6.79c-0.1,0.35-0.05,0.41,0.31,0.41c0.8,0,1.59,0,2.38,0c0.4,0,0.4-0.01,0.5-0.39
		c0.44-1.66,0.88-3.33,1.32-4.99c0.09-0.33,0.09-0.33,0.44-0.33c0.86,0,1.73,0,2.59,0c0.85,0,1.7,0,2.54,0c0.4,0,0.4,0,0.5,0.37
		c0.46,1.67,0.92,3.33,1.38,5c0.09,0.32,0.11,0.34,0.45,0.34c0.87,0,1.74,0,2.61,0C29.67,33.55,29.68,33.54,29.53,33.04z
		 M23.5,24.87c-1.24,0-2.48,0-3.71,0c-0.3,0-0.31-0.02-0.23-0.31c0.67-2.49,1.35-4.99,1.89-7.51c0.06-0.26,0.11-0.51,0.16-0.79
		c0.09,0.08,0.09,0.14,0.1,0.19c0.62,2.71,1.37,5.38,2.05,8.08C23.85,24.87,23.85,24.87,23.5,24.87z"/>
</g>
</svg>
