<?xml version="1.0" encoding="utf-8"?>
<!-- Generator: Adobe Illustrator 23.0.0, SVG Export Plug-In . SVG Version: 6.00 Build 0)  -->
<svg version="1.1" id="Calque_1" xmlns="http://www.w3.org/2000/svg" xmlns:xlink="http://www.w3.org/1999/xlink" x="0px" y="0px"
	 viewBox="0 0 50 50" style="enable-background:new 0 0 50 50;" xml:space="preserve">
<style type="text/css">
	.st0{fill:#E24C92;}
	.st1{fill:#241019;}
</style>
<g>
	<rect x="3" y="3.4" class="st0" width="44" height="43.2"/>
	<path class="st1" d="M25,44.7c-6.8,0-13.5,0-20.3,0c0,0,0,0,0,0c0-13.1,0-26.3,0-39.4l0,0c13.5,0,27,0,40.6,0c0,13.1,0,26.3,0,39.4
		c0,0,0,0,0,0C38.5,44.7,31.8,44.7,25,44.7z"/>
	<g>
		<path class="st0" d="M18.9,24.9c0,3.3,0,6.5,0,9.8c0,0.4,0,0.4-0.4,0.4c-0.9,0-1.7,0-2.6,0c-0.3,0-0.4,0-0.4-0.3
			c0-6.6,0-13.1,0-19.7c0-0.3,0.1-0.4,0.4-0.4c0.9,0,1.8,0,2.6,0c0.3,0,0.3,0,0.3,0.4C18.9,18.3,18.9,21.6,18.9,24.9L18.9,24.9z"/>
		<path class="st0" d="M34.4,33.9c-0.1-0.5-0.1-1-0.1-1.5c0-2.8,0-5.6,0-8.4c0-3,0-6.1,0-9.1c0-0.3,0-0.3-0.3-0.3
			c-0.9,0-1.8,0-2.7,0c-0.4,0-0.4,0-0.4,0.4c0,1.5,0,2.9,0,4.4c0,0.3,0,0.3-0.3,0.3c-0.6,0-1.1,0-1.7,0c-2.7,0.3-4.7,1.7-5.8,4.2
			c-1.1,2.4-1,4.8-0.2,7.2c0.8,2.1,2.3,3.4,4.4,3.9c1.3,0.3,2.6,0.3,3.9,0.1c1-0.2,2-0.5,2.9-0.9C34.4,34.2,34.5,34.1,34.4,33.9z
			 M31,27.5c0,1.5,0,2.9,0,4.3c0,0.4,0,0.4-0.4,0.5c-2,0.4-3.9-0.4-4.5-2.6c-0.4-1.5-0.5-3.1,0.1-4.6c0.7-1.8,2.4-2.7,4.3-2.4
			c0,0,0.1,0,0.1,0c0.3,0,0.3,0.1,0.3,0.4C31,24.5,31,26,31,27.5z"/>
	</g>
</g>
</svg>
