<?xml version="1.0" encoding="utf-8"?>
<!-- Generator: Adobe Illustrator 23.0.0, SVG Export Plug-In . SVG Version: 6.00 Build 0)  -->
<svg version="1.1" xmlns="http://www.w3.org/2000/svg" xmlns:xlink="http://www.w3.org/1999/xlink" x="0px" y="0px"
	 viewBox="0 0 50 50" style="enable-background:new 0 0 50 50;" xml:space="preserve">
<style type="text/css">
	.st0{fill:#55B8E9;}
	.st1{fill:#0D212A;}
</style>
<g id="Calque_1">
</g>
<g id="Calque_2">
	<rect x="2.98" y="3.42" class="st0" width="44.05" height="43.16"/>
	<path class="st1" d="M25,44.72c-6.76,0-13.51,0-20.27,0c-0.01,0-0.01,0-0.01-0.01c0-13.14,0-26.29,0-39.43c0,0,0,0,0,0
		c13.52,0,27.04,0,40.56,0c0,13.14,0,26.29,0,39.43c0,0.01-0.01,0.01-0.01,0.01C38.51,44.72,31.76,44.72,25,44.72z"/>
	<g>
		<path class="st0" d="M27.43,32.89c0-0.41,0-0.82,0-1.24c0-0.34,0.05-0.38,0.33-0.2c1.06,0.66,2.22,0.97,3.45,1.02
			c0.42,0.02,0.84-0.02,1.25-0.16c1.03-0.35,1.31-1.43,0.57-2.22c-0.6-0.64-1.39-1.02-2.16-1.42c-0.75-0.38-1.45-0.81-2.09-1.36
			c-2.1-1.8-1.92-5.96,1.58-7.19c1.09-0.38,2.22-0.38,3.35-0.29c0.65,0.05,1.3,0.16,1.92,0.38c0.28,0.1,0.4,0.26,0.4,0.56
			c-0.01,0.77,0,1.54-0.01,2.32c0,0.33-0.09,0.38-0.38,0.23c-1.03-0.53-2.13-0.74-3.27-0.72c-0.35,0.01-0.69,0.07-1.01,0.22
			c-0.89,0.42-1.05,1.41-0.34,2.08c0.39,0.37,0.85,0.62,1.31,0.88c0.74,0.41,1.51,0.75,2.21,1.24c0.81,0.57,1.53,1.22,1.87,2.18
			c0.68,1.95,0.28,4.86-2.83,5.82c-1.89,0.58-3.78,0.41-5.62-0.28c-0.39-0.15-0.58-0.36-0.53-0.8
			C27.46,33.59,27.43,33.24,27.43,32.89z"/>
		<path class="st0" d="M25.6,20.37c-0.09-1.29-0.46-2.49-1.3-3.51c-1.15-1.39-2.7-1.96-4.42-2.13c-2.02-0.19-4.06-0.06-6.08,0
			c-0.43,0.01-0.49,0.11-0.49,0.55c0,3.21,0,6.43,0,9.64c0,3.24,0,6.47,0,9.71c0,0.4,0.03,0.43,0.43,0.43c0.8,0,1.61,0,2.41,0
			c0.44,0,0.45-0.02,0.45-0.47c0-2.16,0.01-4.31-0.01-6.47c0-0.34,0.1-0.41,0.41-0.38c1.23,0.09,2.45,0.03,3.65-0.27
			c1.77-0.44,3.24-1.32,4.16-2.96C25.54,23.22,25.7,21.81,25.6,20.37z M22.29,21.46c-0.02,0.29-0.06,0.59-0.13,0.88
			c-0.35,1.38-1.32,2.08-2.66,2.35c-0.88,0.18-1.77,0.13-2.65,0.12c-0.24,0-0.24-0.13-0.24-0.31c0-1.1,0-2.2,0-3.3
			c0-1.09,0.01-2.18,0-3.27c0-0.21,0.05-0.29,0.28-0.3c0.88-0.05,1.75-0.1,2.62,0.05C21.62,18.07,22.39,19.54,22.29,21.46z"/>
	</g>
</g>
</svg>
