<?xml version="1.0" encoding="utf-8"?>
<!-- Generator: Adobe Illustrator 23.0.0, SVG Export Plug-In . SVG Version: 6.00 Build 0)  -->
<svg version="1.1" xmlns="http://www.w3.org/2000/svg" xmlns:xlink="http://www.w3.org/1999/xlink" x="0px" y="0px"
	 viewBox="0 0 50 50" style="enable-background:new 0 0 50 50;" xml:space="preserve">
<style type="text/css">
	.st0{fill:#FFFFFF;}
</style>
<g id="Calque_1">
</g>
<g id="Calque_2">
	<path class="st0" d="M25.5,3.42C13.6,3.42,3.93,13.1,3.93,25c0,11.9,9.68,21.57,21.57,21.57c11.9,0,21.57-9.68,21.57-21.57
		C47.07,13.1,37.4,3.42,25.5,3.42z M6.1,25c0-2.81,0.6-5.48,1.68-7.89l9.25,25.35C10.56,39.31,6.1,32.68,6.1,25z M25.5,44.4
		c-1.9,0-3.74-0.28-5.48-0.79l5.82-16.91l5.96,16.33c0.04,0.1,0.09,0.18,0.14,0.27C29.92,44.01,27.76,44.4,25.5,44.4z M28.17,15.9
		c1.17-0.06,2.22-0.18,2.22-0.18c1.05-0.12,0.92-1.66-0.12-1.6c0,0-3.14,0.25-5.17,0.25c-1.91,0-5.11-0.25-5.11-0.25
		c-1.05-0.06-1.17,1.54-0.12,1.6c0,0,0.99,0.12,2.03,0.18l3.02,8.28l-4.25,12.73L13.62,15.9c1.17-0.06,2.22-0.18,2.22-0.18
		c1.04-0.12,0.92-1.66-0.12-1.6c0,0-3.14,0.25-5.17,0.25c-0.36,0-0.79-0.01-1.25-0.02C12.76,9.08,18.72,5.6,25.5,5.6
		c5.05,0,9.65,1.93,13.1,5.09c-0.08-0.01-0.17-0.02-0.25-0.02c-1.91,0-3.26,1.66-3.26,3.44c0,1.6,0.92,2.95,1.91,4.55
		c0.74,1.29,1.6,2.95,1.6,5.35c0,1.66-0.64,3.59-1.48,6.27l-1.94,6.46L28.17,15.9z M42.52,15.69c1.51,2.76,2.38,5.93,2.38,9.31
		c0,7.16-3.88,13.4-9.64,16.77l5.92-17.13c1.11-2.77,1.48-4.98,1.48-6.95C42.65,16.97,42.6,16.31,42.52,15.69z"/>
</g>
</svg>
