<?xml version="1.0" encoding="utf-8"?>
<!-- Generator: Adobe Illustrator 23.0.0, SVG Export Plug-In . SVG Version: 6.00 Build 0)  -->
<svg version="1.1" id="Calque_1" xmlns="http://www.w3.org/2000/svg" xmlns:xlink="http://www.w3.org/1999/xlink" x="0px" y="0px"
	 viewBox="0 0 50 50" style="enable-background:new 0 0 50 50;" xml:space="preserve">
<style type="text/css">
	.st0{fill:#CA5097;}
	.st1{fill:#2F1628;}
	.st2{fill:#F6D6E7;}
</style>
<path class="st0" d="M46.12,24.93c0,4-0.05,8,0.01,12c0.06,4.38-3.01,8.62-7.73,9.46c-0.55,0.1-1.12,0.17-1.68,0.17
	c-8,0.01-16,0.04-24-0.01c-4.93-0.03-8.58-3.27-9.47-7.49c-0.12-0.55-0.18-1.12-0.18-1.68c-0.01-8.22-0.02-16.44,0-24.66
	c0.01-4.65,3.64-8.67,8.22-9.19c0.54-0.06,1.09-0.1,1.64-0.1c7.93-0.01,15.85-0.03,23.78,0.01c3.19,0.02,5.79,1.34,7.68,3.94
	c1.12,1.54,1.72,3.29,1.72,5.21C46.12,16.71,46.11,20.82,46.12,24.93C46.11,24.93,46.12,24.93,46.12,24.93z"/>
<g>
	<path class="st1" d="M44.34,24.93c0,3.67-0.04,7.34,0.01,11.01c0.06,4.02-2.76,7.91-7.09,8.68c-0.51,0.09-1.03,0.16-1.54,0.16
		c-7.34,0.01-14.68,0.04-22.02-0.01c-4.53-0.03-7.87-3-8.69-6.87c-0.11-0.5-0.16-1.03-0.16-1.54c-0.01-7.54-0.02-15.08,0-22.62
		c0.01-4.27,3.34-7.95,7.54-8.43c0.5-0.06,1-0.09,1.5-0.09c7.27-0.01,14.54-0.03,21.81,0.01c2.93,0.01,5.31,1.23,7.04,3.62
		c1.03,1.42,1.57,3.02,1.58,4.78C44.34,17.39,44.33,21.16,44.34,24.93C44.33,24.93,44.33,24.93,44.34,24.93z M18.19,26.32
		c0.11,0.23,0.19,0.39,0.27,0.55c1.08,2.23,2.16,4.46,3.22,6.69c0.18,0.37,0.4,0.52,0.81,0.5c0.89-0.03,1.78,0,2.66-0.01
		c0.17,0,0.33-0.05,0.56-0.08c-0.12-0.26-0.21-0.44-0.3-0.61c-1.57-3.03-3.14-6.06-4.73-9.09c-0.17-0.33-0.19-0.58-0.01-0.92
		c1.5-2.82,2.97-5.66,4.46-8.49c0.09-0.17,0.17-0.35,0.3-0.62c-1.07,0-2.04,0.02-3.01-0.01c-0.37-0.01-0.57,0.13-0.73,0.46
		c-0.99,2.16-2.01,4.31-3.01,6.46c-0.07,0.16-0.15,0.32-0.26,0.54c-0.11-0.21-0.18-0.34-0.24-0.48c-1.02-2.16-2.06-4.32-3.06-6.49
		c-0.18-0.38-0.4-0.5-0.8-0.49c-0.85,0.03-1.71,0.01-2.56,0.01c-0.17,0-0.34,0.03-0.59,0.05c0.13,0.26,0.21,0.43,0.3,0.61
		c1.47,2.91,2.94,5.83,4.42,8.73c0.18,0.35,0.19,0.61,0,0.96c-1.55,2.93-3.08,5.87-4.62,8.8c-0.09,0.17-0.17,0.35-0.29,0.59
		c0.22,0.03,0.36,0.06,0.5,0.06c0.87,0,1.74-0.01,2.61,0.01c0.35,0.01,0.55-0.13,0.69-0.45c0.71-1.53,1.44-3.06,2.15-4.59
		C17.36,28.15,17.76,27.27,18.19,26.32z M34.56,19.15c-0.23,0-0.4,0-0.56,0c-3.41-0.09-6.06,1.57-7.2,4.49
		c-0.68,1.76-0.74,3.56-0.36,5.38c0.5,2.4,1.79,4.18,4.21,4.92c2.4,0.73,4.74,0.34,6.99-0.67c0.13-0.06,0.24-0.3,0.25-0.45
		c0.01-0.58-0.04-1.17-0.04-1.76c0-5.43-0.01-10.85,0.01-16.28c0-0.42-0.12-0.55-0.54-0.54c-0.7,0.03-1.41,0.04-2.11,0
		c-0.5-0.03-0.67,0.12-0.66,0.64C34.59,16.29,34.56,17.7,34.56,19.15z"/>
</g>
<path class="st2" d="M18.19,26.32c-0.43,0.95-0.83,1.83-1.24,2.71c-0.72,1.53-1.44,3.06-2.15,4.59c-0.15,0.31-0.34,0.45-0.69,0.45
	c-0.87-0.02-1.74,0-2.61-0.01c-0.14,0-0.29-0.03-0.5-0.06c0.12-0.24,0.2-0.41,0.29-0.59c1.54-2.94,3.07-5.88,4.62-8.8
	c0.19-0.35,0.17-0.62,0-0.96c-1.49-2.91-2.95-5.82-4.42-8.73c-0.09-0.18-0.17-0.35-0.3-0.61c0.25-0.02,0.42-0.05,0.59-0.05
	c0.85,0,1.71,0.02,2.56-0.01c0.4-0.01,0.63,0.11,0.8,0.49c1,2.17,2.04,4.33,3.06,6.49c0.06,0.13,0.13,0.26,0.24,0.48
	c0.11-0.22,0.19-0.38,0.26-0.54c1.01-2.15,2.02-4.3,3.01-6.46c0.16-0.34,0.35-0.47,0.73-0.46c0.97,0.02,1.93,0.01,3.01,0.01
	c-0.13,0.27-0.21,0.45-0.3,0.62c-1.48,2.83-2.96,5.67-4.46,8.49c-0.18,0.34-0.16,0.59,0.01,0.92c1.59,3.02,3.15,6.06,4.73,9.09
	c0.09,0.18,0.17,0.36,0.3,0.61c-0.22,0.03-0.39,0.08-0.56,0.08c-0.89,0.01-1.78-0.01-2.66,0.01c-0.41,0.01-0.64-0.13-0.81-0.5
	c-1.06-2.24-2.15-4.46-3.22-6.69C18.38,26.71,18.3,26.55,18.19,26.32z"/>
<path class="st2" d="M34.56,19.15c0-1.45,0.02-2.86-0.01-4.26c-0.01-0.52,0.15-0.67,0.66-0.64c0.7,0.04,1.41,0.03,2.11,0
	c0.42-0.02,0.54,0.12,0.54,0.54c-0.01,5.43-0.01,10.85-0.01,16.28c0,0.59,0.05,1.17,0.04,1.76c0,0.16-0.12,0.4-0.25,0.45
	c-2.25,1.01-4.58,1.4-6.99,0.67c-2.42-0.73-3.72-2.52-4.21-4.92c-0.38-1.82-0.32-3.63,0.36-5.38c1.13-2.93,3.79-4.58,7.2-4.49
	C34.17,19.16,34.33,19.15,34.56,19.15z M34.56,26.69c0-1.37-0.02-2.74,0.01-4.12c0.01-0.45-0.18-0.58-0.56-0.63
	c-1.64-0.23-3.17,0.57-3.89,2.06c-0.72,1.48-0.73,3.04-0.34,4.6c0.53,2.07,2.11,3.08,4.23,2.77c0.38-0.06,0.57-0.18,0.56-0.63
	C34.54,29.4,34.56,28.04,34.56,26.69z"/>
<g>
	<path class="st1" d="M34.56,26.69c0,1.36-0.02,2.71,0.01,4.07c0.01,0.45-0.18,0.57-0.56,0.63c-2.12,0.31-3.7-0.7-4.23-2.77
		c-0.4-1.56-0.38-3.12,0.34-4.6c0.72-1.49,2.26-2.29,3.89-2.06c0.38,0.05,0.57,0.18,0.56,0.63C34.54,23.94,34.56,25.31,34.56,26.69z
		"/>
</g>
</svg>
