<?xml version="1.0" encoding="utf-8"?>
<!-- Generator: Adobe Illustrator 23.0.3, SVG Export Plug-In . SVG Version: 6.00 Build 0)  -->
<svg version="1.1" id="Calque_1" xmlns="http://www.w3.org/2000/svg" xmlns:xlink="http://www.w3.org/1999/xlink" x="0px" y="0px"
	 viewBox="0 0 500 500" style="enable-background:new 0 0 500 500;" xml:space="preserve">
<style type="text/css">
	.st0{clip-path:url(#SVGID_2_);fill:url(#SVGID_3_);}
	.st1{clip-path:url(#SVGID_2_);fill:url(#SVGID_4_);}
	.st2{clip-path:url(#SVGID_2_);fill:url(#SVGID_5_);}
	.st3{clip-path:url(#SVGID_2_);}
	.st4{fill:url(#SVGID_6_);}
	.st5{fill:url(#SVGID_7_);}
	.st6{fill:url(#SVGID_8_);}
	.st7{fill:url(#SVGID_9_);}
	.st8{clip-path:url(#SVGID_2_);fill:#FFFFFF;}
	.st9{fill:#64003C;}
</style>
<g>
	<g>
		<defs>
			<path id="SVGID_1_" d="M336.72,114.24c-0.02,0-0.04,0-0.06,0l0,0l0,0c-7.86,0-15.1,2.66-20.87,7.12
				c-1.66,1.28-3.67,2.01-5.77,1.99l-0.09,0c-0.07-0.01-0.14-0.01-0.21-0.01l0,0l0,0c-3.48,0-6.77,0.84-9.67,2.32
				c-1.68,0.86-3.23,1.93-4.61,3.18l0,0c-3.31,3.27-7.29,5.86-11.71,7.56c-2.99,1.15-6.39-0.78-6.63-3.98
				c-0.01-0.13-0.01-0.26-0.01-0.39c0-1.9,1.03-3.57,2.57-4.46c0.27-0.15,0.11-0.56-0.19-0.49c-1.89,0.44-4.06,1.66-4.06,4.95
				c0,3.05,1.87,4.81,3.65,5.79c0,0,1.55,1.26,9.42,1.73c0.18,0.01,0.36,0,0.54-0.01l0,0c-0.41,1.64-0.62,3.35-0.62,5.12
				c0,1.71,0.2,3.36,0.58,4.95c0.3,1.27,0.72,2.5,1.24,3.67c0,0.01,0,0.01,0.01,0.02c0.03,0.05,0.06,0.11,0.08,0.16
				c2.82,4.86,4.96,10.16,6.28,15.78c0.88,3.75,1.4,7.63,1.51,11.62c0.02,0.66,0.03,1.33,0.02,2c-0.02,3.4-0.33,6.73-0.91,9.97
				c-1.08,6.02-3.1,11.73-5.9,16.97c-0.86,1.61-1.8,3.18-2.8,4.7c-0.25,0.38-0.51,0.76-0.77,1.13
				c-10.13,14.57-26.76,24.36-45.66,25.02c-0.62,0.02-1.25,0.03-1.87,0.04c-2.48,0.01-4.92-0.14-7.32-0.43
				c-0.6-0.07-1.2-0.16-1.79-0.25c-1.19-0.18-2.36-0.4-3.52-0.65c-0.06-0.19-0.12-0.38-0.17-0.58c-0.03-0.11-0.07-0.23-0.1-0.34
				c-0.46-1.62-0.89-3.24-1.29-4.88c-0.05-0.2-0.09-0.39-0.14-0.59c-0.15-0.62-0.29-1.24-0.43-1.87c-0.05-0.22-0.1-0.44-0.15-0.66
				c-0.18-0.8-0.35-1.61-0.51-2.42l-0.01-0.02c-1.84-8.94-2.81-18.19-2.81-27.67c0-32.23,11.16-61.86,29.84-85.22h0l0,0
				c-23.57,0-43.41,15.91-49.39,37.57c1.78-11.1,5.71-21.49,11.34-30.73c0,0,0,0,0,0c0,0,0,0,0,0c-4.69,2.03-9.16,4.46-13.37,7.26
				c-13.9,10.5-21.59,27.52-20.19,44.94c-1.6-8.31-1.91-16.66-1.06-24.8c0,0,0,0,0,0c0,0,0,0,0,0c-2.92,3.92-5.52,8.1-7.74,12.49
				c-7.03,16.15-5.24,34.96,4.78,49.49c-5.55-6.42-10.01-13.51-13.35-21.01c0,0,0,0,0,0c0,0,0,0,0,0c-0.38,3.28-0.58,6.61-0.58,10
				c0,24.71,10.5,46.96,27.28,62.53c0.48,0.44,0.95,0.88,1.44,1.31c1.02,0.91,2.07,1.79,3.13,2.65c0.8,0.64,1.61,1.27,2.43,1.89
				c7.97,5.96,17.02,10.56,26.8,13.45c0.13,0.04,0.26,0.07,0.39,0.11c0.89,0.26,1.79,0.5,2.7,0.74c1.45,0.37,2.92,0.7,4.41,1
				c0.63,0.13,1.27,0.25,1.91,0.36c1.18,0.21,2.36,0.39,3.56,0.55c0.43,0.06,0.86,0.11,1.29,0.16c3.28,0.38,6.62,0.58,10.01,0.58
				c1.3,0,2.59-0.03,3.87-0.09l0,0l0,0c16.83-0.81,32.38-6.5,45.27-15.69c19.63-14,33.08-36.1,35.47-61.43
				c0.25-2.1,0.38-4.23,0.38-6.4c0-0.26-0.01-0.52-0.01-0.78c0-0.31,0.01-0.61,0.01-0.92c0-6.31-0.69-12.45-1.99-18.37
				c-0.43-1.95-0.92-3.86-1.48-5.76c-0.02-0.08-0.05-0.15-0.07-0.22v-0.01c-1.52-5.12-3.51-10.04-5.93-14.72
				c-1.09-2.11-2.26-4.17-3.51-6.17c-3.64-5.81-4.52-12.79-2.59-19.06c0.71-2.33,1.82-4.57,3.31-6.61c0.04-0.05,0.07-0.1,0.11-0.15
				c0.21-0.27,0.41-0.54,0.63-0.8c0.11-0.13,0.21-0.26,0.32-0.38c0.24-0.29,0.49-0.57,0.74-0.85c-0.02-0.01,0.1-0.09,0.08-0.1
				c2.42-3.07,5.21-5.66,8.54-7.74c0.66-0.42,1.34-0.81,2.04-1.18c1.39-0.74,2.83-1.39,4.33-1.94
				C338.19,115.91,337.91,114.24,336.72,114.24z"/>
		</defs>
		<clipPath id="SVGID_2_">
			<use xlink:href="#SVGID_1_"  style="overflow:visible;"/>
		</clipPath>
		<linearGradient id="SVGID_3_" gradientUnits="userSpaceOnUse" x1="183.9165" y1="237.9206" x2="231.8309" y2="209.5553">
			<stop  offset="0" style="stop-color:#FF7900"/>
			<stop  offset="1" style="stop-color:#FFAA00"/>
		</linearGradient>
		<path class="st0" d="M288.47,139.55c0.18,0,0.36,0,0.54-0.01c-0.41,1.64-0.62,3.35-0.62,5.12c0,1.71,0.2,3.36,0.58,4.95
			c0.3,1.27,0.72,2.5,1.24,3.67c0,0.01,0,0.01,0.01,0.02c0.03,0.05,0.06,0.11,0.08,0.16c5.01,8.64,7.87,18.69,7.81,29.41
			c-0.15,31.05-25.02,56.7-56.05,57.79c-4.99,0.17-9.85-0.29-14.5-1.3c4.97,17.01,13.15,32.65,23.86,46.21
			c16.83-0.81,32.38-6.5,45.27-15.69c19.63-14,33.08-36.1,35.47-61.43c0.25-2.1,0.38-4.23,0.38-6.4c0-0.26-0.01-0.52-0.01-0.78
			c0-0.31,0.01-0.61,0.01-0.92c0-6.31-0.69-12.45-1.99-18.37c-0.43-1.95-0.92-3.86-1.48-5.76c-0.02-0.08-0.05-0.15-0.07-0.22v-0.01
			c-1.52-5.12-3.51-10.04-5.93-14.72c-1.09-2.11-2.26-4.17-3.51-6.17c-3.64-5.81-4.52-12.79-2.59-19.06
			c0.71-2.33,1.82-4.57,3.31-6.61c0.04-0.05,0.07-0.1,0.11-0.15c0.21-0.27,0.41-0.54,0.63-0.8c0.11-0.13,0.21-0.26,0.32-0.38
			c0.24-0.29,0.49-0.57,0.74-0.85c-0.02-0.01,0.1-0.09,0.08-0.1c3.87-4.91,8.93-8.68,14.91-10.87c1.12-0.41,0.85-2.08-0.35-2.08
			c-0.02,0-0.04,0-0.06,0c-7.86,0-15.1,2.66-20.87,7.12c-1.66,1.28-3.67,2.01-5.77,1.99l-0.09,0c-0.07-0.01-0.14-0.01-0.21-0.01
			c-3.48,0-6.77,0.84-9.67,2.32c-1.68,0.86-3.23,1.93-4.61,3.18c-3.31,3.27-7.29,5.86-11.71,7.56c-2.99,1.15-6.39-0.78-6.63-3.98
			c-0.01-0.13-0.01-0.26-0.01-0.39c0-1.9,1.03-3.57,2.57-4.46c0.27-0.15,0.11-0.56-0.19-0.49c-1.89,0.44-4.06,1.66-4.06,4.95
			c0,3.05,1.87,4.81,3.65,5.79C279.05,137.82,280.6,139.08,288.47,139.55c0.18,0.01,0.36,0,0.54-0.01
			c-0.41,1.64-0.62,3.35-0.62,5.12c0,1.71,0.2,3.36,0.58,4.95c0.3,1.27,0.72,2.5,1.24,3.67c0,0.01,0,0.01,0.01,0.02
			c0.03,0.05,0.06,0.11,0.08,0.16c5.01,8.64,7.87,18.69,7.81,29.41c-0.15,31.05-25.02,56.7-56.05,57.79
			c-4.99,0.17-9.85-0.29-14.5-1.3c0.93,3.19,1.98,6.33,3.13,9.42c-2.5-6.68-4.49-13.61-5.92-20.75l-0.01-0.02
			c-1.84-8.94-2.81-18.19-2.81-27.67c0-32.23,11.16-61.86,29.84-85.22c-23.57,0-43.41,15.91-49.39,37.57
			c1.78-11.11,5.71-21.49,11.34-30.73c-4.69,2.03-9.16,4.46-13.37,7.26c-13.9,10.5-21.59,27.52-20.19,44.94
			c-1.6-8.31-1.91-16.66-1.07-24.8c-2.92,3.92-5.52,8.1-7.74,12.49c-7.03,16.15-5.24,34.96,4.78,49.49
			c-5.55-6.42-10.01-13.51-13.35-21.01c-0.38,3.28-0.58,6.61-0.58,10c0,24.71,10.5,46.96,27.28,62.53c0.48,0.44,0.95,0.88,1.44,1.31
			c1.02,0.91,2.07,1.79,3.13,2.65c0.8,0.64,1.61,1.27,2.43,1.89c14.24,10.64,31.91,16.95,51.05,16.95c1.3,0,2.59-0.03,3.87-0.09
			c-0.6-0.76-1.19-1.53-1.78-2.31c0.59,0.78,1.18,1.55,1.78,2.31c16.83-0.81,32.38-6.5,45.27-15.69c19.63-14,33.08-36.1,35.47-61.43
			c0.25-2.1,0.38-4.23,0.38-6.4c0-0.26-0.01-0.52-0.01-0.78c0-0.31,0.01-0.61,0.01-0.92c0-6.31-0.69-12.45-1.99-18.37
			c-0.43-1.95-0.92-3.86-1.48-5.76c-0.02-0.08-0.05-0.15-0.07-0.22v-0.01c-1.52-5.12-3.51-10.04-5.93-14.72
			c-1.09-2.11-2.26-4.17-3.51-6.17c-3.64-5.81-4.52-12.79-2.59-19.06c0.71-2.33,1.82-4.57,3.31-6.61c0.04-0.05,0.07-0.1,0.11-0.15
			c0.21-0.27,0.41-0.54,0.63-0.8c0.11-0.13,0.21-0.26,0.32-0.38c0.24-0.29,0.49-0.57,0.74-0.85c-0.02-0.01,0.1-0.09,0.08-0.1
			c3.87-4.91,8.93-8.68,14.91-10.87c1.12-0.41,0.85-2.08-0.35-2.08c-0.02,0-0.04,0-0.06,0c-7.86,0-15.1,2.66-20.87,7.12
			c-1.66,1.28-3.67,2.01-5.77,1.99l-0.09,0c-0.07-0.01-0.14-0.01-0.21-0.01c-3.48,0-6.77,0.84-9.67,2.32
			c-1.68,0.86-3.23,1.93-4.61,3.18 M234.43,257.8c-1.35-2.95-2.6-5.96-3.74-9.02C231.83,251.85,233.08,254.85,234.43,257.8z
			 M240.46,269.45c-0.51-0.88-1.01-1.76-1.5-2.65C239.45,267.69,239.95,268.57,240.46,269.45z M238.79,266.49
			c-1.01-1.84-1.98-3.71-2.9-5.6C236.81,262.78,237.78,264.65,238.79,266.49z M235.86,260.83c-0.46-0.95-0.92-1.91-1.36-2.87
			C234.94,258.92,235.4,259.88,235.86,260.83z M240.52,269.57c0.5,0.85,1,1.7,1.52,2.55C241.53,271.27,241.02,270.42,240.52,269.57z
			 M242.19,272.36c0.51,0.83,1.03,1.66,1.56,2.48C243.22,274.02,242.7,273.19,242.19,272.36z M244.02,275.25
			c0.53,0.82,1.08,1.64,1.63,2.45C245.1,276.89,244.55,276.08,244.02,275.25z M245.73,277.82c0.53,0.78,1.07,1.55,1.62,2.32
			C246.8,279.38,246.26,278.6,245.73,277.82z M247.63,280.54c0.55,0.77,1.11,1.53,1.68,2.29
			C248.74,282.07,248.18,281.31,247.63,280.54z"/>
		<linearGradient id="SVGID_4_" gradientUnits="userSpaceOnUse" x1="333.0109" y1="241.8032" x2="299.7486" y2="216.5238">
			<stop  offset="0" style="stop-color:#FF7900"/>
			<stop  offset="1" style="stop-color:#FFAA00;stop-opacity:0"/>
		</linearGradient>
		<path class="st1" d="M288.47,139.55c0.18,0,0.36,0,0.54-0.01c-0.41,1.64-0.62,3.35-0.62,5.12c0,1.71,0.2,3.36,0.58,4.95
			c0.3,1.27,0.72,2.5,1.24,3.67c0,0.01,0,0.01,0.01,0.02c0.03,0.05,0.06,0.11,0.08,0.16c5.01,8.64,7.87,18.69,7.81,29.41
			c-0.15,31.05-25.02,56.7-56.05,57.79c-4.99,0.17-9.85-0.29-14.5-1.3c4.97,17.01,13.15,32.65,23.86,46.21
			c16.83-0.81,32.38-6.5,45.27-15.69c19.63-14,33.08-36.1,35.47-61.43c0.25-2.1,0.38-4.23,0.38-6.4c0-0.26-0.01-0.52-0.01-0.78
			c0-0.31,0.01-0.61,0.01-0.92c0-6.31-0.69-12.45-1.99-18.37c-0.43-1.95-0.92-3.86-1.48-5.76c-0.02-0.08-0.05-0.15-0.07-0.22v-0.01
			c-1.52-5.12-3.51-10.04-5.93-14.72c-1.09-2.11-2.26-4.17-3.51-6.17c-3.64-5.81-4.52-12.79-2.59-19.06
			c0.71-2.33,1.82-4.57,3.31-6.61c0.04-0.05,0.07-0.1,0.11-0.15c0.21-0.27,0.41-0.54,0.63-0.8c0.11-0.13,0.21-0.26,0.32-0.38
			c0.24-0.29,0.49-0.57,0.74-0.85c-0.02-0.01,0.29-0.33,0.27-0.34c3.87-4.91,8.74-8.43,14.72-10.63c1.12-0.41,0.85-2.08-0.35-2.08
			c-0.02,0-0.04,0-0.06,0c-7.86,0-15.1,2.66-20.87,7.12c-1.66,1.28-3.67,2.01-5.77,1.99l-0.09,0c-0.07-0.01-0.14-0.01-0.21-0.01
			c-3.48,0-6.77,0.84-9.67,2.32c-1.68,0.86-3.23,1.93-4.61,3.18c-3.31,3.27-7.29,5.86-11.71,7.56c-2.99,1.15-6.39-0.78-6.63-3.98
			c-0.01-0.13-0.01-0.26-0.01-0.39c0-1.9,1.03-3.57,2.57-4.46c0.27-0.15,0.11-0.56-0.19-0.49c-1.89,0.44-4.06,1.66-4.06,4.95
			c0,3.05,1.87,4.81,3.65,5.79C279.05,137.82,280.6,139.08,288.47,139.55c0.18,0.01,0.36,0,0.54-0.01
			c-0.41,1.64-0.62,3.35-0.62,5.12c0,1.71,0.2,3.36,0.58,4.95c0.3,1.27,0.72,2.5,1.24,3.67c0,0.01,0,0.01,0.01,0.02
			c0.03,0.05,0.06,0.11,0.08,0.16c5.01,8.64,7.87,18.69,7.81,29.41c-0.15,31.05-25.02,56.7-56.05,57.79
			c-4.99,0.17-9.85-0.29-14.5-1.3c0.93,3.19,1.98,6.33,3.13,9.42c-2.5-6.68-4.49-13.61-5.92-20.75l-0.01-0.02
			c-1.84-8.94-2.81-18.19-2.81-27.67c0-32.23,11.16-61.86,29.84-85.22c-23.57,0-43.41,15.91-49.39,37.57
			c1.78-11.11,5.71-21.49,11.34-30.73c-4.69,2.03-9.16,4.46-13.37,7.26c-13.9,10.5-21.59,27.52-20.19,44.94
			c-1.6-8.31-1.91-16.66-1.07-24.8c-2.92,3.92-5.52,8.1-7.74,12.49c-7.03,16.15-5.24,34.96,4.78,49.49
			c-5.55-6.42-10.01-13.51-13.35-21.01c-0.38,3.28-0.58,6.61-0.58,10c0,24.71,10.5,46.96,27.28,62.53c0.48,0.44,0.95,0.88,1.44,1.31
			c1.02,0.91,2.07,1.79,3.13,2.65c0.8,0.64,1.61,1.27,2.43,1.89c14.24,10.64,31.91,16.95,51.05,16.95c1.3,0,2.59-0.03,3.87-0.09
			c-0.6-0.76-1.19-1.53-1.78-2.31c0.59,0.78,1.18,1.55,1.78,2.31c16.83-0.81,32.38-6.5,45.27-15.69c19.63-14,33.08-36.1,35.47-61.43
			c0.25-2.1,0.38-4.23,0.38-6.4c0-0.26-0.01-0.52-0.01-0.78c0-0.31,0.01-0.61,0.01-0.92c0-6.31-0.69-12.45-1.99-18.37
			c-0.43-1.95-0.92-3.86-1.48-5.76c-0.02-0.08-0.05-0.15-0.07-0.22v-0.01c-1.52-5.12-3.51-10.04-5.93-14.72
			c-1.09-2.11-2.26-4.17-3.51-6.17c-3.64-5.81-4.52-12.79-2.59-19.06c0.71-2.33,1.82-4.57,3.31-6.61c0.04-0.05,0.07-0.1,0.11-0.15
			c0.21-0.27,0.41-0.54,0.63-0.8c0.11-0.13,0.21-0.26,0.32-0.38c0.24-0.29,0.49-0.57,0.74-0.85c-0.02-0.01,0.02,0.01,0,0
			c3.87-4.91,9.01-8.77,14.99-10.96c1.12-0.41,0.85-2.08-0.35-2.08c-0.02,0-0.04,0-0.06,0c-7.86,0-15.1,2.66-20.87,7.12
			c-1.66,1.28-3.67,2.01-5.77,1.99l-0.09,0c-0.07-0.01-0.14-0.01-0.21-0.01c-3.48,0-6.77,0.84-9.67,2.32
			c-1.68,0.86-3.23,1.93-4.61,3.18 M234.43,257.8c-1.35-2.95-2.6-5.96-3.74-9.02C231.83,251.85,233.08,254.85,234.43,257.8z
			 M240.46,269.45c-0.51-0.88-1.01-1.76-1.5-2.65C239.45,267.69,239.95,268.57,240.46,269.45z M238.79,266.49
			c-1.01-1.84-1.98-3.71-2.9-5.6C236.81,262.78,237.78,264.65,238.79,266.49z M235.86,260.83c-0.46-0.95-0.92-1.91-1.36-2.87
			C234.94,258.92,235.4,259.88,235.86,260.83z M240.52,269.57c0.5,0.85,1,1.7,1.52,2.55C241.53,271.27,241.02,270.42,240.52,269.57z
			 M242.19,272.36c0.51,0.83,1.03,1.66,1.56,2.48C243.22,274.02,242.7,273.19,242.19,272.36z M244.02,275.25
			c0.53,0.82,1.08,1.64,1.63,2.45C245.1,276.89,244.55,276.08,244.02,275.25z M245.73,277.82c0.53,0.78,1.07,1.55,1.62,2.32
			C246.8,279.38,246.26,278.6,245.73,277.82z M247.63,280.54c0.55,0.77,1.11,1.53,1.68,2.29
			C248.74,282.07,248.18,281.31,247.63,280.54z"/>
		<linearGradient id="SVGID_5_" gradientUnits="userSpaceOnUse" x1="134.6655" y1="215.5423" x2="218.9948" y2="204.4262">
			<stop  offset="0" style="stop-color:#FF7900"/>
			<stop  offset="1" style="stop-color:#FFAA00"/>
		</linearGradient>
		<path class="st2" d="M224.77,228.04l-0.01-0.02c-1.84-8.94-2.81-18.19-2.81-27.67c0-32.23,11.16-61.86,29.84-85.22
			c-23.57,0-43.41,15.91-49.39,37.57c1.78-11.11,5.71-21.49,11.34-30.73c-4.69,2.03-9.16,4.46-13.37,7.26
			c-13.9,10.5-21.59,27.52-20.19,44.94c-1.6-8.31-1.91-16.66-1.07-24.8c-2.92,3.92-5.52,8.1-7.74,12.49
			c-7.03,16.15-5.24,34.96,4.78,49.49c-5.55-6.42-10.01-13.51-13.35-21.01c-0.38,3.28-0.58,6.61-0.58,10
			c0,24.71,10.5,46.96,27.28,62.53c0.48,0.44,0.95,0.88,1.44,1.31c1.02,0.91,2.07,1.79,3.13,2.65c0.8,0.64,1.61,1.27,2.43,1.89
			c14.24,10.64,31.91,16.95,51.05,16.95c1.3,0,2.59-0.03,3.87-0.09C238.38,269.06,229.07,249.45,224.77,228.04z"/>
		<g class="st3">
			
				<linearGradient id="SVGID_6_" gradientUnits="userSpaceOnUse" x1="-271.1047" y1="155.7128" x2="-299.9321" y2="141.5209" gradientTransform="matrix(0.9397 0.342 -0.342 0.9397 579.4811 69.1873)">
				<stop  offset="0" style="stop-color:#FF7900"/>
				<stop  offset="1" style="stop-color:#FFAA00"/>
			</linearGradient>
			<path class="st4" d="M229.58,182.85c-1.19-12.87-3.51-25.24,0.94-37.47c16.48-45.28,66.72-68.71,112-52.23l-1.37,3.76
				c-43.2-15.72-91.14,6.63-106.87,49.83C230.04,158.43,228.45,170.57,229.58,182.85L229.58,182.85z"/>
		</g>
		<g class="st3">
			<linearGradient id="SVGID_7_" gradientUnits="userSpaceOnUse" x1="223.6109" y1="210.2975" x2="200.8262" y2="108.016">
				<stop  offset="0" style="stop-color:#FF7900"/>
				<stop  offset="1" style="stop-color:#FFAA00"/>
			</linearGradient>
			<path class="st5" d="M202.15,216.55c0.07,0.06,0.17-0.04,0.1-0.11c-8.22-8.45-14.45-18.4-18.52-29.59
				c-15.72-43.2,6.63-91.14,49.83-106.87l-1.37-3.76c-32.54,11.84-53.8,41.13-57.06,73.48c-2.53,25.09,7.42,50.06,26.57,66.47
				C201.85,216.29,202,216.42,202.15,216.55z"/>
		</g>
		<g class="st3">
			
				<linearGradient id="SVGID_8_" gradientUnits="userSpaceOnUse" x1="-313.129" y1="227.3036" x2="-308.8049" y2="148.9709" gradientTransform="matrix(0.9397 0.342 -0.342 0.9397 578.7121 88.8945)">
				<stop  offset="0" style="stop-color:#FF7900"/>
				<stop  offset="1" style="stop-color:#FFAA00"/>
			</linearGradient>
			<path class="st6" d="M208.58,199.82c0.05,0.08,0.18,0.02,0.14-0.07c-4.84-10.75-7.29-22.23-7.29-34.14
				c0-45.98,37.4-83.38,83.38-83.38l0-4c-34.63,0-64.62,20.25-78.75,49.53c-10.96,22.71-10.15,49.58,2.23,71.55
				C208.39,199.48,208.48,199.65,208.58,199.82z"/>
		</g>
		<g class="st3">
			
				<linearGradient id="SVGID_9_" gradientUnits="userSpaceOnUse" x1="748.6971" y1="374.9646" x2="679.0126" y2="264.8665" gradientTransform="matrix(0.9397 -0.342 0.342 0.9397 -591.0175 103.9661)">
				<stop  offset="0" style="stop-color:#FF7900"/>
				<stop  offset="1" style="stop-color:#FFAA00"/>
			</linearGradient>
			<path class="st7" d="M203.18,232.43c0.09,0.03,0.15-0.1,0.06-0.14c-10.61-5.13-19.87-12.34-27.52-21.47
				c-29.55-35.22-24.94-87.92,10.28-117.47l-2.57-3.07c-26.53,22.26-36.49,57.05-28.49,88.57c6.2,24.44,24.09,44.5,47.7,53.37
				C202.81,232.29,202.99,232.36,203.18,232.43z"/>
		</g>
		<ellipse transform="matrix(0.866 -0.5 0.5 0.866 -24.4896 169.0496)" class="st8" cx="303.21" cy="130.22" rx="2.95" ry="1.42"/>
	</g>
	<g>
		<path class="st9" d="M142.55,320.51c2.8,2.8,4.19,6.9,4.19,12.31c0,5.41-1.4,9.51-4.19,12.31c-2.8,2.8-6.74,4.19-11.83,4.19h-9.34
			v15.55h-9.48v-48.56h18.82C135.81,316.32,139.76,317.72,142.55,320.51z M137.27,332.82c0-5.36-2.34-8.05-7.02-8.05h-8.87v16.03
			h8.87c2.27,0,4.01-0.61,5.22-1.84C136.67,337.73,137.27,335.69,137.27,332.82z"/>
		<path class="st9" d="M184.12,364.88h-8.87v-24.42c0-3.05-0.87-4.99-2.61-5.81c-1.03-0.49-2.22-0.49-3.27-0.08l-7.48,2.96v27.35
			h-8.87v-51.29h8.87v16.98l8.89-3.99c2.37-1.06,5.07-1.17,7.48-0.21c1.42,0.57,2.54,1.42,3.37,2.56c1.66,2.27,2.49,5.46,2.49,9.55
			V364.88z"/>
		<path class="st9" d="M222.04,347.49h-22.51c0,3.96,0.52,6.76,1.57,8.42c1.05,1.66,3.25,2.49,6.62,2.49c2.36,0,4.02-0.58,4.98-1.74
			c0.95-1.16,1.43-2.94,1.43-5.35h7.98c0,5.14-1.27,8.83-3.82,11.08c-2.55,2.25-6,3.38-10.37,3.38c-4.27,0-7.63-0.63-10.06-1.88
			c-2.43-1.25-4.26-3.45-5.49-6.62c-1.23-3.16-1.84-7.76-1.84-13.81c0-6.05,1.39-10.56,4.16-13.54c2.77-2.98,7-4.47,12.69-4.47
			c9.87,0,14.8,5.48,14.8,16.44C222.18,343.08,222.13,344.94,222.04,347.49z M199.53,341.42h14.59c0-3.59-0.52-5.98-1.57-7.16
			c-1.05-1.18-2.81-1.77-5.29-1.77c-2.48,0-4.39,0.61-5.73,1.84C200.2,335.55,199.53,337.92,199.53,341.42z M217.06,311.55
			l-5.05,7.23c-1.55,2.18-3.3,3.27-5.25,3.27c-1.27,0-1.91-0.59-1.91-1.77c0-0.45,0.09-0.95,0.27-1.5l2.59-7.23H217.06z"/>
		<path class="st9" d="M260.43,364.88h-8.87v-24.89c0-2.23-0.45-3.75-1.36-4.57c-0.91-0.82-2.18-1.23-3.82-1.23l-7.98,3.34v27.35
			h-8.87v-38.94h5.02c0.97,0,1.85,0.57,2.24,1.46l1.4,3.18l7.83-3.62c3.69-1.71,8.07-0.97,10.96,1.88c0.02,0.02,0.05,0.04,0.07,0.07
			c2.25,2.25,3.38,5.54,3.38,9.85V364.88z"/>
		<path class="st9" d="M273.8,311.07c2.14,0,3.52,0.33,4.16,0.99c0.64,0.66,0.95,2.05,0.95,4.16c0,2.11-0.33,3.5-0.99,4.16
			c-0.66,0.66-2.05,0.99-4.16,0.99c-2.11,0-3.5-0.34-4.16-1.02c-0.66-0.68-0.99-2.07-0.99-4.16c0-2.09,0.33-3.47,0.99-4.13
			C270.27,311.4,271.66,311.07,273.8,311.07z M278.17,364.88h-8.87v-37.51h8.87V364.88z"/>
		<path class="st9" d="M317.86,364.88h-9.96l-6.89-11.93l-6.48,11.93h-10.64l12.62-19.85l-12.14-19.1h9.96l6.82,11.25l6.62-11.25
			h9.96l-12.14,19.1L317.86,364.88z"/>
		<path class="st9" d="M353.18,347.49h-22.71c0,3.55,0.56,6.14,1.67,7.77c1.11,1.64,3.35,2.45,6.72,2.45c2.18,0,3.8-0.69,4.84-2.08
			c1.05-1.39,1.57-2.72,1.57-3.99h7.98c0,4.87-1.31,8.43-3.92,10.71c-2.61,2.27-6.07,3.41-10.37,3.41c-4.3,0-7.63-0.61-9.99-1.84
			c-4.87-2.5-7.3-9.14-7.3-19.91c0-6.41,1.39-11.1,4.16-14.08c2.77-2.98,7-4.47,12.69-4.47c9.87,0,14.8,5.48,14.8,16.44
			C353.32,343.08,353.27,344.94,353.18,347.49z M330.68,341.42h14.59c0-3-0.57-5.18-1.71-6.55c-1.14-1.36-2.88-2.05-5.22-2.05
			c-2.34,0-4.21,0.69-5.59,2.08C331.37,336.29,330.68,338.46,330.68,341.42z"/>
		<path class="st9" d="M388.1,354.1v1.02c-0.27,3.41-1.72,5.98-4.33,7.71c-2.61,1.73-5.88,2.59-9.79,2.59
			c-5.77,0-9.82-1.05-12.14-3.14c-2.14-1.91-3.21-4.73-3.21-8.46v-0.82h8.05c0,2.09,0.55,3.52,1.64,4.3
			c1.09,0.77,2.98,1.16,5.66,1.16c3.64,0,5.46-1.32,5.46-3.96c0-2.18-0.64-3.64-1.91-4.36c-0.59-0.36-1.34-0.64-2.25-0.82
			l-6.89-1.16c-6-0.95-9-4.71-9-11.25c0-3.64,1.33-6.47,3.99-8.49c2.66-2.02,6.04-3.04,10.13-3.04c9.32,0,13.98,4.02,13.98,12.07
			v0.89h-7.71c-0.09-2.14-0.66-3.59-1.7-4.36c-1.05-0.77-2.51-1.16-4.4-1.16c-1.89,0-3.31,0.38-4.26,1.13
			c-0.95,0.75-1.43,1.58-1.43,2.49c0,2.59,1.05,4.07,3.14,4.43l8.25,1.5C385.19,343.46,388.1,347.37,388.1,354.1z"/>
	</g>
</g>
</svg>
