<?xml version="1.0" encoding="utf-8"?>
<!-- Generator: Adobe Illustrator 23.0.3, SVG Export Plug-In . SVG Version: 6.00 Build 0)  -->
<svg version="1.1" id="Calque_1" xmlns="http://www.w3.org/2000/svg" xmlns:xlink="http://www.w3.org/1999/xlink" x="0px" y="0px"
	 viewBox="0 0 500 500" style="enable-background:new 0 0 500 500;" xml:space="preserve">
<style type="text/css">
	.st0{fill:#DE1F23;}
	.st1{fill:#FFFFFF;}
</style>
<g>
	<path d="M186.33,138.69c0,0,0.97,45.61,2.76,56.4c0,0,14.69-7.79,15.58-8.03c0,0-1.3-13.55-1.38-16.15l8.36-4.02
		c0,0,0.16,16.51,1.38,21.3c0,0,15.82-7.71,16.39-7.95c0,0-4.46-16.31-1.7-55.91l-17.2,7.71c0,0,0.32,22.24,0.57,23.94l-8.12,3.73
		c0,0,0.16-23.05,0.73-28.48L186.33,138.69z"/>
	<path d="M303.76,115.16c-1.46-8.6-24.67-4.87-32.95-2.35l-17.12,65.65l17.12-3.81l3.49-20.86
		C274.3,153.79,305.87,139.34,303.76,115.16z M278.19,138.85l2.76-10.55C302.05,124.73,278.19,138.85,278.19,138.85z"/>
	<g>
		<path d="M332.4,121.49l-14.69,32.3l11.85,1.14c0,0,7.38-16.96,20.69-29.54C350.25,125.38,336.46,123.27,332.4,121.49z"/>
		<path d="M317.71,161.41c0,0-11.93,2.6-9.33,8.6c2.6,6.01,19.07,1.22,18.99-3.73C327.29,161.33,320.67,160.53,317.71,161.41z"/>
	</g>
	<path d="M152.69,229.66c0,0-3.29,53.19-2.92,58.55l16.68-6.57l-0.3-17.16c0,0,8.34-2.98,8.64-2.98c0.3,0-0.67,22.58-0.67,22.58
		s14.85-5.9,16.31-6.27c0,0,1.1-47.17,4.63-57.88l-18.14,6.09l-1.22,24.83l-8.4,2.62c0,0,1.34-19.48,3.71-29.27L152.69,229.66z"/>
	<path d="M273.32,209.33c-3.77-4.63-15.82-4.02-37.25,2.56c0,0-7.06,51.73-9.01,65.61l15.95-4.87l1.83-21.42
		C244.84,251.21,285.25,226.13,273.32,209.33z M247.28,236.13l2.19-10.24C274.05,219.56,247.28,236.13,247.28,236.13z"/>
	<g>
		<path d="M303.19,217.73l-15.09,32.22l12.25,0.97c0,0,7.55-16.64,20.77-29.7L303.19,217.73z"/>
		<path d="M287.04,257.58c0,0-12.01,3.95-7.22,9.32c4.79,5.37,21.42-2.58,17.69-7.13S287.04,257.58,287.04,257.58z"/>
	</g>
	<path d="M164.62,301.11c0,0-0.37,38.22-4.99,55.87l11.93,6.94l1.95-21.55l6.94,3.53l-2.8,16.19l11.93,7.3
		c0,0,5.36-48.69,5.48-56.72l-12.42-6.45l-1.22,29.03l-6.09-3.83c0,0,1.58-21.79,2.56-23.74L164.62,301.11z"/>
	<g>
		<path class="st0" d="M194.93,327.65c0,0-8.28,12.78-2.31,30.8c5.96,18.02,24.83,14.36,28.97-4.38s-2.56-27.14-6.45-31.77
			C211.24,317.67,200.05,316.82,194.93,327.65z"/>
		<path class="st1" d="M204.14,322.02c0,0,11.86,3.1,14.13,18C218.27,340.02,224.96,324.64,204.14,322.02z"/>
	</g>
	<path d="M271.5,309.51c-4.26-8.4-40.29-2.07-40.29-2.07l-15.7,56.48l16.92-2.31l4.14-18.38
		C236.56,343.23,279.17,326.31,271.5,309.51z M240.7,330.08l3.26-9.13C270.6,317.3,240.7,330.08,240.7,330.08z"/>
	<g>
		<path d="M298.16,312.43l-14.97,31.89l11.93,1.22c0,0,7.79-15.7,20.57-29.94L298.16,312.43z"/>
		<path d="M281.27,352.28c-1.27,0.33-2.46,0.9-3.52,1.67c-2.56,1.88-6.69,5.7-1.88,8.02c6.57,3.16,19.72-2.56,16.55-7.67
			C290.13,350.59,284.29,351.51,281.27,352.28z"/>
	</g>
	<g>
		<path class="st0" d="M202.97,242.08c0,0-17.41,16.43-13.02,32.74c4.38,16.31,23.49,9.62,29.94,2.92
			c6.45-6.69,17.41-20.08,11.5-34.69C225.49,228.44,207.15,237.42,202.97,242.08z"/>
		<path class="st1" d="M214.98,238.42c0,0,13.23,8.03,12.62,19.88C227.6,258.31,236.48,244.02,214.98,238.42z"/>
	</g>
	<g>
		<path class="st0" d="M226.83,144.7c0,0-11.93,26.78,5.11,40.78c17.04,14,31.65-16.31,30.92-30.31c-0.73-14-4.87-24.22-15.22-25.56
			C237.29,128.26,229.14,137.82,226.83,144.7z"/>
		<path class="st1" d="M243.3,134.55c0,0,15.01,8.76,12.98,22.56C256.28,157.11,266.91,141.69,243.3,134.55z"/>
	</g>
</g>
</svg>
