<?xml version="1.0" encoding="utf-8"?>
<!-- Generator: Adobe Illustrator 23.0.3, SVG Export Plug-In . SVG Version: 6.00 Build 0)  -->
<svg version="1.1" id="Calque_1" xmlns="http://www.w3.org/2000/svg" xmlns:xlink="http://www.w3.org/1999/xlink" x="0px" y="0px"
	 viewBox="0 0 500 500" style="enable-background:new 0 0 500 500;" xml:space="preserve">
<style type="text/css">
	.st0{fill:#FFF4E9;}
</style>
<g>
	<g>
		<path class="st0" d="M198.29,232.37c1.58-1.95,3.42-3.62,5.46-5.04v-33.87c15.33-5.48,31.41-8.25,47.89-8.25
			s32.56,2.77,47.89,8.25v33.02l1.85-1.38l3.1-2.31l3.6,1.39c0.15,0.06,0.3,0.13,0.45,0.19v-37.12
			c-17.57-7.13-36.77-11.05-56.89-11.05c-20.12,0-39.32,3.92-56.89,11.05v41.3C196.12,229.73,197.3,231,198.29,232.37z"/>
		<path class="st0" d="M305.58,282.72c-1.52-1.16-2.84-2.44-3.95-3.83l-4.74,3.52c-6.5,18.74-24.32,32.24-45.25,32.24
			c-20.98,0-38.84-13.57-45.3-32.38c-1.29-0.58-2.52-1.27-3.67-2.08c-2.39-1.68-4.39-3.79-6.04-6.27c-0.17,0.2-0.34,0.4-0.53,0.59
			l-0.24,0.25l-0.27,0.23c-0.05,0.04-0.1,0.08-0.22,0.18c4.06,27.44,27.7,48.49,56.27,48.49c25.69,0,47.39-17.03,54.46-40.42
			L305.58,282.72z"/>
	</g>
	<g>
		<path class="st0" d="M175.34,268.99l0.15-0.11c0.01,0.03,0.02,0.05,0.03,0.08L175.34,268.99z"/>
		<path class="st0" d="M124.19,246.63l3.65,3.33c1.72,1.72,2.58,2.97,2.58,3.76v13.6l-21.18,15.96c-0.25,0-1.6-0.47-4.03-1.4
			c-2.54-0.93-4.16-1.56-4.84-1.88c-11.61-5.7-18.94-13.45-21.98-23.27c-1-3.26-1.5-6.36-1.5-9.3c0-0.75,0.04-1.49,0.11-2.2
			c0.32-3.58,1.5-7.29,3.55-11.13c1.79-3.4,4.75-7.06,8.87-10.96c1.47-1.36,4.27-3.46,8.41-6.29c4.14-2.83,7.18-4.33,9.11-4.51
			c0.29-0.04,0.57-0.05,0.86-0.05c1.79,0,3.67,0.47,5.64,1.4c0.9,0.39,2.99,1.58,6.29,3.55c2.33,1.4,4.21,2.1,5.64,2.1
			c0.61,0,1.15-0.13,1.61-0.38l-0.27,3.55c-0.72,4.3-2.53,6.45-5.43,6.45c-0.93,0-1.97-0.21-3.12-0.64
			c-0.79-0.32-2.38-1.24-4.78-2.77c-2.4-1.52-4.28-2.46-5.64-2.82c-1.47-0.39-2.97-0.59-4.51-0.59c-2.4,0-4.89,0.48-7.47,1.45
			c-2.08,0.75-3.91,2.01-5.48,3.76c-1.5,1.76-2.56,3.74-3.17,5.97c-0.61,2.36-0.91,4.66-0.91,6.88c0,1.54,0.14,3.05,0.43,4.51
			c0.68,3.26,2.2,6.81,4.57,10.64c4.98,7.99,13.06,14.08,24.24,18.27l6.07-4.51v-7.69c0-0.79-0.62-1.79-1.85-3.01
			c-1.24-1.22-2.88-2.74-4.92-4.57L124.19,246.63z"/>
		<path class="st0" d="M145.76,258.19c0.36,1.25,0.82,2.45,1.4,3.6c0.86,1.58,1.88,2.92,3.06,4.03c2.54,2.33,5.75,3.49,9.62,3.49
			c1.22,0,2.51-0.13,3.87-0.38l-10.96,8.38c-0.47-0.04-0.95-0.09-1.45-0.16c-0.65-0.11-1.29-0.25-1.93-0.43
			c-1.72-0.5-3.3-1.25-4.73-2.26c-4.08-2.87-6.68-7.54-7.79-14.03c-0.36-1.93-0.54-3.92-0.54-5.97c0-2.4,0.25-4.85,0.75-7.36
			c1.86-9.32,7.04-15.08,15.53-17.31l10.75,14.89l-0.27,0.22L145.76,258.19z M147,237.01c-1.61,2.76-2.42,6.38-2.42,10.86
			c0,1.93,0.16,4.05,0.48,6.34l9.24-7.09L147,237.01z"/>
		<path class="st0" d="M185.14,249.67c4.93,2.85,7.6,5.65,8.03,8.41c0.29,1.65,0.43,3.14,0.43,4.46c0,0.57-0.04,1.13-0.11,1.67
			c-0.29,2.26-1.09,4.07-2.42,5.43c-0.21,0.18-3.1,2.37-8.65,6.56c-1.04,0.75-2.19,1.13-3.44,1.13c-1.58,0-3.35-0.61-5.32-1.83
			c-3.48-2.11-5.36-4.69-5.64-7.74l7.47-5.54c0.25,0.9,0.68,1.79,1.29,2.69c1.65,2.36,3.58,3.83,5.8,4.41
			c0.39,0.11,0.75,0.16,1.08,0.16c1,0,1.74-0.43,2.2-1.29c0.11-0.18,0.2-0.45,0.27-0.81l0.05-0.38v-0.38
			c0.04-0.21,0.05-0.43,0.05-0.64c0-0.32-0.04-0.63-0.11-0.91c-0.65-3.22-2.94-5.83-6.88-7.82c-3.94-1.99-6.45-3.38-7.52-4.17
			c-2.72-2.08-4.08-4.5-4.08-7.26v-0.59c0.18-2.54,1.15-4.66,2.9-6.34l0.54-0.48l10.37-7.74c0.32-0.04,0.66-0.05,1.02-0.05
			c2.19,0,4.37,0.79,6.56,2.37c2.47,1.76,4.16,3.83,5.05,6.23l-7.69,5.75c0-0.14-0.54-0.91-1.61-2.31
			c-1.18-1.43-2.28-2.44-3.28-3.01c-0.86-0.57-1.99-0.93-3.39-1.08h-0.22c-0.39,0-0.7,0.07-0.91,0.21l-0.11,0.11
			c-0.75,0.57-1.13,1.36-1.13,2.36v0.11c0.04,0.36,0.13,0.75,0.27,1.18c0.11,0.29,0.25,0.59,0.43,0.91
			C177.32,244.75,180.22,246.82,185.14,249.67z"/>
		<path class="st0" d="M210.5,263.83c2.69,3.65,6.49,5.48,11.39,5.48c1.22,0,2.51-0.11,3.87-0.32l-10.96,8.33
			c-0.47-0.04-0.95-0.09-1.45-0.16c-0.65-0.11-1.29-0.25-1.93-0.43c-1.72-0.5-3.3-1.25-4.73-2.26c-4.09-2.87-6.68-7.52-7.79-13.97
			c-0.36-1.93-0.54-3.91-0.54-5.91c0-2.4,0.25-4.86,0.75-7.36c0.82-4.08,2.31-7.51,4.46-10.27c2.72-3.44,6.41-5.77,11.07-6.99
			l6.72,9.3l-6.93,5.27l-5.37-7.36c-1.61,2.76-2.42,6.32-2.42,10.7c0,2.65,0.29,5.57,0.86,8.76
			C207.82,259.14,208.82,261.54,210.5,263.83z"/>
		<path class="st0" d="M258.51,264.48c0,3.08,1.29,5.39,3.87,6.93l-7.95,5.91l-0.05-0.05h-0.05c-3.73-2.8-5.59-6.32-5.59-10.59
			v-24.35c0-1.54-1.04-2.9-3.12-4.08l-5.21,3.82v22.41c0,3.08,1.27,5.39,3.82,6.93l-7.95,5.91l-0.05-0.05h-0.05
			c-3.73-2.8-5.59-6.32-5.59-10.59V224.7c0-1.15-0.2-2.2-0.59-3.17c-0.32-0.75-0.77-1.47-1.34-2.15c-0.65-0.72-1.29-1.25-1.93-1.61
			l7.95-5.91h0.11l0.05,0.05l0.11,0.05l0.27,0.16l0.38,0.22c0.29,0.18,0.59,0.39,0.91,0.64c0.36,0.25,0.7,0.54,1.02,0.86
			c0.86,0.82,1.52,1.7,1.99,2.63c0.61,1.22,0.91,2.51,0.91,3.87v17.41l9.46-7.04c3.15,1.22,5.45,2.99,6.88,5.32
			c1.15,1.86,1.72,4,1.72,6.4L258.51,264.48z"/>
		<path class="st0" d="M296.15,264.48c0,3.08,1.27,5.39,3.82,6.93l-7.95,5.91l-0.05-0.05h-0.05c-3.69-2.8-5.54-6.32-5.54-10.59
			v-24.35c0-1.54-1.02-2.9-3.06-4.08l-5.21,3.82v22.41c0,3.08,1.27,5.39,3.82,6.93l-7.95,5.91l-0.05-0.05h-0.05
			c-3.73-2.8-5.59-6.32-5.59-10.59v-22.95c0-2.04-0.65-3.8-1.93-5.27c-0.65-0.75-1.29-1.31-1.93-1.67l7.95-5.91h0.05l0.16,0.11
			l0.21,0.11l0.32,0.16c0.25,0.18,0.52,0.36,0.81,0.54c0.32,0.25,0.63,0.5,0.91,0.75c0.75,0.65,1.38,1.36,1.88,2.15
			c0.65,0.97,1.06,2.01,1.24,3.12l9.62-7.09c4.05,1.58,6.68,4.08,7.9,7.52l10.1-7.52c3.15,1.22,5.45,2.99,6.88,5.32
			c1.15,1.86,1.72,4,1.72,6.4v22.04c0,3.08,1.29,5.39,3.87,6.93l-7.95,5.91l-0.05-0.05h-0.05c-3.73-2.8-5.59-6.32-5.59-10.59v-24.35
			c0-1.54-1.02-2.9-3.06-4.08l-5.16,3.82V264.48z"/>
		<path class="st0" d="M350.61,265.44c0,0.86,0.22,1.68,0.64,2.47c0.32,0.65,0.75,1.27,1.29,1.88c0.68,0.68,1.34,1.22,1.99,1.61
			l-8.01,5.91c-1.33-0.75-2.45-1.9-3.39-3.44c-0.68-1.15-1.26-2.47-1.72-3.98l-10,7.42c-4.84-1.9-7.63-5.03-8.38-9.41h-0.05
			c-0.14-0.72-0.23-1.54-0.27-2.47h0.05v-18.38c0-1.9,1-3.92,3.01-6.07c1.58-1.72,3.78-3.46,6.61-5.21
			c3.22-2.04,6.43-3.73,9.62-5.05c3.15,1.22,5.45,2.99,6.88,5.32c1.15,1.86,1.72,4,1.72,6.4V265.44z M340.88,242.33
			c0-1.54-1.04-2.9-3.12-4.08c-3.44,2.54-5.16,5.27-5.16,8.17v19.3c0,1.54,1.04,2.9,3.12,4.08l5.11-3.76L340.88,242.33z"/>
		<path class="st0" d="M369.87,263.83c2.69,3.65,6.49,5.48,11.39,5.48c1.22,0,2.51-0.11,3.87-0.32l-10.96,8.33
			c-0.47-0.04-0.95-0.09-1.45-0.16c-0.65-0.11-1.29-0.25-1.93-0.43c-1.72-0.5-3.3-1.25-4.73-2.26c-4.08-2.87-6.68-7.52-7.79-13.97
			c-0.36-1.93-0.54-3.91-0.54-5.91c0-2.4,0.25-4.86,0.75-7.36c0.82-4.08,2.31-7.51,4.46-10.27c2.72-3.44,6.41-5.77,11.07-6.99
			l6.72,9.3l-6.93,5.27l-5.37-7.36c-1.61,2.76-2.42,6.32-2.42,10.7c0,2.65,0.29,5.57,0.86,8.76
			C367.18,259.14,368.19,261.54,369.87,263.83z"/>
		<path class="st0" d="M390.47,224.7c0-1.15-0.2-2.2-0.59-3.17c-0.32-0.75-0.77-1.47-1.34-2.15c-0.65-0.72-1.29-1.25-1.93-1.61
			l8.01-5.91h0.05l0.05,0.05l0.11,0.05l0.27,0.16l0.38,0.22c0.32,0.18,0.63,0.39,0.91,0.64c0.36,0.25,0.7,0.54,1.02,0.86
			c0.86,0.82,1.52,1.7,1.99,2.63c0.61,1.22,0.91,2.51,0.91,3.87v18.38l11.82-8.81l0.05,0.05l0.05-0.11c0.29,0.5,0.63,0.97,1.02,1.4
			c0.54,0.57,1.13,1.04,1.77,1.4c1.11,0.68,2.35,1.02,3.71,1.02c0.75,0,1.54-0.11,2.36-0.32c-0.65,1.33-1.56,2.62-2.74,3.87
			c-1,1.07-2.04,1.88-3.12,2.42c-1.08,0.54-2.15,0.81-3.23,0.81c-0.32,0-0.64-0.02-0.97-0.05c2.87,1.25,4.98,3.01,6.34,5.27
			c1.07,1.79,1.61,3.83,1.61,6.13v12.68c0,3.08,1.29,5.39,3.87,6.93l-7.95,5.91l-0.05-0.05h-0.05c-3.62-2.72-5.48-6.15-5.59-10.27
			v-15.32c0-1.51-1.04-2.87-3.12-4.08l-5.8,4.3v12.58c0,3.08,1.29,5.39,3.87,6.93l-8.01,5.91l-0.05-0.05h-0.05
			c-3.73-2.8-5.59-6.32-5.59-10.59V224.7z M410.25,240.18c-1.22-0.32-2.4-0.93-3.55-1.83l-6.4,4.73v4.46L410.25,240.18z"/>
	</g>
</g>
</svg>
