<?xml version="1.0" encoding="utf-8"?>
<!-- Generator: Adobe Illustrator 23.0.3, SVG Export Plug-In . SVG Version: 6.00 Build 0)  -->
<svg version="1.1" id="Calque_1" xmlns="http://www.w3.org/2000/svg" xmlns:xlink="http://www.w3.org/1999/xlink" x="0px" y="0px"
	 viewBox="0 0 500 500" style="enable-background:new 0 0 500 500;" xml:space="preserve">
<style type="text/css">
	.st0{fill:url(#SVGID_1_);}
	.st1{fill:url(#SVGID_2_);}
	.st2{fill:url(#SVGID_3_);}
	.st3{fill:url(#SVGID_4_);}
	.st4{fill:url(#SVGID_5_);}
</style>
<g>
	<linearGradient id="SVGID_1_" gradientUnits="userSpaceOnUse" x1="228.6315" y1="333.5718" x2="331.6985" y2="195.1035">
		<stop  offset="0" style="stop-color:#0055B3"/>
		<stop  offset="1" style="stop-color:#00BCE4"/>
	</linearGradient>
	<path class="st0" d="M177.02,323.96c-2.87-1.44-3.32-2.95-1.77-5.83c1.65-3.05,4.2-5.34,6.61-7.71
		c7.11-6.99,15.15-12.69,24.13-17.09c5.57-2.73,11.59-3.74,17.54-5c17.4-3.68,34.88-6.91,52.46-9.57
		c10.29-1.55,20.61-2.94,30.97-3.96c0.16-0.02,0.32-0.09,0.63-0.19c-0.42-0.63-1.08-0.7-1.61-0.88c-5.59-1.94-11.4-2.76-17.25-3.26
		c-8.16-0.71-16.34-0.51-24.49,0.03c-11.02,0.74-21.99,1.98-32.91,3.59c-2.22,0.32-4.42,0.67-6.69,0.18
		c-4.16-0.91-6.98-4.14-6.71-8.39c0.35-5.62,2.36-10.51,7.08-14.01c2.29-1.7,4.84-2.75,7.65-2.88c17.68-0.81,35.32-0.55,52.75,3.03
		c11.52,2.37,22.23,6.8,32.02,13.29c4.37,2.89,7.8,6.92,9.48,11.82c2.04,5.97,2,11.08-2.3,14.88c-2.26,2-4.95,2.9-7.86,3.23
		c-27.44,3.12-54.39,8.76-81.22,15.12c-17.53,4.15-34.87,9.03-52.33,13.43c-0.11,0.02-0.2,0.11-0.31,0.15
		C180.93,323.96,178.98,323.96,177.02,323.96z"/>
	<linearGradient id="SVGID_2_" gradientUnits="userSpaceOnUse" x1="140.5102" y1="253.3902" x2="277.186" y2="122.0917">
		<stop  offset="0" style="stop-color:#FD2500"/>
		<stop  offset="1" style="stop-color:#FFD975"/>
	</linearGradient>
	<path class="st1" d="M293.45,156.04c3.03,1.65,3.38,3.05,1.47,6.08c-2,3.16-4.84,5.56-7.52,8.06
		c-7.22,6.72-15.36,12.11-24.55,15.79c-5.49,2.2-11.38,2.82-17.13,3.94c-18.92,3.66-37.95,6.71-57.1,8.93
		c-9.53,1.11-19.1,1.94-28.66,2.8c-5.85,0.53-10.41-3.12-10.94-8.6c-0.59-6.14,3.47-11.11,9.77-11.81
		c9.84-1.09,19.65-2.23,29.43-3.75c15.36-2.38,30.6-5.34,45.79-8.61c16.65-3.59,33.21-7.6,49.73-11.78c1.5-0.38,3.02-0.7,4.53-1.05
		C290,156.04,291.72,156.04,293.45,156.04z"/>
	<linearGradient id="SVGID_3_" gradientUnits="userSpaceOnUse" x1="215.6703" y1="323.9242" x2="318.7373" y2="185.4561">
		<stop  offset="0" style="stop-color:#0055B3"/>
		<stop  offset="1" style="stop-color:#00BCE4"/>
	</linearGradient>
	<path class="st2" d="M374.99,185.41c-1.59,3.81-4.41,6.73-7.15,9.66c-6.68,7.18-14.31,13.15-23.11,17.56
		c-4.41,2.22-9.24,3.18-13.96,4.46c-20.94,5.72-42.02,10.83-63.37,14.79c-7.3,1.36-14.62,2.54-21.95,3.73
		c-5.16,0.84-9.4-1.54-10.89-6c-1.67-5.01,0.35-10.03,5-12.46c1.77-0.93,3.69-1.28,5.62-1.62c24.4-4.34,48.31-10.71,72.02-17.84
		c15.43-4.64,30.76-9.66,46.04-14.79c2.02-0.68,4.09-1.15,6.21-1.49s4.01-0.05,5.55,1.57C374.99,183.8,374.99,184.61,374.99,185.41z
		"/>
	<linearGradient id="SVGID_4_" gradientUnits="userSpaceOnUse" x1="143.4233" y1="256.4225" x2="280.0991" y2="125.124">
		<stop  offset="0" style="stop-color:#FD2500"/>
		<stop  offset="1" style="stop-color:#FFD975"/>
	</linearGradient>
	<path class="st3" d="M183.22,239.71c-14.99-0.01-27.63-0.67-40.27-1.44c-2.24-0.14-4.47-0.37-6.7-0.58
		c-4.84-0.45-8.33-2.97-10.35-7.28c-1.96-4.2-0.77-7.57,3.76-8.95c1.71-0.53,3.45-0.89,5.26-0.88c4.26,0.01,8.52-0.02,12.78,0.01
		c10.31,0.07,20.6-0.26,30.88-0.75c11.08-0.54,22.15-1.32,33.19-2.6c1.37-0.16,2.75-0.17,4.11,0.18c4.02,1.05,6.08,4.2,5.52,8.3
		c-0.49,3.64-1.77,6.88-4.42,9.52c-2.36,2.34-5.19,3.63-8.49,3.73C199.3,239.27,190.1,239.78,183.22,239.71z"/>
	<linearGradient id="SVGID_5_" gradientUnits="userSpaceOnUse" x1="172.6267" y1="286.8219" x2="309.3025" y2="155.5235">
		<stop  offset="0" style="stop-color:#FD2500"/>
		<stop  offset="1" style="stop-color:#FFD975"/>
	</linearGradient>
	<path class="st4" d="M195.69,256.89c4.48-0.11,7.77,1.31,9.75,4.85c2.12,3.8,1.92,7.74-0.15,11.54c-1.57,2.88-3.99,4.9-6.96,6.21
		c-3.9,1.71-7.86,3.26-11.99,4.36c-4.19,1.11-7.54-0.65-9.06-4.72c-0.73-1.96-1.05-3.99-0.76-6.09c0.34-2.56,0.71-5.13,1.45-7.61
		c1.57-5.23,4.66-7.72,10.09-8.11C190.78,257.11,193.49,257.2,195.69,256.89z"/>
</g>
</svg>
