<?xml version="1.0" encoding="utf-8"?>
<!-- Generator: Adobe Illustrator 23.0.0, SVG Export Plug-In . SVG Version: 6.00 Build 0)  -->
<svg version="1.1" id="Calque_1" xmlns="http://www.w3.org/2000/svg" xmlns:xlink="http://www.w3.org/1999/xlink" x="0px" y="0px"
	 viewBox="0 0 100 100" style="enable-background:new 0 0 100 100;" xml:space="preserve">
<style type="text/css">
	.st0{fill:url(#SVGID_1_);}
</style>
<linearGradient id="SVGID_1_" gradientUnits="userSpaceOnUse" x1="-0.6752" y1="49.487" x2="99.8083" y2="51.2673">
	<stop  offset="0" style="stop-color:#FFFFFF"/>
	<stop  offset="1" style="stop-color:#E6E6E6"/>
</linearGradient>
<path class="st0" d="M91.7,21.2c-4.7-2-10,0.2-12,4.9c-2.6,6.1-6.5,11.8-11.4,16.5c-2.8,2.6-5.9,5-9.2,6.9l-9.9-37.1
	C47.9,7.8,43,5,38.3,6.2c-3.4,0.9-5.8,3.6-6.4,6.8L20.7,54.8c-4-1-7.8-2.5-11.5-4.5l0,0c-2-1-4.5-0.4-5.7,1.5
	c-1.4,2-0.8,4.8,1.2,6.1c4.1,2.8,8.7,5,13.4,6.7l-6.4,23.9c-0.6,2.4,0.8,4.8,3.1,5.4c0.4,0.1,0.8,0.2,1.1,0.2c2,0,3.7-1.3,4.3-3.3
	L26.6,67c0.6,0.1,1.3,0.3,1.9,0.4c2.1,0.4,4.3,0.6,6.5,0.8c2.2,0.2,4.4,0.2,6.6,0.1c1.4,0,2.7-0.1,4.1-0.3l5.2,19.5
	c1.1,4,4.6,6.6,8.6,6.6c0.8,0,1.5-0.1,2.3-0.3c4.7-1.3,7.5-6.1,6.3-10.9l-5.1-19.1c5.6-2.2,10.9-5.3,15.7-9
	c7.1-5.5,13.2-12.6,17.6-20.7l0.1-0.1c0.1-0.3,0.3-0.5,0.4-0.8C98.6,28.5,96.4,23.2,91.7,21.2z M29.9,56.3c-0.1,0-0.3,0-0.4,0L36,32
	l6.3,23.7C38.3,56.3,34.1,56.5,29.9,56.3z"/>
</svg>
