<?xml version="1.0" encoding="utf-8"?>
<!-- Generator: Adobe Illustrator 23.0.3, SVG Export Plug-In . SVG Version: 6.00 Build 0)  -->
<svg version="1.1" id="Calque_1" xmlns="http://www.w3.org/2000/svg" xmlns:xlink="http://www.w3.org/1999/xlink" x="0px" y="0px"
	 viewBox="0 0 500 500" style="enable-background:new 0 0 500 500;" xml:space="preserve">
<style type="text/css">
	.st0{fill:#FFFFFF;}
</style>
<g>
	<path class="st0" d="M304.23,283.57c-0.92-1.68-6.01-6.1-6.46-6.49c-1.32-1.42-2.37-3.07-3.19-4.83
		c-1.35-2.46-15.28-34.6-15.63-35.58c-0.12-0.49,0.32-1.1,0.6-1.5c8.07-12.41,40.64-62.25,40.64-62.25c0.38-0.6,0.48-1.19,0.1-1.78
		c-2.84-6.18-7.03-13.33-7.03-13.33c-0.07-0.27-0.36-0.52-0.61-0.68c-0.55-0.33-0.79-0.19-1.11,0.38l-32.7,53.95l1.66-24.37
		c0-1.98,0.1-3.97-1.15-5.69c-2.79-4.18-8.46-9.75-8.46-9.75c-0.56-0.38-1.16-0.48-1.79-0.42c-0.49,0.05-0.92,0.66-0.91,1.18
		c0.01,0.41,0.04,0.83,0.09,1.24c0,0,0.56,5.72,0.22,10.92c-0.01,0.1-2.24,35.28-3.39,42.62c-0.03,0.27-0.18,0.55-0.33,0.78
		c0.25,0.05-13.14,17.87-15.76,19.56c-0.68,0.53-1.92,1.6-2.24,1.27c-0.35-0.46,0.12-1.67,0.53-2.46
		c0.47-0.88,8.61-15.96,9.48-17.32c0.33-0.56-0.55-2.47-0.76-3.14c-0.38-1.21-3.99-7.55-4.06-7.5c-0.47-0.66-1.35-0.81-2.13-0.57
		c-1.56,0.49-2.69,1.58-3.77,2.74c0,0-7.34,10.84-9.85,16.98c0,0-0.29,0.65-0.65,1.66c0.22-2,0-3.4-0.15-3.63
		c-2.85-8.49-10.55-16.67-10.55-16.67c-0.61-0.85-1.48-1.03-2.38-1.16c-0.62-0.09-1.28-0.04-1.79,0.41
		c-0.46,0.41-0.88,0.85-1.37,1.33c0.05,0.1,0.14,0.29,0.23,0.5c-0.6,0.57-1.19,1.14-1.79,1.69c-0.26,0.23-0.7,0.5-0.91,0.15
		c-0.47-0.79-1.32-1.04-1.95-1.57c-0.61-0.52-1.35-0.82-2.09-0.42c0,0-1.57,0.96-5.41,6.45c-0.36,0.56-0.57,1.11-0.47,1.77
		c0.08,0.57-0.14,1.05-0.47,1.49c-0.37,0.5-0.8,0.97-1.13,1.5c-0.48,0.76-1.03,1.51-0.86,2.51c0.04,0.26-0.01,0.6-0.15,0.82
		c-0.53,0.81-1.09,1.6-1.7,2.35c-0.48,0.58-1.02,1.07-1.26,1.83c-0.22,0.71-0.58,1.38-0.9,2.07c0,0-0.65,0.7-1.42,1.87
		c1.53-26.57,3.27-54.33,3.27-54.33c-0.03-0.92,0.16-1.74,0.66-2.49c0.27-0.4,0.24-0.79-0.03-1.13c-0.23-0.29-0.52-0.54-0.81-0.77
		c-5.39-3.81-15-7.67-15-7.67c-0.12-0.04-0.27-0.06-0.42-0.06c-0.21,0-0.41,0.04-0.55,0.14c-0.48,0.34-0.88,0.79-1.05,1.41
		c0,0-12.51,33.63-21.37,64.67c-0.23,0.67-0.55,1.32-0.85,2.03c-0.26-0.61-0.27-0.94-0.27-1.39c-0.08-14.41,0.84-20,0.84-20
		l1.67-18.52c0.07-1.29-0.18-2.57,0.71-3.67c0.32-0.4,0.48-0.92,0.28-1.42c-0.42-1.03-0.97-1.98-2.05-2.48c0,0-7.51-4.24-12.5-6.55
		c-0.15-0.09-0.34-0.14-0.52-0.16c-0.96-0.1-1.93-0.22-2.89-0.28c-0.07,0-0.14-0.01-0.2-0.01c-0.8,0-1.13,0.36-1.24,1.21
		c-0.04,0.34-0.04,0.7-0.17,1c-0.16,0.35-0.13,0.65,0,0.99c0,0,0.59,2.32,0.35,3.95c0,0-2.62,19.75-7.35,29.98
		c-0.13,0.27-0.25,0.69,0.34,0.96c0.14-0.28,0.35-0.56,0.41-0.86c0.08-0.37,0.59-0.85,0.59-0.85s-0.11,1.94-0.36,2.87
		c-3.5,10.6-8.21,27.5-17.58,65.05c-0.11,0.45-0.31,0.63-0.67,0.63c-0.09,0-0.2-0.01-0.31-0.03c0,0-9.32-1.5-13.46-1.53
		c-0.04,0-0.08,0-0.13,0c-0.55,0-1,0.21-1.44,0.52c-0.59,0.43-0.76,0.88-0.45,1.53c0,0,9.52,13.49,11.3,25.37
		c0.09,0.63,0.4,1.08,1.01,1.23l15.21,1.22c0,0,0.05,0,0.13,0c0.23,0,0.72-0.02,0.99-0.18c0.33-0.4,0.59-0.84,0.37-1.37
		c-0.22-0.52-0.5-1.02-0.74-1.52c-0.74-1.52,0.45-10.12,0.45-10.12c1.11-11.83,10.79-50.36,11.92-50.36c0.01,0,0.02,0,0.03,0.01
		c0.27,1.17,0.47,2.31,0.42,3.5c0,0,0.11,10.35,0.47,20.38c0.04,1.41,0.22,2.8-0.54,4.14c-0.46,0.8-0.09,1.79,0.61,2.13
		c0,0,6.75,2.68,18.24,5.23c0.58,0.11,1.35-0.51,1.58-1.22c7.72-29.25,13.7-47.73,13.7-47.73c0,0.68,0.03,1.21-0.01,1.74
		c0,0-1.27,31.88-2.2,49.68c-0.09,1.72-0.3,3.43-0.47,5.14c0,0-0.28,1.13,3.22,6.41c0,0,1.56,2.64,3.19,4.15
		c0.55,0.54,1.16,0.94,1.92,0.94c0.17,0,0.35-0.02,0.53-0.06c7.02-2.71,19.98-8.63,19.98-8.63c1.43-0.36,1.79-0.81,1.46-1.93
		c-1.97-6.18-6.02-14.16-6.02-14.16c-0.22-0.39-0.53-0.79-0.9-1.04c-0.33-0.23-0.67-0.32-1.02-0.32c-0.41,0-0.83,0.12-1.24,0.29
		c-0.67,0.27-1.32,0.57-1.99,0.85c-0.23,0.09-0.42,0.14-0.6,0.14c-0.47,0-0.74-0.35-0.75-1.04c0.08-5,0.75-18.14,1.6-33.31
		c0.08,0.11,0.15,0.22,0.24,0.33c0,0,4.04,5.94,11.87,11.9c0.47,0.22,0.99,0.41,1.51,0.45c2.51,0.23,4.59-0.83,6.47-2.35
		c10.36-9.32,15.8-20.88,15.8-20.88c0.05-0.11,0.09-0.23,0.14-0.34c-0.28,1.85-0.29,3.78,0.36,5.33c0.45,1.01,0.78,2.14,1.45,2.99
		c0,0,7.66,12.09,12.35,13.97c0.91,0.21,1.85,0.58,2.75,0.52c5.39-0.11,11.7-7.6,11.7-7.6s-1.52,36.54,0.19,51.77
		c0,0.73,0.31,1.3,0.86,1.73c0,0,7.21,4.76,12.51,7.61c0.46,0.2,0.79-0.14,1.07-0.4c0.13-0.12,0.15-0.52,0.06-0.7
		c-0.36-0.66-0.7-1.38-1.22-1.91c-1.92-1.96-2.16-9.42-2.17-9.68l0.88-55.23c1.27,3.04,8.46,19.76,15.43,25.24
		c1.06,1.03,11.41,8.64,11.41,8.64c0.71,0.44,1.06,0.42,1.6,0.46c0.75,0.07,1.47-0.63,1.33-1.28
		C304.8,284.72,304.53,284.12,304.23,283.57z M223.38,236.4c-0.78,1.23-9.64,12.77-11.32,14.12c-1.68,1.34-2.35,0.9-0.9-2.02
		c1.46-2.91,3.81-5.83,3.81-5.83s4.93-6.61,6.95-8.18C223.94,232.92,224.16,235.16,223.38,236.4z"/>
	<path class="st0" d="M393.28,179.37c-4.24-9.18-7.78-13.28-7.78-13.28c-0.35-0.46-1.02-0.92-1.35-0.74
		c-0.5,0.34-0.67,0.84-0.79,1.42c-0.13,0.6-0.33,1.2-0.6,1.76c0,0-17.65,25.75-28.09,41.24c0,0-7.01,8.33,1.66,17.36
		c0,0,3.35,3.55,6.15,6.66c0.56,0.49,0.55,0.74,0.08,1.32c0,0-31.08,38.44-46.19,55.99c-0.51,0.45-0.47,0.83-0.11,1.33
		c0.01,0.47,6.33,8.92,7.72,10.02c1.41,1.11,1.79,1.08,3.08-0.19c41.83-40.67,58.4-72.22,58.4-72.22c0.4-1.37,0.43-2.66-0.31-3.9
		c-7.13-12.64-8.99-13.36-8.99-13.36c-1.1-0.98-3.74-0.93-3.74-0.93c2.36-5.23,20.42-29.07,20.42-29.07
		C393.85,181.7,393.8,180.5,393.28,179.37z"/>
	<path class="st0" d="M213.11,201.64l5.34-3.79l0.75-0.54c0,0.33-0.87,4.95-0.87,4.95c-0.13,1.53-0.17,3.38-0.18,4.91
		c-0.01,1.54-0.4,3.29,0.38,5.02c0.31-0.42,1.35-2.48,1.5-2.76c0.7-1.36,1.34-1.33,2.4-2.44c0,0,0.98-0.82,0.55-2.55
		c-0.52-2.08-0.17-6.93,0.3-9.35c0.26-1.37,1.28-2.43,1.95-3.06c0.75-0.7,4.03-2.44,5.28-3.02c0.8-0.37,1.56-0.73,2.27-1.07
		l-0.09,0.78c-0.1,1.18-0.16,2.08-0.27,2.98c-0.12,1.01-0.23,2.03-0.42,3.03c-0.29,1.6-0.4,3.29-1.03,4.74
		c-0.82,1.9-0.73,3.9-1.15,5.83c-0.04,0.19-0.02,0.41,0.02,0.61c0.22,1,0.97,1.4,1.82,0.85c0.63-0.4,1.27-0.94,1.62-1.58
		c1.08-1.94,3.53-4.39,4.53-4.71c0.86,0.17,0.6,3.56,0.38,5.18c-0.18,1.31-0.44,2.62-0.65,3.92c-0.16,1.01-0.38,2.01-0.45,3.03
		c-0.07,1.03-0.2,2.09,0.33,3.35c0.59-0.57,1.07-0.99,1.48-1.46c1.17-2.43,2.08-4.58,2.79-6.49c0.19,0.6,0.41,1.21,0.7,1.82
		c1.05,2.4,1.73,3.65,4.26,4.11c2.35,0.03,5.03-1.95,5.03-1.95s5.35-4.6,8.04-9.72c0.5-0.95,0.85-2.42-0.49-2.64
		c-0.08,0.16-0.14,0.37-0.26,0.52c-1.13,1.37-6.13,7.03-9.02,7.45c0,0-4.35,0.97-3.49-5.03c5.35-2.69,7.81-5.33,7.81-5.33
		c2.56-2.45,2.89-3.59,3.68-6.05c0.35-1.19,0.35-2.46-0.44-3.69c-0.54-0.69-1.13-1.58-2.71-1.58c-2.56,0.32-4.93,1.46-6.57,2.92
		c-1.64,1.46-3.32,3.48-3.32,3.48s-0.75,1.02-1.58,2.7c-0.49-1.29-1.15-1.69-1.15-1.69c-0.94-0.4-1.87-0.47-2.84-0.26
		c-0.84,0.18-1.68,0.34-2.6,0.52c-0.4-0.7-0.31-1.46-0.21-2.21c0.15-1.16,0.33-2.32,0.5-3.48l0.26-2.18c0.95-0.49,1.5-0.79,1.5-0.79
		c0.68-0.38,1.98-1.98,1.88-2.63c-0.2-0.62-1.68-0.7-2.9-0.6c0.16-2.56,0.37-4.83,0.43-7.11c0.03-1.11-0.18-2.24-0.31-3.35
		c-0.08-0.7-0.46-1.12-1.2-1.15c-0.8-0.03-1.8-0.38-2.15,0.63c-0.48,1.38-1.11,2.87-1,4.26c0.18,2.36-0.06,4.69-0.11,7.02
		l-0.07,0.57l0,0c-2.78,0.65-5.23,1.9-6.96,2.75c-0.52,0.26-2.1,1.5-2.2,1.15c-0.35-0.75-0.44-1.81-0.43-2.55
		c0.03-1.94,0.33-3.75,0.3-5.69c-0.03-1.56-0.67-2.81-2.34-2.21c-1.3,0.48-2.65,2.38-2.54,3.8c0.19,2.6,0.38,5.19,0.6,7.79
		c0.09,1.03-0.05,1.89-1.01,2.53c-1.44,0.95-2.86,1.94-4.59,2.31c-1.39,0.3-2.47,2.12-2.84,3.53c-0.52,1.97-0.46,2.87,0.06,4.86
		C211.7,201.82,212.16,202.06,213.11,201.64z M250.74,192.33c1.83-1.57,2.4-1.53,2.34-0.66c-0.06,0.87-2.26,4.98-5.6,6.45
		C247.48,198.13,248.91,193.9,250.74,192.33z"/>
	<path class="st0" d="M337.43,240.27c0.54-1.39,0.09-5.41-0.74-8.04c-0.16-0.5-0.11-0.87,0.42-1.13c0,0,2.96-0.94,3.16,0.03
		c0.08,0.39,0,0.83-0.14,1.21c-0.33,0.91-0.18,1.57,0.39,2.5c0,0,4.63,7.62,6.7,9.91c0.77,0.89,1.69,1.6,2.78,2.09
		c0.84,0.37,1.39-0.05,1.22-0.92c-0.08-0.4-0.28-0.8-0.49-1.16c-0.33-0.54-0.37-1.09-0.2-1.65c0.74-2.23,1.78-5.02,1.78-5.02
		c3.28-9.62-2.68-16.71-2.68-16.71c-5.14-6.83-14.58-6.47-14.58-6.47c-2.92-0.01-5.62,0.81-8.25,1.91
		c-0.74,0.31-1.36,0.31-2.02-0.16c-0.5-0.36-1.08-0.62-1.6-0.94c-0.57-0.35-1.04,0.03-1.51,0.2c-0.47,0.17-0.22,0.61-0.23,0.96
		c0,0,0.45,0.73-0.8,3.74c-0.14,0.84,0,1.67,0.55,2.4c0,0,3.91,3.66,3.95,6.61c0.66,0.54-6.37,14.87-18.74,21.49
		c-13.6,6.14-12.19-5.47-12.1-6.19c0,0,7.6,1.29,10.78-0.69c11.14-7.83,9.45-18.81,9.45-18.81c-2.54-14.11-16.34-4.24-16.34-4.24
		s-17.46,13.94-10.44,30.98c0,0,8.81,16.98,25.76,15.19C328.89,264.36,337.43,240.27,337.43,240.27z M302.91,228.11
		c2.79-2.29,3.66-2.23,3.57-0.96c-0.09,1.27-3.45,7.27-8.54,9.41C297.94,236.56,300.12,230.4,302.91,228.11z"/>
</g>
</svg>
