<?xml version="1.0" encoding="utf-8"?>
<!-- Generator: Adobe Illustrator 23.0.3, SVG Export Plug-In . SVG Version: 6.00 Build 0)  -->
<svg version="1.1" id="Calque_1" xmlns="http://www.w3.org/2000/svg" xmlns:xlink="http://www.w3.org/1999/xlink" x="0px" y="0px"
	 viewBox="0 0 500 500" style="enable-background:new 0 0 500 500;" xml:space="preserve">
<style type="text/css">
	.st0{fill:url(#SVGID_1_);}
	.st1{fill:#1F274A;}
	.st2{fill:url(#SVGID_2_);}
	.st3{fill:url(#SVGID_3_);}
	.st4{fill:url(#SVGID_4_);}
	.st5{fill:url(#SVGID_5_);}
</style>
<linearGradient id="SVGID_1_" gradientUnits="userSpaceOnUse" x1="980.8417" y1="-152.6311" x2="977.5053" y2="945.1599">
	<stop  offset="0" style="stop-color:#CC3399"/>
	<stop  offset="1" style="stop-color:#3157A3"/>
</linearGradient>
<rect x="748.83" y="-136.83" class="st0" width="461.62" height="761.87"/>
<g>
	<g>
		<g>
			<g>
				<g>
					<path class="st1" d="M164.97,298.24h-7.69v6.46c0,1.75,1.28,2.62,3.84,2.62c3.36,0,6.16,0.9,8.4,2.7
						c2.39,1.9,3.59,4.41,3.59,7.53V326c0,1.54-0.6,2.86-1.81,3.94c-1.17,1.09-2.57,1.63-4.2,1.63h-11.94
						c-1.63,0-3.04-0.54-4.22-1.63c-1.19-1.09-1.78-2.4-1.78-3.94v-5.22l8.12-3.02v6.26h7.69v-6.46c0-1.76-1.28-2.65-3.84-2.65
						c-3.34,0-6.13-0.89-8.37-2.67c-2.39-1.9-3.59-4.41-3.59-7.53v-8.45c0-1.54,0.59-2.87,1.78-3.97c1.19-1.07,2.6-1.6,4.22-1.6
						h11.94c1.63,0,3.03,0.53,4.2,1.6c1.2,1.1,1.81,2.43,1.81,3.97v5.21l-8.14,3.01L164.97,298.24L164.97,298.24z"/>
				</g>
				<g>
					<path class="st1" d="M189.15,298.24h-11.99v-7.56h23.95v7.56h-7.91v33.34h-8.09v-30.32L189.15,298.24z"/>
				</g>
				<g>
					<path class="st1" d="M338.89,298.24H326.9v-7.56h23.95v7.56h-7.91v33.34h-8.09v-30.32L338.89,298.24z"/>
				</g>
				<g>
					<path class="st1" d="M212.92,324.02h7.69v-33.34h8.14V326c0,1.54-0.6,2.86-1.81,3.94c-1.17,1.09-2.57,1.63-4.2,1.63h-11.93
						c-1.63,0-3.04-0.54-4.22-1.63c-1.19-1.09-1.78-2.4-1.78-3.94v-35.32h8.12L212.92,324.02L212.92,324.02z"/>
				</g>
				<g>
					<path class="st1" d="M236.69,290.68h17.94c1.63,0,3.03,0.53,4.2,1.6c1.2,1.1,1.81,2.43,1.81,3.97v25.09
						c0,3.12-1.2,5.64-3.59,7.56c-2.24,1.78-5.04,2.67-8.4,2.67h-11.96L236.69,290.68L236.69,290.68z M244.81,298.24v25.78h3.84
						c2.56,0,3.84-0.89,3.84-2.67v-23.11H244.81z"/>
				</g>
				<g>
					<path class="st1" d="M276.31,324.02h13.54v7.56h-21.66v-40.9h21.66v7.56h-13.54v9.09h11.27v7.58h-11.27V324.02z"/>
				</g>
				<g>
					<path class="st1" d="M303.92,305.24v26.34h-8.12v-40.9h11.27l6.64,26.47v-26.47h8.12v40.9h-11.25L303.92,305.24z"/>
				</g>
			</g>
		</g>
	</g>
	<g>
		<g>
			<path class="st1" d="M176.01,354.94c0,0.2,0.17,0.37,0.37,0.37h3.44c0.2,0,0.37-0.17,0.37-0.37v-2.44h2.91v3.33
				c0,0.59-0.22,1.08-0.69,1.5c-0.46,0.42-0.99,0.63-1.63,0.63h-5.35c-0.64,0-1.18-0.21-1.64-0.63s-0.68-0.91-0.68-1.5V342.5
				c0-0.59,0.22-1.08,0.68-1.5c0.47-0.42,1-0.62,1.65-0.62h5.35c0.64,0,1.17,0.2,1.63,0.62c0.46,0.43,0.69,0.92,0.69,1.51v3.31
				h-2.91v-2.42c0-0.2-0.17-0.37-0.37-0.37h-3.44c-0.2,0-0.37,0.17-0.37,0.37L176.01,354.94L176.01,354.94z"/>
		</g>
		<g>
			<path class="st1" d="M193.59,347.46c0,0.2-0.17,0.37-0.37,0.37h-3.44c-0.2,0-0.37-0.17-0.37-0.37v-7.09h-2.9v17.59h2.9v-7.1
				c0-0.2,0.17-0.37,0.37-0.37h3.44c0.2,0,0.37,0.17,0.37,0.37v7.1h2.91v-17.59h-2.91V347.46z"/>
		</g>
		<g>
			<path class="st1" d="M203.53,354.24h3.1c0.18,0,0.33,0.13,0.36,0.3l0.66,3.42h2.94l-3.4-17.59h-4.23l-3.41,17.59h2.93l0.68-3.42
				C203.2,354.37,203.35,354.24,203.53,354.24z M204.7,343.37c0.02-0.19,0.18-0.33,0.37-0.33l0,0c0.19,0,0.35,0.14,0.37,0.33
				l0.89,7.81c0.01,0.1-0.02,0.21-0.09,0.29c-0.07,0.08-0.17,0.12-0.28,0.12h-1.77c-0.11,0-0.21-0.04-0.28-0.12
				c-0.07-0.08-0.1-0.18-0.09-0.29L204.7,343.37z"/>
		</g>
		<g>
			<path class="st1" d="M221.7,354.98c-0.04,0.17-0.19,0.29-0.36,0.29l0,0c-0.17,0-0.32-0.12-0.36-0.29l-3.29-14.61h-4.39v17.59h2.9
				v-11.71c0-0.19,0.14-0.35,0.33-0.37c0.01,0,0.03,0,0.04,0c0.17,0,0.32,0.12,0.36,0.29l2.49,11.79h3.83l2.47-11.78
				c0.04-0.17,0.19-0.29,0.36-0.29c0.01,0,0.03,0,0.04,0c0.19,0.02,0.33,0.18,0.33,0.37v11.71h2.91v-17.59h-4.39L221.7,354.98z"/>
		</g>
		<g>
			<path class="st1" d="M243.47,347.22v-4.72c0-0.59-0.23-1.08-0.69-1.51c-0.46-0.42-0.99-0.62-1.63-0.62h-7.67v17.59h2.9v-6.17
				c0-0.2,0.17-0.37,0.37-0.37h1.72c1.41,0,2.6-0.38,3.53-1.12C242.99,349.52,243.47,348.51,243.47,347.22z M240.56,347.22
				c0,0.58-0.27,1.56-2.09,1.56h-1.72c-0.2,0-0.37-0.17-0.37-0.37v-5.02c0-0.2,0.17-0.37,0.37-0.37h3.44c0.2,0,0.37,0.17,0.37,0.37
				V347.22z"/>
		</g>
		<g>
			<rect x="246.49" y="340.37" class="st1" width="2.9" height="17.59"/>
		</g>
		<g>
			<path class="st1" d="M263.32,355.83V342.5c0-0.59-0.23-1.08-0.69-1.51c-0.46-0.42-0.99-0.62-1.63-0.62h-5.35
				c-0.64,0-1.18,0.2-1.65,0.62c-0.45,0.42-0.68,0.91-0.68,1.5v13.33c0,0.59,0.22,1.08,0.68,1.5c0.47,0.43,1,0.63,1.64,0.63h5.35
				c0.64,0,1.17-0.21,1.63-0.63C263.1,356.91,263.32,356.42,263.32,355.83z M260.41,354.94c0,0.2-0.17,0.37-0.37,0.37h-3.44
				c-0.2,0-0.37-0.17-0.37-0.37v-11.55c0-0.2,0.17-0.37,0.37-0.37h3.44c0.2,0,0.37,0.17,0.37,0.37V354.94z"/>
		</g>
		<g>
			<path class="st1" d="M270.97,346.44l2.92,11.53h4.38v-17.59h-2.9v11.49c0,0.19-0.14,0.34-0.32,0.37c-0.02,0-0.03,0-0.05,0
				c-0.17,0-0.32-0.11-0.36-0.28l-2.91-11.58h-4.39v17.59h2.9v-11.43c0-0.19,0.14-0.34,0.32-0.37c0.02,0,0.03,0,0.05,0
				C270.78,346.16,270.93,346.27,270.97,346.44z"/>
		</g>
		<g>
			<path class="st1" d="M292.11,355.83v-3.79c0-1.29-0.48-2.3-1.47-3.09c-0.93-0.75-2.12-1.13-3.53-1.13
				c-1.82,0-2.09-0.97-2.09-1.54v-2.9c0-0.2,0.17-0.37,0.37-0.37h3.44c0.2,0,0.37,0.17,0.37,0.37v2.42h2.91v-3.31
				c0-0.59-0.23-1.08-0.69-1.51c-0.46-0.42-0.99-0.62-1.63-0.62h-5.35c-0.64,0-1.18,0.2-1.65,0.62c-0.45,0.42-0.68,0.91-0.68,1.5
				v3.79c0,1.29,0.48,2.3,1.47,3.09c0.93,0.74,2.12,1.12,3.52,1.12c1.82,0,2.09,0.97,2.09,1.56v2.9c0,0.2-0.17,0.37-0.37,0.37h-3.44
				c-0.2,0-0.37-0.17-0.37-0.37v-2.44h-2.9v3.33c0,0.59,0.22,1.08,0.68,1.5c0.47,0.43,1,0.63,1.64,0.63h5.35
				c0.64,0,1.17-0.21,1.63-0.63C291.89,356.91,292.11,356.42,292.11,355.83z"/>
		</g>
		<g>
			<path class="st1" d="M302.86,347.46c0,0.2-0.17,0.37-0.37,0.37h-3.44c-0.2,0-0.37-0.17-0.37-0.37v-7.09h-2.9v17.59h2.9v-7.1
				c0-0.2,0.17-0.37,0.37-0.37h3.44c0.2,0,0.37,0.17,0.37,0.37v7.1h2.91v-17.59h-2.91V347.46z"/>
		</g>
		<g>
			<rect x="309.89" y="340.37" class="st1" width="2.9" height="17.59"/>
		</g>
		<g>
			<path class="st1" d="M326.9,342.5c0-0.59-0.23-1.08-0.69-1.51c-0.46-0.42-0.99-0.62-1.63-0.62h-7.67v17.59h2.9v-6.17
				c0-0.2,0.17-0.37,0.37-0.37h1.72c1.41,0,2.6-0.38,3.53-1.12c0.99-0.79,1.47-1.79,1.47-3.09L326.9,342.5L326.9,342.5z
				 M323.99,347.22c0,0.58-0.27,1.56-2.09,1.56h-1.72c-0.2,0-0.37-0.17-0.37-0.37v-5.02c0-0.2,0.17-0.37,0.37-0.37h3.44
				c0.2,0,0.37,0.17,0.37,0.37V347.22z"/>
		</g>
	</g>
	<g>
		
			<linearGradient id="SVGID_2_" gradientUnits="userSpaceOnUse" x1="250.1334" y1="379.4875" x2="249.7974" y2="268.9315" gradientTransform="matrix(1 0 0 -1 0 500)">
			<stop  offset="0" style="stop-color:#CC3399"/>
			<stop  offset="1" style="stop-color:#336699"/>
		</linearGradient>
		<path class="st2" d="M299.75,199.09v28.47l0,0c0,0.58-0.31,1.12-0.82,1.41l-48.27,27.87c-0.64,0.37-1.21,0.21-1.47,0.09
			c-0.1-0.05-0.16-0.09-0.16-0.09l-48.27-27.87c-0.51-0.29-0.82-0.83-0.82-1.41l0,0v-12.85l0,0c0-0.86,0.67-1.57,1.52-1.63
			c1.34-0.09,2.72-0.17,4.1-0.26c0.94-0.06,1.73,0.69,1.73,1.63l0,0v8.86c0,0.58,0.31,1.12,0.82,1.41l40.92,23.63
			c0.05,0.03,0.11,0.06,0.16,0.08c0.47,0.21,1.02,0.18,1.47-0.08l40.92-23.63c0.51-0.29,0.82-0.83,0.82-1.41V198.7
			c-9.76-0.56-19.84-0.93-30-1.09c-4.47-0.07-8.91-0.11-13.21-0.12c-0.5,0-1,0-1.49,0c-20.8,0-40.08,0.78-58.17,2.35v33.12
			c0,2.07,1.1,3.98,2.89,5.01l54.53,31.48c0.7,0.4,1.46,0.65,2.24,0.74c1.21,0.14,2.46-0.11,3.55-0.74l54.53-31.48
			c1.79-1.03,2.89-2.94,2.89-5.01v-33c-2.8-0.24-5.65-0.46-8.56-0.67C301.13,199.26,300.68,199.23,299.75,199.09z"/>
		
			<linearGradient id="SVGID_3_" gradientUnits="userSpaceOnUse" x1="250.2279" y1="379.4872" x2="249.8919" y2="268.9313" gradientTransform="matrix(1 0 0 -1 0 500)">
			<stop  offset="0" style="stop-color:#CC3399"/>
			<stop  offset="1" style="stop-color:#336699"/>
		</linearGradient>
		<path class="st3" d="M350.2,197.08c-10.84-2.76-24.62-5.08-40.05-6.74V159.3c0-2.07-1.1-3.98-2.89-5.01l-54.53-31.48
			c-1.09-0.63-2.34-0.87-3.55-0.74c-0.78,0.09-1.54,0.33-2.24,0.74l-54.53,31.48c-1.79,1.03-2.89,2.94-2.89,5.01v30.98
			c-15.48,1.68-29.29,4.02-40.11,6.8c-0.58,0.79-0.07,1.52,0.56,1.52c0.05,0,0.09,0,0.14-0.01c13.64-2.33,29.14-4.15,45.72-5.39
			c1.37-0.07,2.73-0.16,4.09-0.35l0,0v-28.14l0,0c0-0.58,0.31-1.12,0.82-1.41l48.23-27.85c0.03-0.02,0.05-0.03,0.08-0.04
			c0.04-0.02,0.08-0.04,0.12-0.05c0.46-0.19,0.98-0.17,1.43,0.05c0.03,0.01,0.05,0.03,0.08,0.04l48.23,27.85
			c0.51,0.29,0.82,0.83,0.82,1.41l0,0v12.11v0.17c0,0.81-0.65,1.46-1.46,1.46h-0.25c-0.04,0-0.08,0-0.12,0
			c-1.27-0.1-2.6-0.21-3.96-0.31c-0.04,0-0.07,0-0.11,0c-0.81,0-1.46-0.65-1.46-1.46v-0.17v-8.49l0,0l-41.11-23.73
			c-0.64-0.37-1.4-0.47-2.1-0.31c-0.27,0.06-0.54,0.17-0.79,0.31l-41.11,23.73l0,0v24.3c0,0,0,0,0.01,0.01
			c9.71-0.69,19.84-1.13,30.12-1.33c3.92-0.08,7.88-0.12,11.78-0.12c0.26,0,0.52,0,0.78,0c14.98,0,29.9,0.54,44.34,1.59
			c2.64,0.19,5.91,0.49,8.56,0.75c0.06,0.01,0.12,0.01,0.17,0.01c17.4,1.52,32.91,3.09,46.86,5.48c0.05,0.01,0.09,0.01,0.14,0.01
			c0.41,0,0.77-0.31,0.81-0.75C350.88,197.55,350.6,197.18,350.2,197.08z"/>
	</g>
</g>
<g>
	<g>
		<g>
			<g>
				<g>
					<path class="st1" d="M892.12,298.24h-7.69v6.46c0,1.75,1.28,2.62,3.84,2.62c3.36,0,6.16,0.9,8.4,2.7
						c2.39,1.9,3.59,4.41,3.59,7.53V326c0,1.54-0.6,2.86-1.81,3.94c-1.17,1.09-2.57,1.63-4.2,1.63h-11.94
						c-1.63,0-3.04-0.54-4.22-1.63c-1.19-1.09-1.78-2.4-1.78-3.94v-5.22l8.12-3.02v6.26h7.69v-6.46c0-1.76-1.28-2.65-3.84-2.65
						c-3.34,0-6.13-0.89-8.37-2.67c-2.39-1.9-3.59-4.41-3.59-7.53v-8.45c0-1.54,0.59-2.87,1.78-3.97c1.19-1.07,2.6-1.6,4.22-1.6
						h11.94c1.63,0,3.03,0.53,4.2,1.6c1.2,1.1,1.81,2.43,1.81,3.97v5.21l-8.14,3.01v-6.24H892.12z"/>
				</g>
				<g>
					<path class="st1" d="M916.3,298.24h-11.99v-7.56h23.95v7.56h-7.91v33.34h-8.09v-30.32L916.3,298.24z"/>
				</g>
				<g>
					<path class="st1" d="M1066.04,298.24h-11.99v-7.56H1078v7.56h-7.91v33.34H1062v-30.32L1066.04,298.24z"/>
				</g>
				<g>
					<path class="st1" d="M940.07,324.02h7.69v-33.34h8.14V326c0,1.54-0.6,2.86-1.81,3.94c-1.17,1.09-2.57,1.63-4.2,1.63h-11.93
						c-1.63,0-3.04-0.54-4.22-1.63c-1.19-1.09-1.78-2.4-1.78-3.94v-35.32h8.12L940.07,324.02L940.07,324.02z"/>
				</g>
				<g>
					<path class="st1" d="M963.84,290.68h17.94c1.63,0,3.03,0.53,4.2,1.6c1.2,1.1,1.81,2.43,1.81,3.97v25.09
						c0,3.12-1.2,5.64-3.59,7.56c-2.24,1.78-5.04,2.67-8.4,2.67h-11.96V290.68L963.84,290.68z M971.96,298.24v25.78h3.84
						c2.56,0,3.84-0.89,3.84-2.67v-23.11H971.96z"/>
				</g>
				<g>
					<path class="st1" d="M1003.46,324.02H1017v7.56h-21.66v-40.9H1017v7.56h-13.54v9.09h11.27v7.58h-11.27V324.02z"/>
				</g>
				<g>
					<path class="st1" d="M1031.07,305.24v26.34h-8.12v-40.9h11.27l6.64,26.47v-26.47h8.12v40.9h-11.25L1031.07,305.24z"/>
				</g>
			</g>
		</g>
	</g>
	<g>
		<g>
			<path class="st1" d="M903.16,354.94c0,0.2,0.17,0.37,0.37,0.37h3.44c0.2,0,0.37-0.17,0.37-0.37v-2.44h2.91v3.33
				c0,0.59-0.22,1.08-0.69,1.5c-0.46,0.42-0.99,0.63-1.63,0.63h-5.35c-0.64,0-1.18-0.21-1.64-0.63c-0.46-0.42-0.68-0.91-0.68-1.5
				V342.5c0-0.59,0.22-1.08,0.68-1.5c0.47-0.42,1-0.62,1.65-0.62h5.35c0.64,0,1.17,0.2,1.63,0.62c0.46,0.43,0.69,0.92,0.69,1.51
				v3.31h-2.91v-2.42c0-0.2-0.17-0.37-0.37-0.37h-3.44c-0.2,0-0.37,0.17-0.37,0.37v11.54H903.16z"/>
		</g>
		<g>
			<path class="st1" d="M920.74,347.46c0,0.2-0.17,0.37-0.37,0.37h-3.44c-0.2,0-0.37-0.17-0.37-0.37v-7.09h-2.9v17.59h2.9v-7.1
				c0-0.2,0.17-0.37,0.37-0.37h3.44c0.2,0,0.37,0.17,0.37,0.37v7.1h2.91v-17.59h-2.91V347.46z"/>
		</g>
		<g>
			<path class="st1" d="M930.68,354.24h3.1c0.18,0,0.33,0.13,0.36,0.3l0.66,3.42h2.94l-3.4-17.59h-4.23l-3.41,17.59h2.93l0.68-3.42
				C930.35,354.37,930.5,354.24,930.68,354.24z M931.85,343.37c0.02-0.19,0.18-0.33,0.37-0.33l0,0c0.19,0,0.35,0.14,0.37,0.33
				l0.89,7.81c0.01,0.1-0.02,0.21-0.09,0.29c-0.07,0.08-0.17,0.12-0.28,0.12h-1.77c-0.11,0-0.21-0.04-0.28-0.12
				c-0.07-0.08-0.1-0.18-0.09-0.29L931.85,343.37z"/>
		</g>
		<g>
			<path class="st1" d="M948.85,354.98c-0.04,0.17-0.19,0.29-0.36,0.29l0,0c-0.17,0-0.32-0.12-0.36-0.29l-3.29-14.61h-4.39v17.59
				h2.9v-11.71c0-0.19,0.14-0.35,0.33-0.37c0.01,0,0.03,0,0.04,0c0.17,0,0.32,0.12,0.36,0.29l2.49,11.79h3.83l2.47-11.78
				c0.04-0.17,0.19-0.29,0.36-0.29c0.01,0,0.03,0,0.04,0c0.19,0.02,0.33,0.18,0.33,0.37v11.71h2.91v-17.59h-4.39L948.85,354.98z"/>
		</g>
		<g>
			<path class="st1" d="M970.62,347.22v-4.72c0-0.59-0.23-1.08-0.69-1.51c-0.46-0.42-0.99-0.62-1.63-0.62h-7.67v17.59h2.9v-6.17
				c0-0.2,0.17-0.37,0.37-0.37h1.72c1.41,0,2.6-0.38,3.53-1.12C970.14,349.52,970.62,348.51,970.62,347.22z M967.71,347.22
				c0,0.58-0.27,1.56-2.09,1.56h-1.72c-0.2,0-0.37-0.17-0.37-0.37v-5.02c0-0.2,0.17-0.37,0.37-0.37h3.44c0.2,0,0.37,0.17,0.37,0.37
				V347.22z"/>
		</g>
		<g>
			<rect x="973.64" y="340.37" class="st1" width="2.9" height="17.59"/>
		</g>
		<g>
			<path class="st1" d="M990.47,355.83V342.5c0-0.59-0.23-1.08-0.69-1.51c-0.46-0.42-0.99-0.62-1.63-0.62h-5.35
				c-0.64,0-1.18,0.2-1.65,0.62c-0.45,0.42-0.68,0.91-0.68,1.5v13.33c0,0.59,0.22,1.08,0.68,1.5c0.47,0.43,1,0.63,1.64,0.63h5.35
				c0.64,0,1.17-0.21,1.63-0.63C990.25,356.91,990.47,356.42,990.47,355.83z M987.56,354.94c0,0.2-0.17,0.37-0.37,0.37h-3.44
				c-0.2,0-0.37-0.17-0.37-0.37v-11.55c0-0.2,0.17-0.37,0.37-0.37h3.44c0.2,0,0.37,0.17,0.37,0.37V354.94z"/>
		</g>
		<g>
			<path class="st1" d="M998.12,346.44l2.92,11.53h4.38v-17.59h-2.9v11.49c0,0.19-0.14,0.34-0.32,0.37c-0.02,0-0.03,0-0.05,0
				c-0.17,0-0.32-0.11-0.36-0.28l-2.91-11.58h-4.39v17.59h2.9v-11.43c0-0.19,0.14-0.34,0.32-0.37c0.02,0,0.03,0,0.05,0
				C997.93,346.16,998.08,346.27,998.12,346.44z"/>
		</g>
		<g>
			<path class="st1" d="M1019.26,355.83v-3.79c0-1.29-0.48-2.3-1.47-3.09c-0.93-0.75-2.12-1.13-3.53-1.13
				c-1.82,0-2.09-0.97-2.09-1.54v-2.9c0-0.2,0.17-0.37,0.37-0.37h3.44c0.2,0,0.37,0.17,0.37,0.37v2.42h2.91v-3.31
				c0-0.59-0.23-1.08-0.69-1.51c-0.46-0.42-0.99-0.62-1.63-0.62h-5.35c-0.64,0-1.18,0.2-1.65,0.62c-0.45,0.42-0.68,0.91-0.68,1.5
				v3.79c0,1.29,0.48,2.3,1.47,3.09c0.93,0.74,2.12,1.12,3.52,1.12c1.82,0,2.09,0.97,2.09,1.56v2.9c0,0.2-0.17,0.37-0.37,0.37h-3.44
				c-0.2,0-0.37-0.17-0.37-0.37v-2.44h-2.9v3.33c0,0.59,0.22,1.08,0.68,1.5c0.47,0.43,1,0.63,1.64,0.63h5.35
				c0.64,0,1.17-0.21,1.63-0.63C1019.04,356.91,1019.26,356.42,1019.26,355.83z"/>
		</g>
		<g>
			<path class="st1" d="M1030.01,347.46c0,0.2-0.17,0.37-0.37,0.37h-3.44c-0.2,0-0.37-0.17-0.37-0.37v-7.09h-2.9v17.59h2.9v-7.1
				c0-0.2,0.17-0.37,0.37-0.37h3.44c0.2,0,0.37,0.17,0.37,0.37v7.1h2.91v-17.59h-2.91V347.46z"/>
		</g>
		<g>
			<rect x="1037.04" y="340.37" class="st1" width="2.9" height="17.59"/>
		</g>
		<g>
			<path class="st1" d="M1054.05,342.5c0-0.59-0.23-1.08-0.69-1.51c-0.46-0.42-0.99-0.62-1.63-0.62h-7.67v17.59h2.9v-6.17
				c0-0.2,0.17-0.37,0.37-0.37h1.72c1.41,0,2.6-0.38,3.53-1.12c0.99-0.79,1.47-1.79,1.47-3.09L1054.05,342.5L1054.05,342.5z
				 M1051.14,347.22c0,0.58-0.27,1.56-2.09,1.56h-1.72c-0.2,0-0.37-0.17-0.37-0.37v-5.02c0-0.2,0.17-0.37,0.37-0.37h3.44
				c0.2,0,0.37,0.17,0.37,0.37V347.22z"/>
		</g>
	</g>
	<g>
		
			<linearGradient id="SVGID_4_" gradientUnits="userSpaceOnUse" x1="977.2823" y1="379.4875" x2="976.9464" y2="268.9315" gradientTransform="matrix(1 0 0 -1 0 500)">
			<stop  offset="0" style="stop-color:#C74290"/>
			<stop  offset="1" style="stop-color:#3157A3"/>
		</linearGradient>
		<path class="st4" d="M1026.9,199.09v28.47l0,0c0,0.58-0.31,1.12-0.82,1.41l-48.27,27.87c-0.64,0.37-1.21,0.21-1.47,0.09
			c-0.1-0.05-0.16-0.09-0.16-0.09l-48.27-27.87c-0.51-0.29-0.82-0.83-0.82-1.41l0,0v-12.85l0,0c0-0.86,0.67-1.57,1.52-1.63
			c1.34-0.09,2.72-0.17,4.1-0.26c0.94-0.06,1.73,0.69,1.73,1.63l0,0v8.86c0,0.58,0.31,1.12,0.82,1.41l40.92,23.63
			c0.05,0.03,0.11,0.06,0.16,0.08c0.47,0.21,1.02,0.18,1.47-0.08l40.92-23.63c0.51-0.29,0.82-0.83,0.82-1.41V198.7
			c-9.76-0.56-19.84-0.93-30-1.09c-4.47-0.07-8.91-0.11-13.21-0.12c-0.5,0-1,0-1.49,0c-20.8,0-40.08,0.78-58.17,2.35v33.12
			c0,2.07,1.1,3.98,2.89,5.01l54.53,31.48c0.7,0.4,1.46,0.65,2.24,0.74c1.21,0.14,2.46-0.11,3.55-0.74l54.53-31.48
			c1.79-1.03,2.89-2.94,2.89-5.01v-33c-2.8-0.24-5.65-0.46-8.56-0.67C1028.28,199.26,1027.83,199.23,1026.9,199.09z"/>
		
			<linearGradient id="SVGID_5_" gradientUnits="userSpaceOnUse" x1="977.3768" y1="379.4872" x2="977.0408" y2="268.9313" gradientTransform="matrix(1 0 0 -1 0 500)">
			<stop  offset="0" style="stop-color:#C74290"/>
			<stop  offset="1" style="stop-color:#3157A3"/>
		</linearGradient>
		<path class="st5" d="M1077.35,197.08c-10.84-2.76-24.62-5.08-40.05-6.74V159.3c0-2.07-1.1-3.98-2.89-5.01l-54.53-31.48
			c-1.09-0.63-2.34-0.87-3.55-0.74c-0.78,0.09-1.54,0.33-2.24,0.74l-54.53,31.48c-1.79,1.03-2.89,2.94-2.89,5.01v30.98
			c-15.48,1.68-29.29,4.02-40.11,6.8c-0.58,0.79-0.07,1.52,0.56,1.52c0.05,0,0.09,0,0.14-0.01c13.64-2.33,29.14-4.15,45.72-5.39
			c1.37-0.07,2.73-0.16,4.09-0.35l0,0v-28.14l0,0c0-0.58,0.31-1.12,0.82-1.41l48.23-27.85c0.03-0.02,0.05-0.03,0.08-0.04
			c0.04-0.02,0.08-0.04,0.12-0.05c0.46-0.19,0.98-0.17,1.43,0.05c0.03,0.01,0.05,0.03,0.08,0.04l48.23,27.85
			c0.51,0.29,0.82,0.83,0.82,1.41l0,0v12.11v0.17c0,0.81-0.65,1.46-1.46,1.46h-0.25c-0.04,0-0.08,0-0.12,0
			c-1.27-0.1-2.6-0.21-3.96-0.31c-0.04,0-0.07,0-0.11,0c-0.81,0-1.46-0.65-1.46-1.46v-0.17v-8.49l0,0l-41.11-23.73
			c-0.64-0.37-1.4-0.47-2.1-0.31c-0.27,0.06-0.54,0.17-0.79,0.31l-41.11,23.73l0,0v24.3c0,0,0,0,0.01,0.01
			c9.71-0.69,19.84-1.13,30.12-1.33c3.92-0.08,7.88-0.12,11.78-0.12c0.26,0,0.52,0,0.78,0c14.98,0,29.9,0.54,44.34,1.59
			c2.64,0.19,5.91,0.49,8.56,0.75c0.06,0.01,0.12,0.01,0.17,0.01c17.4,1.52,32.91,3.09,46.86,5.48c0.05,0.01,0.09,0.01,0.14,0.01
			c0.41,0,0.77-0.31,0.81-0.75C1078.03,197.55,1077.75,197.18,1077.35,197.08z"/>
	</g>
</g>
</svg>
