<?xml version="1.0" encoding="utf-8"?>
<!-- Generator: Adobe Illustrator 23.0.0, SVG Export Plug-In . SVG Version: 6.00 Build 0)  -->
<svg version="1.1" id="Calque_1" xmlns="http://www.w3.org/2000/svg" xmlns:xlink="http://www.w3.org/1999/xlink" x="0px" y="0px"
	 viewBox="0 0 500 500" style="enable-background:new 0 0 500 500;" xml:space="preserve">
<style type="text/css">
	.st0{opacity:0.1;fill:#575757;enable-background:new    ;}
	.st1{fill:#F5FBFF;}
	.st2{fill:none;}
	.st3{fill:#123274;}
	.st4{fill:#1A1511;}
	.st5{fill:#EA5D57;}
	.st6{fill:#C14D48;}
	.st7{opacity:0.75;}
</style>
<g>
	<ellipse class="st0" cx="250" cy="359.4" rx="32.7" ry="4.8"/>
	<g>
		<path class="st1" d="M362.8,176.2c-1.6-5.9-6.3-13.9-19.6-18.6c-7.1-2.5-16.3-3.9-27.2-4.2c-13.8-23.2-39-37.6-66-37.6
			c-20.2,0-39.3,7.8-53.7,21.9c-14.1,13.8-22.2,32.1-23,51.7c-2.1,1.2-4.6,2.6-6.2,3.6c-9.7,5.9-17.2,11.8-22.2,17.7
			c-9.2,10.7-9.3,20-7.7,25.9c1.6,5.9,6.3,13.9,19.6,18.6c7.3,2.6,16.8,4,28.1,4.2c1,0,2,0,3.1,0c2.2,0,4.6,0,7-0.1
			c21.9,36.6,53,64.8,53.4,65l1.7,1.5l1.7-1.5c0.5-0.5,51.2-46.4,68.9-97.8c4.5-2.3,8.6-4.5,12.3-6.8c9.7-5.9,17.2-11.8,22.2-17.7
			C364.3,191.4,364.4,182.1,362.8,176.2z M152.3,229.6c-1.7-6.2,6.7-16.4,21.6-26.4c1.4,11.7,5.1,24.1,11,37
			C166.1,240,154,236,152.3,229.6z M326.3,201.4l0.4-4.9c0.1-1.5,0.1-2.7,0.1-3.9c0-9.1-1.5-17.9-4.6-26.3
			c13.4,1.9,22.7,6.2,24.1,11.4C347.8,183.7,340.4,192.4,326.3,201.4z"/>
		<path class="st2" d="M318.2,163.3c0,0.1,0.1,0.1,0.1,0.2c3.8,8.9,5.9,18.8,5.9,29.1l0,0c0,1.3,0,2.5-0.1,3.7c0,0.1,0,0.1,0,0.2
			c-0.1,3-0.5,6-0.9,9c0,0-0.1,0.3-0.1,0.8c0,0,0,0,0,0c17.8-10.4,27.7-21,25.5-29.2C346.7,169.9,334.8,164.9,318.2,163.3z"/>
		<polyline class="st3" points="326.7,196.6 326.7,196.6 326.7,196.4 		"/>
		<path class="st4" d="M360.4,176.8c-1.4-5.3-5.7-12.6-18-16.9c-7.1-2.5-16.3-3.9-27.3-4.1c-0.1,0-0.3,0-0.5,0l0,0
			c-12.8-22.4-36.9-37.6-64.5-37.6c-40.5,0-73.3,32.4-74.2,72.6c-2.5,1.4-5.6,3.1-7.4,4.2c-9.5,5.7-16.7,11.5-21.6,17.2
			c-8.5,9.9-8.6,18.3-7.2,23.6c1.4,5.3,5.7,12.6,18,16.9c7.1,2.5,16.3,3.8,27.3,4.1c3.6,0.1,7.5,0,11.4-0.2c0,0,0,0,0,0
			c0.2,0.4,0.4,0.6,0.4,0.7c21.9,37,53.3,65.1,53.3,65.1s50.7-45.5,68.3-97.1c0,0,0.1-0.3,0.2-0.7c0,0,0,0,0,0c4.6-2.3,9-4.7,13-7.1
			c9.5-5.7,16.7-11.5,21.6-17.2C361.7,190.6,361.8,182.1,360.4,176.8z M188.9,242.8c-21.8,0.2-36.7-4-39-12.5
			c-2.2-8.3,8.4-20.3,26.1-31.4c0,0,0,0.1,0,0.1c1.1,14.7,5.9,29.4,12.6,43.3C188.6,242.3,188.7,242.5,188.9,242.8
			C188.9,242.8,188.9,242.8,188.9,242.8z M250,212.3c-10.3,0-18.6-8.3-18.6-18.6s8.3-18.6,18.6-18.6s18.6,8.3,18.6,18.6
			S260.3,212.3,250,212.3z M323.1,206.2C323.1,206.3,323.1,206.3,323.1,206.2c0.1-0.4,0.1-0.7,0.1-0.8c0.4-3,0.8-6,0.9-9
			c0-0.1,0-0.1,0-0.2c0.1-1.3,0.1-2.5,0.1-3.7l0,0c0-10.3-2.1-20.2-5.9-29.1c0-0.1,0-0.1-0.1-0.2c16.6,1.6,28.5,6.6,30.4,13.7
			C350.9,185.3,340.9,195.9,323.1,206.2z"/>
		<g>
			<path class="st5" d="M298.5,218.3c4-1.7,7.9-3.4,11.5-5.2c0-0.3,0.1-0.5,0.1-0.8c0.7-3.5,1.5-7.9,1.7-8.8
				c0.4-2.6,0.6-5.2,0.8-7.6l0-0.1c0.1-1.3,0.1-2.3,0.1-3.2c0-8.5-1.7-16.8-5-24.6c-0.9-2.1-2-4.3-3.2-6.4
				c-11.1-19.6-32-31.7-54.5-31.7c-1.6,0-3.2,0.1-4.8,0.2h0c-14.7,1.1-28.4,7.3-39,17.7c-11.8,11.5-18.4,27-18.8,43.4
				c0,0.3,0,0.5,0,0.8c0,0.2,0,0.4,0,0.6c0,0.9,0,2,0.1,3.2v0.1c0,0.8,0.1,1.5,0.1,2.2c0.9,11.9,4.7,25,11.4,38.9
				c0.4,0.7,1.5,2.8,2.8,5.2c16.3-1.3,35.3-4.5,55.2-9.8C272.1,228.3,286.1,223.5,298.5,218.3L298.5,218.3z M250,223.8
				c-16.6,0-30.1-13.5-30.1-30.1c0-16.6,13.5-30.1,30.1-30.1s30.1,13.5,30.1,30.1C280.1,210.3,266.6,223.8,250,223.8z"/>
		</g>
		<g>
			<path class="st5" d="M291.7,236.3L291.7,236.3c-9.8,3.6-20.2,6.9-31,9.8c-12.4,3.3-24.7,5.9-36.3,7.7c-4.9,0.9-9.8,1.7-14.7,2.4
				c11.8,18.7,25.7,34.8,35.5,45.1l0,0c1.8,1.9,3.4,3.6,4.9,5c13.1-13.2,39.5-42.4,53.5-74.8C299.7,233.2,295.7,234.8,291.7,236.3z"
				/>
		</g>
		<g>
			<path class="st6" d="M310.2,212.4c0.7-3.5,1.5-7.9,1.7-8.8c0.4-2.6,0.6-5.2,0.8-7.6l0-0.1c0.1-1.3,0.1-2.3,0.1-3.2
				c0-8.5-1.7-16.8-5-24.6c-0.9-2.1-2-4.3-3.2-6.4c-11.1-19.6-32-31.7-54.5-31.7c-1.6,0-3.2,0.1-4.8,0.2
				c20.6,1.6,39.2,13.4,49.6,31.5c1.2,2.1,2.3,4.3,3.2,6.4c3.3,7.8,5,16.1,5,24.6c0,0.9,0,2-0.1,3.2l0,0.1c-0.1,2.4-0.4,5-0.8,7.6
				c-0.2,0.9-1,5.3-1.7,8.8c0,0.1-0.8,2.7-1.9,5.9c4-1.7,7.9-3.4,11.5-5.2C310.1,212.9,310.1,212.6,310.2,212.4z"/>
		</g>
		<g>
			<path class="st6" d="M291.7,236.3c-12.7,27-33.3,51.2-46.6,65.1c1.8,1.9,3.4,3.6,4.9,5c13.1-13.2,39.5-42.4,53.6-74.8
				C299.7,233.2,295.7,234.8,291.7,236.3z"/>
		</g>
		<g class="st7">
			<path class="st1" d="M214.4,155c-0.7,0-1.4-0.3-1.9-0.8c-0.9-1-0.9-2.6,0.2-3.6c3.5-3.2,7.5-5.9,11.7-8.1
				c1.2-0.6,2.8-0.2,3.4,1.1c0.6,1.2,0.2,2.8-1.1,3.4c-3.8,2-7.4,4.5-10.6,7.4C215.6,154.8,215,155,214.4,155z"/>
		</g>
		<g class="st7">
			<path class="st1" d="M198.1,208.8c-1.1,0-2.1-0.8-2.4-1.9c-1.2-4.6-1.8-9.3-1.8-14.1c0-12.1,3.8-23.7,10.9-33.5
				c0.8-1.1,2.4-1.4,3.5-0.6c1.1,0.8,1.4,2.4,0.6,3.5c-6.5,8.9-9.9,19.4-9.9,30.5c0,4.4,0.5,8.7,1.6,12.8c0.4,1.4-0.5,2.7-1.8,3.1
				C198.5,208.8,198.3,208.8,198.1,208.8z"/>
		</g>
	</g>
</g>
</svg>
