<?xml version="1.0" encoding="utf-8"?>
<!-- Generator: Adobe Illustrator 23.0.3, SVG Export Plug-In . SVG Version: 6.00 Build 0)  -->
<svg version="1.1" id="Calque_1" xmlns="http://www.w3.org/2000/svg" xmlns:xlink="http://www.w3.org/1999/xlink" x="0px" y="0px"
	 viewBox="0 0 500 500" style="enable-background:new 0 0 500 500;" xml:space="preserve">
<style type="text/css">
	.st0{fill:#D0D0D0;}
	.st1{fill:#FBBA00;}
	.st2{fill:#FFFFFF;}
</style>
<g id="wyffa">
	<g>
		<path class="st0" d="M217.35,354.92c-0.11-0.11-0.22-0.26-0.31-0.43c-0.06-0.32,0.01-0.56,0.22-0.71c0.2-0.16,0.49-0.35,0.87-0.59
			c0.41-0.2,0.77-0.35,1.11-0.45c0.33-0.1,0.67-0.18,1.02-0.24c0.37-0.11,0.75-0.1,1.13,0.05c0.58,0.11,1.07,0.41,1.45,0.88
			c0.39,0.48,0.66,1.01,0.81,1.59c0.28,1.12,0.57,2.52,0.85,4.16c0.27,1.64,0.53,3.41,0.76,5.3c0.23,1.88,0.43,3.82,0.61,5.82
			c0.17,2,0.33,3.92,0.48,5.77l0.12,1.26c0.69-2.09,1.41-4.32,2.13-6.73c0.73-2.4,1.46-4.91,2.21-7.51l0.57-1.91l0.57-1.95v0.05
			c0.84-2.95,1.67-5.83,2.47-8.66c0.81-2.82,1.62-5.46,2.43-7.92c0.54-1.68,1.17-3.47,1.85-5.38c0.68-1.91,1.45-3.81,2.33-5.73
			c0.87-1.91,1.83-3.73,2.89-5.49c1.05-1.75,2.22-3.3,3.49-4.64c1.27-1.35,2.67-2.42,4.19-3.23c1.52-0.81,3.18-1.21,4.97-1.21
			c1.21,0,2.47,0.19,3.78,0.58c1.3,0.39,2.72,1.02,4.25,1.91c0.09,0.26,0.16,0.49,0.22,0.69c0.06,0.2,0.07,0.42,0.05,0.65
			c-0.03,0.26-0.14,0.48-0.33,0.65c-0.19,0.17-0.53,0.33-1.02,0.48c-1.45-0.64-2.79-0.95-4.04-0.95c-1.51,0-2.89,0.4-4.15,1.19
			c-1.26,0.79-2.4,1.85-3.45,3.16c-1.04,1.32-1.99,2.82-2.85,4.51c-0.85,1.69-1.61,3.43-2.28,5.18c-0.67,1.77-1.26,3.51-1.78,5.21
			c-0.52,1.71-0.99,3.24-1.38,4.61l-1.69,5.68l-1.13,3.82c-0.75,2.69-1.57,5.54-2.45,8.53c-0.88,2.99-1.78,5.92-2.69,8.79
			c-0.91,2.87-1.8,5.54-2.67,8.01c-0.87,2.47-1.67,4.54-2.39,6.18c-0.43,0.87-1.03,1.72-1.78,2.59c-0.75,0.85-1.59,1.44-2.52,1.76
			c-0.29,0.09-0.58,0.15-0.87,0.17c-0.29,0.03-0.53,0.05-0.74,0.05c-0.78,0-1.38-0.19-1.83-0.59c-0.43-0.39-0.76-0.92-0.98-1.59
			s-0.35-1.42-0.41-2.26c-0.06-0.84-0.1-1.72-0.12-2.65l-0.09-0.17c-0.23-1.57-0.42-3.29-0.57-5.17c-0.15-1.88-0.31-3.79-0.48-5.73
			l-0.09-0.87c-0.15-2.11-0.32-4.07-0.52-5.89c-0.2-1.8-0.42-3.53-0.65-5.15c-0.99,1.79-2.03,3.72-3.15,5.77
			c-1.11,2.05-2.23,4.13-3.37,6.23c-1.13,2.1-2.23,4.17-3.32,6.23c-1.09,2.05-2.11,3.99-3.06,5.82c-0.09,0.15-0.19,0.33-0.31,0.54
			c-0.11,0.22-0.2,0.4-0.26,0.54c-0.06,0.09-0.11,0.19-0.17,0.33c-0.06,0.12-0.1,0.23-0.14,0.28c-0.67,1.3-1.43,2.56-2.28,3.8
			c-0.85,1.23-1.97,2.22-3.37,2.97c-1.07,0.54-2.25,0.83-3.52,0.83c-0.32,0-0.71-0.03-1.19-0.09c-0.48-0.06-0.91-0.11-1.28-0.17
			c-0.49-0.06-0.91-0.19-1.24-0.41s-0.45-0.5-0.37-0.85c0.11-0.26,0.28-0.53,0.52-0.83c0.23-0.26,0.49-0.59,0.76-0.98
			s0.49-0.81,0.64-1.24c0.2-0.49,0.43-1.25,0.67-2.26c0.25-1.01,0.47-2.19,0.67-3.52l0.35-1.69c0.84-3.79,1.66-7.65,2.45-11.57
			c0.79-3.92,1.43-7.9,1.89-11.92h-0.05l0.09-1.09c0.03-0.23,0.06-0.45,0.09-0.65c0.03-0.2,0.05-0.42,0.05-0.65
			c0.17-1.85,0.27-3.81,0.28-5.89c0.01-2.06-0.11-4.15-0.37-6.23c-0.26-2.08-0.67-4.1-1.24-6.03c-0.57-1.94-1.35-3.68-2.37-5.21
			c-1.01-1.53-2.27-2.81-3.75-3.85s-3.28-1.67-5.37-1.93c-1.62,0.15-3.23,0.71-4.82,1.69c-1.59,0.99-3.05,2.23-4.37,3.75
			c-1.32,1.52-2.43,3.24-3.32,5.18c-0.9,1.94-1.43,3.92-1.61,5.94c-0.15,1.91-0.01,3.74,0.41,5.49c0.42,1.75,1.02,3.3,1.8,4.65
			c0.78,1.35,1.7,2.39,2.76,3.15c1.05,0.75,2.14,1.09,3.28,1c1.16-0.03,2.27-0.43,3.32-1.19c1.05-0.77,2.02-1.72,2.89-2.89
			c0.87-1.16,1.61-2.4,2.23-3.73c0.62-1.33,1.08-2.56,1.37-3.69h-0.05c0-0.03,0.01-0.08,0.05-0.15c0.03-0.07,0.05-0.18,0.05-0.33
			c0.06-0.47,0.17-0.87,0.33-1.21c0.16-0.35,0.54-0.54,1.15-0.61c0.47-0.06,0.76,0.07,0.88,0.39c0.14,0.32,0.17,0.69,0.11,1.13
			c-0.06,0.41-0.14,0.81-0.24,1.21c-0.1,0.41-0.18,0.68-0.24,0.83v-0.05c-0.49,1.77-1.24,3.51-2.21,5.23
			c-0.99,1.72-2.16,3.27-3.52,4.63c-1.36,1.36-2.88,2.46-4.56,3.3c-1.68,0.84-3.45,1.26-5.3,1.26c-0.41,0-0.81-0.01-1.21-0.05
			c-0.41-0.03-0.79-0.09-1.17-0.17c-1.74-0.41-3.24-1.07-4.51-2c-1.27-0.93-2.31-2.04-3.13-3.34c-0.81-1.3-1.37-2.75-1.69-4.33
			s-0.41-3.26-0.26-4.99c0.03-0.29,0.09-0.71,0.19-1.28c0.1-0.57,0.24-1.18,0.41-1.84c0.61-2.4,1.59-4.71,2.95-6.92
			c1.36-2.21,2.98-4.21,4.89-5.99c1.89-1.78,4.03-3.26,6.39-4.45c2.36-1.19,4.86-1.96,7.49-2.34c0.67-0.11,1.26-0.19,1.78-0.24
			c0.52-0.05,0.94-0.07,1.26-0.07c2.09,0,4.08,0.31,5.99,0.91c1.91,0.61,3.56,1.47,4.95,2.6c1.79,1.47,3.24,3.18,4.37,5.09
			c1.11,1.93,1.95,3.99,2.52,6.23c0.57,2.22,0.9,4.56,1,7.01c0.1,2.44,0.03,4.93-0.19,7.49c-0.09,1.16-0.22,2.31-0.39,3.47
			c-0.2,1.88-0.48,3.83-0.81,5.85c-0.33,2.03-0.66,3.97-0.98,5.82l-0.35,1.87c-0.17,0.93-0.34,1.86-0.5,2.8s-0.29,1.87-0.41,2.8
			l-0.26,1.3c-0.03,0.2-0.07,0.43-0.11,0.67c-0.05,0.25-0.08,0.47-0.11,0.67c-0.06,0.32-0.08,0.52-0.07,0.61
			c0.01,0.09-0.03,0.35-0.15,0.78c1.01-2,2.06-4.05,3.16-6.15s2.19-4.17,3.28-6.23c1.09-2.05,2.14-4.04,3.19-5.94
			c1.04-1.91,2.03-3.68,2.95-5.3c-0.06-0.23-0.17-0.44-0.33-0.65L217.35,354.92z"/>
		<path class="st0" d="M275.23,351.82c0.09,0,0.17-0.01,0.26-0.05c0.2-0.06,0.43-0.09,0.69-0.09c0.26,0,0.54,0.16,0.87,0.48
			c-0.75,1.53-1.61,3.19-2.56,4.95c-0.95,1.77-1.95,3.46-2.99,5.08c-1.04,1.62-2.11,3.09-3.19,4.39c-1.09,1.3-2.12,2.27-3.11,2.92
			c-0.67,3.15-1.38,6.33-2.17,9.51c-0.78,3.19-1.66,6.22-2.63,9.1c-0.98,2.88-2.03,5.56-3.16,8.03c-1.15,2.47-2.4,4.58-3.78,6.34
			c-1.37,1.75-2.87,3.09-4.47,3.99c-1.61,0.91-3.35,1.25-5.23,1.02c-1.62-0.2-2.92-1-3.89-2.39c-0.96-1.38-1.45-3.11-1.45-5.16
			c0-0.99,0.12-2,0.39-3.04c0.73-2.67,1.7-5.13,2.93-7.41c1.23-2.27,2.64-4.41,4.23-6.41c1.59-2,3.32-3.9,5.18-5.71
			c1.87-1.82,3.79-3.57,5.75-5.27c0.32-1.53,0.66-3.19,1.02-4.97c0.36-1.78,0.77-3.81,1.24-6.1l-0.57,0.83
			c-0.93,1.47-1.87,2.9-2.85,4.3c-0.98,1.38-1.96,2.63-2.97,3.71c-1.01,1.09-2.05,1.95-3.11,2.61c-1.05,0.65-2.13,0.98-3.23,0.98
			c-1.51,0-2.56-0.5-3.16-1.5c-0.61-1-0.91-2.33-0.91-3.97c0-0.28,0.01-0.58,0.02-0.87c0.01-0.28,0.03-0.59,0.07-0.91
			c0.09-0.95,0.24-1.99,0.45-3.11c0.22-1.11,0.47-2.25,0.74-3.4c0.27-1.16,0.57-2.33,0.88-3.49c0.32-1.17,0.62-2.29,0.91-3.37
			c0.49-1.74,0.93-3.39,1.33-4.95c0.39-1.57,0.62-2.82,0.71-3.78c0.06-0.47,0.06-0.85,0-1.15c-0.06-0.31-0.11-0.57-0.17-0.81
			c-0.03-0.11-0.05-0.2-0.07-0.28c-0.01-0.07-0.02-0.18-0.02-0.33c0.03-0.41,0.19-0.68,0.5-0.83c0.31-0.15,0.66-0.22,1.07-0.22
			c0.58,0,1.17,0.09,1.76,0.26c0.59,0.17,1.02,0.33,1.28,0.48c0.84,0.58,1.41,1.37,1.71,2.39c0.31,1.01,0.41,2.08,0.33,3.18
			c-0.09,1.13-0.27,2.23-0.57,3.3c-0.29,1.08-0.58,2.03-0.87,2.87l-0.26,0.83c-0.26,0.84-0.57,1.85-0.93,3.02
			c-0.36,1.18-0.71,2.38-1.04,3.61c-0.33,1.24-0.64,2.44-0.91,3.61c-0.27,1.18-0.45,2.2-0.54,3.06c-0.03,0.64-0.01,1.19,0.07,1.66
			c0.07,0.47,0.24,0.69,0.5,0.69c0.35,0,0.79-0.24,1.33-0.73c0.53-0.49,1.11-1.12,1.74-1.91c0.62-0.79,1.27-1.69,1.93-2.7
			c0.67-1.01,1.33-2.05,2-3.11c0.67-1.05,1.3-2.09,1.91-3.11c0.61-1.01,1.15-1.93,1.61-2.73v0.05c0.11-0.17,0.23-0.35,0.35-0.52
			c0.11-0.17,0.22-0.35,0.31-0.52l-0.05,0.05c0.43-2.23,0.77-4.11,1-5.63c0.23-1.52,0.36-2.53,0.39-3.02c0.06-0.49,0.06-0.93,0-1.3
			s-0.11-0.73-0.17-1.04c-0.06-0.17-0.09-0.33-0.09-0.45c0-0.12,0-0.24,0-0.33c0.06-0.41,0.24-0.67,0.54-0.81
			c0.31-0.12,0.69-0.2,1.15-0.24c1.91,0,3.28,0.41,4.11,1.24c0.83,0.83,1.3,1.83,1.45,3.02c-0.11,1.47-0.25,2.96-0.41,4.45
			c-0.16,1.49-0.35,3.05-0.59,4.67c-0.23,1.62-0.5,3.35-0.81,5.18c-0.31,1.84-0.67,3.85-1.11,6.01c0.81-0.64,1.63-1.51,2.45-2.61
			c0.83-1.1,1.63-2.29,2.43-3.56c0.79-1.27,1.55-2.6,2.28-3.97s1.38-2.67,2-3.89L275.23,351.82z M240.8,399.81
			c0,0.75,0.17,1.38,0.5,1.89c0.33,0.51,0.88,0.76,1.67,0.76c0.67-0.09,1.32-0.37,1.95-0.87c0.64-0.49,1.25-1.11,1.83-1.87
			c0.84-1.13,1.64-2.47,2.4-4.04c0.77-1.57,1.49-3.22,2.14-4.97c0.67-1.75,1.28-3.52,1.87-5.3c0.58-1.78,1.11-3.44,1.61-4.97
			c0.17-0.52,0.33-1.03,0.45-1.54c0.14-0.51,0.27-0.98,0.41-1.41v0.05l0.43-1.69c-2.03,1.59-3.97,3.4-5.84,5.42
			c-1.87,2.03-3.55,4.19-5.06,6.47c-0.32,0.52-0.73,1.27-1.21,2.26c-0.49,0.99-0.98,2.04-1.45,3.19c-0.48,1.15-0.88,2.3-1.21,3.49
			C240.97,397.87,240.8,398.91,240.8,399.81z"/>
		<path class="st0" d="M281.57,377.97c0.03,0.49,0.05,1.01,0.07,1.57c0.01,0.54,0.02,1.13,0.02,1.74c0,1.47-0.03,3.03-0.09,4.67
			c-0.06,1.63-0.12,3.23-0.22,4.8c-0.09,1.25-0.19,2.4-0.31,3.49c-0.11,1.09-0.23,2.01-0.35,2.76c-0.15,0.84-0.29,1.77-0.45,2.78
			c-0.16,1.01-0.39,2.04-0.67,3.09c-0.29,1.04-0.65,2.05-1.07,3.04s-0.95,1.85-1.59,2.61c-0.64,0.75-1.4,1.36-2.28,1.83
			c-0.88,0.47-1.92,0.69-3.11,0.69c-1.27,0-2.35-0.29-3.21-0.88c-0.87-0.59-1.57-1.44-2.11-2.54c-0.53-1.1-0.93-2.42-1.17-3.95
			c-0.25-1.53-0.37-3.24-0.37-5.13c0-2.2,0.16-4.63,0.48-7.29s0.75-5.46,1.28-8.38c0.53-2.93,1.15-5.92,1.85-8.98
			c0.69-3.06,1.43-6.11,2.19-9.14c0.77-3.03,1.53-5.96,2.3-8.79c0.77-2.84,1.5-5.49,2.19-7.95c0.37-1.42,0.76-2.84,1.15-4.25
			s0.75-2.75,1.09-3.99c0.33-1.25,0.61-2.36,0.83-3.35c0.22-0.99,0.37-1.75,0.45-2.3c0.06-0.28,0.09-0.54,0.09-0.78
			c0-0.24,0-0.47,0-0.69c0-0.29,0-0.56,0-0.81c0-0.25-0.01-0.49-0.05-0.71s-0.05-0.43-0.07-0.61c-0.01-0.17-0.01-0.33,0.02-0.48
			c0.09-0.47,0.32-0.77,0.69-0.93s0.78-0.23,1.21-0.19c1.07,0.06,1.95,0.26,2.65,0.61c0.69,0.35,1.25,0.81,1.64,1.37
			c0.41,0.57,0.69,1.21,0.87,1.95c0.17,0.74,0.26,1.51,0.26,2.33c0,0.37-0.01,0.77-0.05,1.19c-0.03,0.42-0.07,0.82-0.12,1.19
			c-0.09,0.54-0.25,1.3-0.48,2.28c-0.23,0.98-0.51,2.1-0.85,3.39c-0.33,1.29-0.69,2.68-1.09,4.16c-0.39,1.49-0.81,3.03-1.24,4.63
			c-0.69,2.61-1.38,5.2-2.09,7.77c-0.69,2.58-1.29,4.92-1.78,7.03c0.28,0.47,0.59,0.94,0.88,1.43c0.31,0.49,0.59,1.07,0.87,1.71
			c0.27,0.65,0.54,1.43,0.83,2.35c0.27,0.91,0.53,2.02,0.76,3.32 M279.45,381.09c0-0.54-0.01-1.04-0.02-1.5
			c-0.01-0.45-0.03-0.83-0.07-1.15h-0.05c-0.47-0.06-1.01-0.15-1.64-0.26c-0.64-0.11-1.27-0.42-1.91-0.91
			c-0.06,0.28-0.11,0.57-0.15,0.83c-0.05,0.26-0.09,0.52-0.15,0.78c-0.49,2.55-0.95,5.14-1.4,7.77c-0.43,2.63-0.81,5.45-1.13,8.43
			c-0.17,1.88-0.26,3.69-0.26,5.42c0,1.68,0.15,3.11,0.45,4.3c0.31,1.19,0.83,1.88,1.59,2.09c0.41,0,0.79-0.27,1.17-0.81
			c0.37-0.53,0.73-1.26,1.04-2.17c0.32-0.91,0.61-1.99,0.87-3.21c0.26-1.24,0.48-2.53,0.65-3.89c0.15-1.01,0.27-2.06,0.39-3.16
			c0.11-1.1,0.2-2.19,0.26-3.26c0.15-1.74,0.24-3.4,0.28-5.01C279.43,383.77,279.45,382.34,279.45,381.09z M276.53,373.36
			c0.37,0.54,0.85,1.08,1.41,1.59c0.57,0.51,1.01,0.82,1.33,0.93c-0.2-1.53-0.48-2.82-0.83-3.89c-0.35-1.05-0.75-1.82-1.21-2.28
			L276.53,373.36z"/>
	</g>
	<path class="st0" d="M290.51,373.28"/>
	<g>
		<path class="st0" d="M305.98,354.36c0.41,0,0.68,0.32,0.68,0.64v6.82c0,0.41-0.27,0.68-0.68,0.68h-11.47v4.11h9.08
			c0.41,0,0.64,0.32,0.59,0.59l-0.64,6.32c-0.05,0.27-0.36,0.59-0.77,0.59h-8.26v10.79c0,0.32-0.32,0.64-0.68,0.64h-8
			c-0.36,0-0.64-0.36-0.64-0.68V355c0-0.32,0.27-0.64,0.64-0.64H305.98z"/>
		<path class="st0" d="M334.39,384.93c0.14,0.27-0.05,0.59-0.41,0.59h-8.94c-0.41,0-0.77-0.23-0.95-0.59l-1.35-4.74h-8.49
			l-1.35,4.74c-0.18,0.36-0.54,0.59-0.95,0.59h-8.94c-0.36,0-0.54-0.32-0.41-0.59l10.21-29.98c0.14-0.27,0.64-0.59,1.09-0.59h9.21
			c0.45,0,0.95,0.32,1.09,0.59L334.39,384.93z M318.48,365.16l-2.44,8.58h4.88L318.48,365.16z"/>
	</g>
</g>
<g id="perso">
	<path class="st1" d="M307.82,126.89c-0.77,0.85-1.18,1.15-2.18,1.74c-1.57,0.92-3.11,1.87-4.68,2.76c-0.67,0.37-1.4,0.64-2.1,0.94
		c-1.47,0.65-2.97,1.27-4.45,1.94c-1.64,0.75-3.27,1.58-4.93,2.29c-1.23,0.52-2.5,0.96-3.77,1.38c-1.47,0.49-2.95,0.98-4.36,1.69
		c-1.45,0.74-2.99,1.19-4.54,1.69c-1.27,0.42-2.53,0.87-3.8,1.3c-0.18,0.07-0.39,0.1-0.57,0.15c-1.16,0.25-2.3,0.53-3.47,0.74
		c-1.18,0.2-2.38,0.36-3.57,0.47c-1.2,0.09-2.38,0.27-3.55,0.57c-1.84,0.47-3.71,0.76-5.58,0.99c-1.27,0.16-2.54,0.31-3.82,0.39
		c-1.45,0.08-2.92,0.11-4.38,0.1c-1.87-0.01-3.74-0.09-5.6-0.15c-0.06,0-0.11-0.02-0.22-0.06c-0.02-0.14-0.07-0.29-0.06-0.44
		c0.06-1.19-0.27-2.3-0.78-3.37c-0.56-1.16-1.11-2.3-1.69-3.45c-0.47-0.92-1.2-1.61-2.05-2.17c-0.71-0.47-1.52-0.49-2.34-0.35
		c-1.1,0.18-2.03,0.74-2.96,1.3c-1.26,0.76-2.31,1.7-2.97,3.04c-0.02,0.06-0.07,0.09-0.11,0.14c-0.01,0.01-0.03,0.01-0.1,0.05
		c-0.09-0.1-0.2-0.2-0.28-0.32c-0.77-1.2-1.91-1.91-3.28-2.13c-1.19-0.2-2.4-0.1-3.56,0.26c-0.78,0.25-1.3,0.85-1.74,1.54
		c-0.43,0.69-0.76,1.42-0.99,2.2c-0.16,0.56-0.18,0.56-0.78,0.5c-0.43-0.05-0.86-0.12-1.29-0.12c-0.31,0-0.64,0.07-0.91,0.19
		c-0.75,0.34-1.04,1.11-0.77,1.88c0.2,0.57,0.58,1,1.17,1.17c0.47,0.14,0.96,0.2,1.44,0.33c0.42,0.1,0.84,0.22,1.24,0.37
		c0.67,0.28,1.32,0.61,1.99,0.92c1.37,0.62,2.82,0.84,4.32,0.85c1.02,0.01,2.05,0.01,3.07,0.11c2.43,0.24,4.87,0.47,7.28,0.82
		c1.55,0.23,3.09,0.35,4.65,0.28c1.26-0.06,2.52,0.03,3.78,0.05c0.11,0,0.24,0.01,0.35,0.01c2.56-0.03,5.13-0.01,7.68-0.12
		c3.41-0.16,6.79-0.6,10.11-1.45c1.11-0.28,2.25-0.44,3.38-0.52c1.78-0.12,3.52-0.43,5.24-0.86c0.62-0.16,1.28-0.22,1.91-0.4
		c1.09-0.33,2.18-0.69,3.26-1.08c1.4-0.49,2.79-0.99,4.16-1.53c1.01-0.4,1.96-0.92,2.96-1.34c0.99-0.41,1.99-0.77,2.99-1.11
		c2.1-0.7,4.16-1.47,6.08-2.6c0.14-0.08,0.28-0.14,0.42-0.2c0.28,0.15,0.27,0.41,0.33,0.66c0.11,0.45,0.22,0.92,0.4,1.35
		c0.37,0.87,1.09,1.33,1.99,1.62c1.51,0.51,2.84,0.22,4.06-0.73c0.31-0.24,0.57-0.54,0.82-0.85c0.54-0.67,1.05-1.36,1.61-2.09
		c0.4,0.17,0.85,0.35,1.28,0.58c0.09,0.05,0.16,0.26,0.15,0.4c-0.1,1.05-0.23,2.11-0.54,3.14c-0.51,1.66-1,3.34-1.1,5.07
		c-0.08,1.3-0.37,2.58-0.59,3.85c-0.19,1.17-0.36,2.34-0.49,3.51c-0.22,2.16-0.4,4.32-0.58,6.48c-0.14,1.61-0.23,3.22-0.36,4.83
		c-0.07,0.75-0.18,1.49-0.28,2.23c-0.26,2-0.53,3.98-0.77,5.98c-0.31,2.7-0.56,5.41-0.88,8.11c-0.15,1.21-0.4,2.4-0.6,3.62
		c-0.01,0.06-0.02,0.11-0.06,0.17c-0.49,0.81-1.54,6.83-1.67,7.76c-0.06,0.45-0.1,0.9-0.16,1.35c-0.03,0.25-0.08,0.5-0.15,0.75
		c-0.26,0.96-0.56,1.93-0.81,2.9c-0.53,2.08-1.07,4.15-1.58,6.24c-0.2,0.82-0.36,1.66-0.54,2.47c-0.03,0.17-0.09,0.34-0.15,0.51
		c-0.35,0.99-0.84,5.32-0.91,5.56c-0.65,2.16-1.37,4.28-1.91,6.47c-0.71,2.94-1.82,5.75-2.7,8.63c-0.61,1.97-1.13,3.98-1.7,5.97
		c-0.42,1.46-0.79,2.93-1.26,4.38c-0.77,2.43-1.68,4.8-3.03,6.98c-0.26,0.42-0.45,0.87-0.69,1.3c-0.2,0.37-0.35,0.78-0.71,1.07
		c-0.14,0.1-0.2,0.33-0.26,0.51c-0.22,0.75-0.52,1.44-0.95,2.09c-0.15,0.23-0.23,0.5-0.35,0.74c-0.23,0.45-0.41,0.95-0.7,1.36
		c-0.88,1.21-1.57,2.55-2.28,3.87c-1.1,2.02-2.38,3.89-3.9,5.63c-1.04,1.19-2.02,2.43-3.09,3.57c-0.7,0.76-1.5,1.45-2.31,2.1
		c-0.85,0.68-1.69,1.36-2.43,2.16c-0.23,0.24-0.48,0.47-0.77,0.76c-0.11-0.23-0.2-0.39-0.28-0.56c-0.52-1.15-1.02-2.3-1.58-3.44
		c-0.31-0.64-0.7-1.23-1.04-1.86c-0.32-0.59-0.6-1.19-0.88-1.8c-0.19-0.42-0.41-0.59-0.74-0.54c-0.32,0.05-0.56,0.31-0.65,0.68
		c-0.09,0.42-0.03,0.83,0.12,1.21c0.31,0.73,0.61,1.45,0.99,2.14c0.88,1.7,1.63,3.46,2.3,5.25c0.5,1.35,1.12,2.64,1.67,3.98
		c0.87,2.11,1.72,4.24,2.88,6.22c0.68,1.17,1.41,2.33,2.19,3.44c0.5,0.7,1.15,1.3,1.71,1.95c0.58,0.67,1.18,1.33,1.71,2.03
		c0.84,1.1,1.92,1.93,3.07,2.65c0.51,0.32,1.08,0.57,1.62,0.85c0.12,0.07,0.25,0.12,0.35,0.22c0.37,0.34,0.83,0.54,1.32,0.64
		c1.26,0.24,2.51,0.16,3.62-0.47c1.21-0.68,2.39-1.45,3.52-2.28c0.88-0.66,1.66-1.45,2.48-2.18c0.31-0.27,0.62-0.54,0.98-0.77
		c1.8-1.18,3.49-2.5,5.14-3.88c1.08-0.91,2.28-1.68,3.45-2.5c1.58-1.11,3.15-2.23,4.76-3.29c0.64-0.42,1.35-0.73,2.06-1.01
		c1.84-0.73,3.8-1.04,5.71-1.54c0.91-0.24,1.8-0.09,2.67,0.23c0.62,0.23,1.17,0.59,1.47,1.2c0.26,0.52,0.53,1.05,0.71,1.61
		c0.2,0.61,0.12,1.24-0.1,1.86c-0.7,1.95-1.66,3.78-2.81,5.51c-1.63,2.47-3.55,4.73-5.37,7.06c-0.56,0.71-1.23,1.34-1.88,1.96
		c-1.33,1.27-2.7,2.48-4,3.77c-1.32,1.29-2.79,2.37-4.22,3.52c-0.39,0.31-0.75,0.64-1.11,0.98c-0.92,0.85-2.06,1.38-3.09,2.09
		c-1.27,0.87-2.55,1.72-3.85,2.55c-0.57,0.36-1.16,0.68-1.75,0.99c-0.64,0.33-1.33,0.49-2.05,0.48c-1.38-0.03-2.76-0.07-4.14-0.11
		c-0.18,0-0.35-0.02-0.52-0.07c-1.4-0.35-2.8-0.67-4.17-1.07c-1.49-0.42-2.87-1.08-4.22-1.83c-1.52-0.84-3.05-1.63-4.61-2.4
		c-0.79-0.4-1.68-0.6-2.45-1.02c-2.12-1.18-4.19-2.44-6.28-3.65c-0.6-0.34-1.2-0.68-1.84-0.94c-1.52-0.61-2.86-1.5-4.07-2.59
		c-1.33-1.18-2.71-2.3-3.96-3.55c-1.37-1.37-2.87-2.59-4.41-3.74c-1.43-1.07-2.61-2.36-3.55-3.85c-1.15-1.82-2.58-3.38-4-4.96
		c-1.5-1.64-2.93-3.36-4.16-5.22c-0.62-0.93-1.3-1.83-1.92-2.77c-0.68-1.05-1.3-2.16-1.97-3.23c-0.35-0.57-0.71-1.13-1.1-1.68
		c-1.29-1.85-2.47-3.75-3.48-5.76c-0.53-1.05-0.9-2.19-1.32-3.29c-1.35-3.49-2.69-6.99-4.03-10.48c-0.5-1.3-0.99-2.62-1.51-3.91
		c-0.23-0.59-0.51-1.15-0.77-1.72c-0.98-2.18-1.94-4.36-2.92-6.53c-0.6-1.35-1.27-2.68-1.78-4.05c-0.78-2.1-1.49-4.24-2.19-6.38
		c-0.98-2.92-1.94-5.83-2.88-8.76c-0.26-0.81-0.36-1.66-0.61-2.46c-0.37-1.26-0.81-2.51-1.21-3.77c-0.22-0.66-0.41-1.32-0.64-1.97
		c-0.1-0.31-0.08-0.56,0.1-0.84c1.18-1.84,2.34-3.7,3.52-5.55c0.45-0.71,0.92-1.43,1.15-2.26c0.06-0.2,0.09-0.42,0.11-0.64
		c0.03-0.35,0.06-0.7,0.05-1.05c0-0.14-0.08-0.33-0.18-0.39c-0.08-0.05-0.28,0.06-0.39,0.14c-0.26,0.23-0.49,0.51-0.76,0.73
		c-0.99,0.78-1.74,1.77-2.51,2.75c-0.92,1.18-1.78,2.4-2.68,3.61c-0.11,0.15-1.52,2.09-1.89,2.54c-1.68,2.02-3.44,3.97-5.54,5.56
		c-1.34,1.01-2.64,2.08-4.17,2.78c-1.7,0.77-3.49,1.27-5.37,1.26c-1.4-0.01-2.53-0.59-3.16-1.96c-0.65-1.41-0.77-2.84-0.45-4.32
		c0.1-0.48,0.29-0.93,0.47-1.4c0.08-0.22,0.23-0.42,0.31-0.65c0.75-2.11,2.01-3.92,3.23-5.75c1.63-2.42,3.34-4.79,4.7-7.37
		c0.56-1.04,1.26-2,1.82-3.04c0.99-1.85,2.26-3.52,3.35-5.3c0.94-1.53,1.79-3.12,2.4-4.8c0.54-1.5,0.93-3.05,1.41-4.57
		c0.22-0.71,0.52-1.41,0.69-2.13c0.39-1.66,0.64-3.34,0.58-5.04c-0.08-2.43,0.02-4.84,0.08-7.27c0.09-3.47-0.1-6.94-0.56-10.38
		c-0.39-2.93-0.4-5.85-0.42-8.79c-0.02-3.1-0.06-6.19-0.01-9.28c0.02-1.91,0.19-3.82,0.29-5.73c0.09-1.63,0.17-3.27,0.27-4.9
		c0.1-1.58,0.22-3.14,0.32-4.72c0.06-0.86,0.09-1.74,0.18-2.59c0.07-0.57,0.24-1.11,0.36-1.67c0.08-0.36,0.2-0.73,0.25-1.09
		c0.06-0.44-0.16-0.77-0.52-0.9c-0.31-0.1-0.67,0.02-0.92,0.37c-0.51,0.74-0.94,1.52-1.11,2.4c-0.31,1.67-0.57,3.35-0.84,5.01
		c-0.08,0.49-0.17,0.98-0.24,1.45c-0.11,0.74-0.25,1.47-0.33,2.22c-0.03,0.32-0.17,0.47-0.45,0.6c-0.99,0.48-1.96,1-2.95,1.5
		c-0.77,0.4-1.5,0.88-2.4,0.94c-0.29,0.01-0.59-0.02-0.88-0.01c-0.58,0.01-0.9-0.27-1.08-0.81c-0.26-0.77-0.31-1.58-0.1-2.34
		c0.49-1.83,0.79-3.7,1.43-5.49c0.5-1.43,0.96-2.88,1.41-4.32c0.41-1.34,0.73-2.7,1.19-4.03c0.34-0.99,0.85-1.91,1.27-2.86
		c0.74-1.63,1.46-3.28,2.19-4.91c0.5-1.15,1.13-2.21,1.92-3.18c1.01-1.23,1.77-2.61,2.56-3.97c0.68-1.16,1.35-2.31,2.08-3.44
		c0.85-1.32,1.95-2.43,3.06-3.52c2.16-2.12,4.44-4.08,7-5.71c0.71-0.45,1.38-0.98,2.08-1.46c1.28-0.91,2.7-1.54,4.07-2.28
		c2.23-1.18,4.62-2.04,6.97-2.95c0.53-0.2,1.05-0.43,1.6-0.62c0.93-0.32,1.86-0.67,2.8-0.92c1.43-0.39,2.86-0.76,4.31-1.03
		c2.08-0.39,4.16-0.68,6.24-1.02c1.67-0.27,3.34-0.25,5.01-0.26c1.38-0.01,2.76-0.08,4.14-0.14c0.94-0.03,1.89-0.11,2.84-0.12
		c0.34,0,0.69,0.11,1.04,0.17c0.39,0.06,0.78,0.15,1.17,0.14c1.42-0.07,2.79,0.09,4.14,0.51c1.17,0.36,2.38,0.59,3.52,1.02
		c1.25,0.47,2.45,1.08,3.66,1.66l3.06,1.53c0.2,0.19,0.4,0.4,0.62,0.54c1.33,0.84,2.36,2.02,3.49,3.07
		c0.48,0.44,0.99,0.86,1.54,1.19c1.25,0.76,2.4,1.63,3.53,2.58c1.64,1.38,3.32,2.71,4.97,4.1c1.72,1.44,3.45,2.88,5.1,4.4
		c0.93,0.85,1.76,1.8,2.58,2.77c1.19,1.4,2.42,2.76,3.81,3.96c0.84,0.73,1.6,1.52,2.27,2.4c0.28,0.37,0.57,0.76,0.88,1.11
		c0.82,0.91,1.4,1.95,1.97,3.01c0.82,1.51,1.62,3.02,2.45,4.53c0.27,0.5,0.58,0.99,0.91,1.45c0.7,0.99,1.2,2.08,1.58,3.22
		c0.28,0.84,0.68,1.63,0.99,2.46c0.22,0.57,0.4,1.16,0.57,1.75c0.27,0.95,0.77,1.74,1.24,2.61c0.14,0.26,1.19,0.71,1.26,1l1.18,2.76
		L307.82,126.89z M261.14,97.89c-0.12-0.09-0.28-0.14-0.43-0.19c-0.79-0.31-1.61-0.52-2.46-0.6c-1.62-0.16-3.19-0.03-4.64,0.78
		c-1.38,0.77-2.76,1.55-3.81,2.76c-0.71,0.82-1.5,1.58-2.11,2.46c-0.79,1.15-1.45,2.38-2.14,3.6c-0.34,0.6-0.67,1.21-0.9,1.86
		c-0.43,1.18-0.81,2.38-1.15,3.6c-0.59,2.12-0.84,4.3-0.69,6.5c0.11,1.71,0.33,3.41,0.52,5.12c0.2,1.71,0.67,3.36,1.37,4.93
		c0.18,0.41,0.36,0.83,0.52,1.26c0.7,1.89,1.76,3.56,3.15,5.03c0.75,0.78,1.5,1.59,2.51,2.04c1.04,0.45,2.11,0.86,3.19,1.26
		c0.4,0.15,0.85,0.25,1.27,0.25c1.18-0.01,2.36-0.07,3.54-0.17c0.68-0.06,1.36-0.2,2.03-0.37c1.84-0.44,3.48-1.35,5.15-2.21
		c1.07-0.54,1.87-1.34,2.59-2.29c0.85-1.12,1.58-2.31,2.23-3.55c0.34-0.65,0.69-1.29,0.92-1.97c0.48-1.43,0.76-2.89,0.87-4.41
		c-0.09-1.11-0.14-2.23-0.28-3.35c-0.23-1.74-0.52-3.47-0.81-5.2c-0.08-0.5-0.23-1-0.36-1.49c-0.09-0.32-0.25-0.62-0.35-0.94
		c-0.43-1.29-0.85-2.58-1.28-3.87 M283.06,102.28c-0.41,0.45-0.79,0.92-1.18,1.4c-1.05,1.32-2.03,2.67-2.58,4.29
		c-0.07,0.2-0.18,0.4-0.24,0.6c-0.24,0.82-0.58,1.62-0.66,2.45c-0.15,1.78-0.17,3.58-0.22,5.38c-0.01,0.31,0.05,0.64,0.12,0.93
		c0.39,1.37,0.77,2.73,1.58,3.94c0.08,0.11,0.14,0.24,0.19,0.36c0.51,1.2,1.29,2.21,2.21,3.12c1.85,1.85,4.11,2.39,6.62,2.06
		c0.62-0.08,1.23-0.33,1.85-0.37c1.11-0.07,2-0.51,2.79-1.25c1.3-1.19,2.17-2.62,2.58-4.36c0.31-1.3,0.27-2.62,0.25-3.95
		c0-0.27-0.01-0.56,0-0.83c0.15-2.82-0.49-5.52-1.38-8.17c-0.24-0.69-0.58-1.34-0.79-2.04c-0.28-0.93-0.74-1.74-1.37-2.45
		c-0.36-0.41-0.75-0.82-1.12-1.23c-0.44-0.49-0.98-0.85-1.59-1.1c-0.51-0.22-1.01-0.43-1.52-0.65c-0.87-0.36-1.7-0.28-2.43,0.34
		 M239.87,87.99c-0.02,0.86,0.15,1.44,0.56,1.93c0.29,0.35,0.62,0.4,0.99,0.12c0.14-0.1,0.26-0.24,0.37-0.37
		c0.66-0.84,1.21-1.74,1.64-2.71c0.35-0.78,0.86-1.45,1.64-1.87c0.45-0.25,0.87-0.53,1.32-0.78c1.5-0.84,3.06-1.08,4.72-0.56
		c0.37,0.11,0.76,0.22,1.15,0.28c0.28,0.06,0.59,0.07,0.88,0.05c0.58-0.05,0.93-0.43,0.94-1.02c0.01-0.56-0.26-0.99-0.69-1.3
		c-1.28-0.93-2.65-1.59-4.31-1.53c-1.33,0.05-2.63,0.18-3.83,0.81c-0.59,0.31-1.19,0.62-1.75,0.99c-0.59,0.39-1.19,0.78-1.67,1.29
		C240.55,84.67,240.07,86.4,239.87,87.99z M291.58,166.66c0.05-0.77-0.4-1.12-1.04-0.88c-0.54,0.19-1.03,0.49-1.43,0.92
		c-0.88,0.96-1.59,2.05-2.14,3.23c-0.07,0.14-0.11,0.29-0.15,0.45c-0.15,0.84,0.58,1.5,1.37,1.23c0.34-0.11,0.71-0.31,0.94-0.58
		c0.53-0.62,1.04-1.29,1.45-2c0.37-0.65,0.61-1.36,0.9-2.05C291.54,166.85,291.55,166.71,291.58,166.66z"/>
	<path class="st1" d="M238.21,289.81c-0.81,0.88-1.55,1.69-2.29,2.52c-0.23,0.26-0.5,0.53-0.61,0.85c-0.24,0.65,0.03,1.25,0.64,1.62
		c0.53,0.34,1.12,0.37,1.71,0.28c1.45-0.22,2.92-0.12,4.37-0.14c0.57,0,1.08,0.16,1.59,0.41c1.61,0.79,3.01,1.88,4.27,3.15
		c1.5,1.51,1.28,3.78-0.44,5.04c-1.2,0.87-2.59,1.24-4,1.51c-1.1,0.2-2.21,0.37-3.32,0.54c-1.69,0.26-3.39,0.52-5.09,0.74
		c-1.62,0.2-3.18-0.06-4.68-0.69c-0.85-0.36-1.72-0.67-2.58-1.04c-1.3-0.58-2.5-1.35-3.44-2.45c-0.71-0.84-1.4-1.7-2.1-2.56
		c-0.85-1.03-1.7-2.08-2.55-3.11c-1.07-1.28-1.89-2.71-2.47-4.28c-0.74-1.97-1.5-3.95-2.23-5.92c-0.6-1.59-1.02-3.23-1.29-4.91
		c-0.18-1.12-0.43-2.26-0.49-3.39c-0.1-2.12,0.49-4.02,2.21-5.42c0.29-0.24,0.67-0.44,1.03-0.53c1.41-0.37,2.82-0.71,4.19-1.25
		c0.44-0.17,0.92-0.18,1.4-0.11c1.42,0.19,1.42,0.18,2.63-0.24c0.11,0.18,0.23,0.39,0.35,0.58c0.76,1.34,1.47,2.7,2.3,3.99
		c1.57,2.44,3.14,4.87,5,7.1c0.98,1.17,1.94,2.34,2.9,3.51c0.16,0.19,0.31,0.41,0.44,0.64c0.73,1.23,1.52,2.39,2.5,3.44
		C238.19,289.75,238.24,289.84,238.21,289.81z"/>
	<path class="st2" d="M239.35,145.86c-0.65,0.14-1.23,0-1.8-0.09c-1.46-0.2-2.93-0.4-4.39-0.59c-0.62-0.08-1.25-0.15-1.87-0.23
		c-0.34-0.05-0.41-0.12-0.35-0.47c0.18-1.08,0.43-2.13,0.95-3.09c0.25-0.45,0.62-0.88,1.03-1.19c0.66-0.5,1.38-0.9,2.1-1.3
		c0.2-0.11,0.44-0.18,0.67-0.24c0.35-0.09,0.67-0.03,0.92,0.25c0.23,0.27,0.52,0.51,0.67,0.82c0.65,1.33,1.27,2.67,1.88,4
		C239.43,144.4,239.48,145.1,239.35,145.86z"/>
	<path class="st2" d="M302.15,133.91c2.35-1.89,5.2-3.06,7.35-5.38c0.02,0.28,0.06,0.41,0.03,0.53c-0.22,2.18-0.86,4.2-2.26,5.92
		c-0.34,0.42-0.78,0.76-1.18,1.15c-0.05,0.05-0.09,0.09-0.15,0.1c-0.52,0.07-1.04,0.17-1.57,0.17c-0.49,0-0.85-0.32-1.24-0.61
		C302.56,135.3,302.35,134.64,302.15,133.91z"/>
	<path class="st2" d="M227.34,144.51c-0.1,0.05-0.15,0.09-0.2,0.09c-1.7,0.09-3.39,0.09-4.93-0.82c-0.11-0.07-0.25-0.12-0.37-0.17
		c-0.62-0.28-0.66-0.31-0.37-0.91c0.25-0.53,0.56-1.04,0.86-1.54c0.22-0.36,0.56-0.56,0.98-0.58c0.4-0.02,0.78-0.06,1.18-0.06
		c0.99,0.01,1.78,0.43,2.21,1.32C227.09,142.69,227.21,143.61,227.34,144.51z"/>
	<path class="st2" d="M295.38,137.22c1.46-0.77,2.94-1.54,4.57-2.25c-0.05,0.92,0.02,1.72-0.15,2.51c-0.03,0.12-0.11,0.26-0.19,0.36
		c-0.36,0.44-0.71,0.9-1.11,1.3c-0.61,0.64-1.44,0.75-2.22,0.35c-0.34-0.17-0.44-0.49-0.53-0.82
		C295.6,138.23,295.5,137.76,295.38,137.22z"/>
	<path class="st2" d="M239.64,291.99c0.33-0.36,0.33-0.36,0.71-0.07C240.09,291.95,239.92,291.96,239.64,291.99z"/>
	<path d="M272.64,123.53c-0.11,1.52-0.4,2.98-0.87,4.41c-0.23,0.68-0.58,1.34-0.92,1.97c-0.66,1.24-1.38,2.43-2.23,3.55
		c-0.71,0.94-1.52,1.74-2.59,2.29c-1.67,0.86-3.31,1.76-5.15,2.21c-0.67,0.16-1.35,0.31-2.03,0.37c-1.18,0.1-2.36,0.15-3.54,0.17
		c-0.42,0.01-0.87-0.1-1.27-0.25c-1.08-0.39-2.14-0.79-3.19-1.26c-1.01-0.44-1.76-1.25-2.51-2.04c-1.4-1.45-2.44-3.13-3.15-5.03
		c-0.16-0.42-0.33-0.84-0.52-1.26c-0.7-1.58-1.18-3.22-1.37-4.93c-0.2-1.7-0.41-3.4-0.52-5.12c-0.15-2.2,0.1-4.38,0.69-6.5
		c0.34-1.21,0.73-2.42,1.15-3.6c0.23-0.65,0.57-1.26,0.9-1.86c0.69-1.21,1.35-2.45,2.14-3.6c0.61-0.88,1.4-1.64,2.11-2.46
		c1.07-1.2,2.44-1.99,3.81-2.76c1.46-0.82,3.03-0.94,4.64-0.78c0.85,0.08,1.67,0.31,2.46,0.6c0.15,0.06,0.31,0.1,0.43,0.19
		c1.13,0.76,6.11,2.31,8.41,10.8c0.43,1.29,0.85,2.58,1.28,3.87c0.1,0.32,0.26,0.62,0.35,0.94c0.15,0.49,0.28,0.99,0.36,1.49
		c0.28,1.72,0.57,3.46,0.81,5.2C272.5,121.28,272.54,122.4,272.64,123.53z M256.05,100.36c-0.03-0.03-0.06-0.07-0.09-0.1
		c-0.11,0.02-0.23,0.03-0.33,0.09c-0.45,0.24-0.9,0.5-1.34,0.74c-1.75,0.94-3.04,2.38-4.14,3.98c-1.23,1.77-2.21,3.66-2.92,5.72
		c-0.69,2.03-1.15,4.1-1.23,6.24c-0.07,1.72,0.17,3.43,0.37,5.13c0.23,1.93,0.66,3.8,1.47,5.57c0.54,1.18,0.93,2.43,1.69,3.51
		c0.77,1.09,1.61,2.14,2.79,2.76c1.57,0.82,3.2,1.58,5.07,1.15c0.08-0.02,0.16,0,0.24-0.01c1.02-0.09,2.04-0.18,3.02-0.54
		c1.49-0.54,2.9-1.21,4.29-1.99c0.2-0.11,0.41-0.26,0.56-0.43c0.62-0.76,1.29-1.49,1.75-2.37c0.26-0.51,0.57-0.99,0.84-1.5
		c0.22-0.4,0.44-0.79,0.6-1.21c0.7-1.99,0.87-4.04,0.6-6.11c-0.24-1.82-0.51-3.63-0.77-5.43c-0.07-0.43-0.1-0.88-0.42-1.24
		c-0.07,0.05-0.11,0.06-0.14,0.08c-0.83,1.45-1.88,2.69-3.27,3.68c-1.37,0.98-2.88,1.2-4.48,1.15c-0.14,0-0.27-0.05-0.41-0.09
		c-1.12-0.31-2.12-0.79-2.93-1.69c-0.85-0.95-1.61-1.95-1.99-3.19c-0.27-0.91-0.53-1.82-0.75-2.73c-0.11-0.5-0.23-1.01-0.2-1.52
		c0.07-1.74,0.17-3.46,0.33-5.18c0.11-1.25,0.51-2.43,1.24-3.47C255.72,101.03,255.87,100.69,256.05,100.36z"/>
	<path d="M288.6,100.42c0,0,1.13,0.47,1.52,0.65c0.5,0.24,0.78,0.4,1.08,0.64c0.18,0.15,0.35,0.29,0.51,0.48
		c0.37,0.41,0.75,0.81,1.12,1.23c0.64,0.71,1.09,1.53,1.37,2.45c0.22,0.69,0.56,1.35,0.79,2.04c0.91,2.64,1.53,5.34,1.38,8.17
		c-0.01,0.27,0,0.56,0,0.83c0.02,1.32,0.06,2.63-0.25,3.95c-0.4,1.72-1.27,3.15-2.58,4.36c-0.81,0.74-1.69,1.18-2.79,1.25
		c-0.62,0.03-1.23,0.29-1.85,0.37c-2.52,0.33-4.78-0.22-6.62-2.06c-0.91-0.91-1.7-1.92-2.21-3.12c-0.06-0.12-0.11-0.25-0.19-0.36
		c-0.81-1.2-1.2-2.56-1.58-3.94c-0.08-0.29-0.14-0.62-0.12-0.93c0.06-1.79,0.07-3.58,0.22-5.38c0.07-0.83,0.42-1.63,0.66-2.45
		c0.06-0.2,0.17-0.4,0.24-0.6c0.17-0.51,0.96-2.21,2.58-4.29c0.28-0.36,0.67-0.85,1.18-1.4C285.84,99.3,288.6,100.42,288.6,100.42z
		 M292.09,107.75c-0.03,0.01-0.08,0.03-0.11,0.05c-0.01,0.03-0.03,0.07-0.03,0.11c0,0.18,0.01,0.35,0.02,0.53
		c0.11,1.89-0.26,3.63-1.53,5.13c-0.74,0.87-1.6,1.52-2.71,1.79c-1.35,0.34-2.53-0.01-3.37-1.12c-0.56-0.74-1-1.55-1.46-2.35
		c-0.14-0.23-0.2-0.51-0.27-0.78c-0.29-1.25-0.29-2.5-0.08-3.75c0.02-0.12,0.02-0.25,0.02-0.37c-0.17,0.09-0.28,0.2-0.34,0.34
		c-0.32,0.75-0.65,1.49-0.91,2.25c-0.2,0.59-0.41,1.21-0.45,1.83c-0.11,1.63-0.14,3.27-0.19,4.9c-0.01,0.22,0.05,0.43,0.11,0.64
		c0.33,1.08,0.65,2.16,1.3,3.09c0.14,0.19,0.24,0.41,0.33,0.62c0.36,0.83,0.92,1.51,1.53,2.16c1.17,1.25,2.65,1.67,4.3,1.51
		c0.9-0.09,1.78-0.33,2.67-0.5c0.15-0.03,0.32-0.08,0.43-0.17c0.54-0.42,1.05-0.86,1.44-1.46c0.66-1.01,0.94-2.13,0.99-3.3
		c0.05-1.47,0.03-2.95,0-4.44c-0.06-2.12-0.71-4.11-1.42-6.07C292.31,108.16,292.19,107.95,292.09,107.75z"/>
	<path d="M239.87,87.99c0.22-1.59,0.68-3.3,1.96-4.67c0.48-0.51,1.09-0.91,1.67-1.29c0.56-0.37,1.15-0.68,1.75-0.99
		c1.2-0.62,2.51-0.76,3.83-0.81c1.64-0.06,3.02,0.6,4.31,1.53c0.43,0.32,0.7,0.75,0.69,1.3c-0.01,0.59-0.35,0.98-0.94,1.02
		c-0.29,0.02-0.59,0-0.88-0.05c-0.39-0.07-0.77-0.17-1.15-0.28c-1.66-0.52-3.22-0.28-4.72,0.56c-0.44,0.25-0.87,0.53-1.32,0.78
		c-0.78,0.43-1.29,1.09-1.64,1.87c-0.43,0.98-0.99,1.88-1.64,2.71c-0.11,0.14-0.24,0.27-0.37,0.37c-0.36,0.26-0.69,0.23-0.99-0.12
		C240.02,89.42,239.85,88.84,239.87,87.99z"/>
	<path d="M291.58,166.66c-0.01,0.06-0.03,0.19-0.09,0.32c-0.28,0.69-0.52,1.41-0.9,2.05c-0.41,0.71-0.92,1.37-1.45,2
		c-0.23,0.27-0.6,0.45-0.94,0.58c-0.81,0.27-1.52-0.39-1.37-1.23c0.02-0.16,0.08-0.31,0.15-0.45c0.56-1.18,1.26-2.27,2.14-3.23
		c0.4-0.43,0.88-0.73,1.43-0.92C291.17,165.53,291.62,165.89,291.58,166.66z"/>
	<path class="st2" d="M256.05,100.36c-0.18,0.33-0.33,0.67-0.54,0.98c-0.73,1.05-1.12,2.22-1.24,3.47
		c-0.15,1.72-0.25,3.46-0.33,5.18c-0.02,0.5,0.09,1.02,0.2,1.52c0.22,0.92,0.48,1.83,0.75,2.73c0.37,1.24,1.13,2.23,1.99,3.19
		c0.79,0.9,1.8,1.38,2.93,1.69c0.14,0.03,0.27,0.08,0.41,0.09c1.61,0.06,3.12-0.17,4.48-1.15c1.38-0.99,2.44-2.22,3.27-3.68
		c0.01-0.03,0.07-0.05,0.14-0.08c0.32,0.35,0.36,0.81,0.42,1.24c0.27,1.82,0.54,3.62,0.77,5.43c0.27,2.08,0.11,4.13-0.6,6.11
		c-0.15,0.42-0.39,0.82-0.6,1.21c-0.27,0.5-0.58,0.99-0.84,1.5c-0.45,0.88-1.12,1.61-1.75,2.37c-0.15,0.18-0.35,0.32-0.56,0.43
		c-1.37,0.77-2.8,1.44-4.29,1.99c-0.98,0.35-2,0.45-3.02,0.54c-0.08,0.01-0.16-0.01-0.24,0.01c-1.87,0.43-3.51-0.33-5.07-1.15
		c-1.18-0.61-2.02-1.68-2.79-2.76c-0.76-1.08-1.15-2.33-1.69-3.51c-0.82-1.78-1.25-3.65-1.47-5.57c-0.19-1.7-0.43-3.4-0.37-5.13
		c0.08-2.14,0.53-4.21,1.23-6.24c0.69-2.05,1.69-3.96,2.92-5.72c1.1-1.59,2.39-3.04,4.14-3.98c0.45-0.24,0.9-0.5,1.34-0.74
		c0.09-0.06,0.22-0.06,0.33-0.09C255.99,100.3,256.01,100.33,256.05,100.36z"/>
	<path class="st2" d="M292.09,107.75c0.1,0.2,0.22,0.41,0.29,0.62c0.7,1.97,1.36,3.96,1.42,6.07c0.05,1.47,0.05,2.95,0,4.44
		c-0.03,1.17-0.33,2.29-0.99,3.3c-0.39,0.6-0.9,1.03-1.44,1.46c-0.11,0.09-0.28,0.14-0.43,0.17c-0.88,0.18-1.77,0.42-2.67,0.5
		c-1.64,0.16-3.13-0.26-4.3-1.51c-0.61-0.65-1.17-1.33-1.53-2.16c-0.09-0.22-0.19-0.43-0.33-0.62c-0.66-0.94-0.98-2.02-1.3-3.09
		c-0.07-0.2-0.12-0.43-0.11-0.64c0.05-1.63,0.08-3.27,0.19-4.9c0.05-0.61,0.25-1.24,0.45-1.83c0.26-0.76,0.59-1.5,0.91-2.25
		c0.06-0.14,0.17-0.25,0.34-0.34c-0.01,0.12,0,0.25-0.02,0.37c-0.22,1.26-0.22,2.51,0.08,3.75c0.07,0.27,0.14,0.54,0.27,0.78
		c0.47,0.79,0.92,1.62,1.46,2.35c0.84,1.12,2.02,1.47,3.37,1.12c1.1-0.28,1.97-0.92,2.71-1.79c1.26-1.5,1.64-3.23,1.53-5.13
		c-0.01-0.18-0.02-0.35-0.02-0.53c0-0.03,0.02-0.07,0.03-0.11C292.02,107.78,292.05,107.76,292.09,107.75z"/>
	<path d="M195.86,128.84c-0.18,0.16-0.27,0.23-0.34,0.31c-1.54,1.69-3.45,2.51-5.73,2.43c-0.4-0.01-0.78-0.08-1.18-0.11
		c-0.85-0.06-1.53-0.48-2.18-0.98c-0.15-0.11-0.29-0.27-0.4-0.43c-0.91-1.37-1.41-2.87-1.28-4.53c0.06-0.7,0.15-1.42,0.28-2.11
		c0.22-1.02,0.45-2.04,0.75-3.04c0.4-1.34,0.87-2.65,1.27-3.99c0.48-1.59,0.92-3.18,1.37-4.76c0.52-1.83,1.19-3.58,2.08-5.27
		c0.68-1.3,1.24-2.68,1.82-4.05c0.64-1.52,1.41-2.96,2.43-4.25c1.23-1.55,2.14-3.3,3.14-5c0.88-1.51,1.79-3.02,2.96-4.34
		c1.95-2.21,4.12-4.19,6.38-6.06c1.83-1.51,3.81-2.81,5.79-4.1c2.3-1.49,4.74-2.73,7.31-3.74c1.96-0.77,3.91-1.57,5.89-2.31
		c2.5-0.94,5.07-1.63,7.69-2.09c2.62-0.45,5.25-0.87,7.88-1.2c1.3-0.16,2.63-0.07,3.96-0.09c0.75-0.01,1.5,0,2.25-0.01
		c1.69-0.03,3.39-0.11,5.08-0.11c0.86,0,1.72,0.14,2.59,0.23c1.04,0.1,2.09,0.17,3.12,0.32c1.68,0.24,3.34,0.61,4.93,1.19
		c0.52,0.18,1.04,0.36,1.54,0.59c0.29,0.14,0.56,0.36,0.83,0.54c0.18,0.11,0.35,0.26,0.54,0.34c1.87,0.78,3.56,1.85,5.12,3.15
		c0.28,0.24,0.59,0.47,0.92,0.65c0.71,0.43,1.35,0.95,1.93,1.55c0.78,0.82,1.66,1.51,2.63,2.1c1.93,1.16,3.69,2.56,5.43,3.98
		c0.9,0.74,1.82,1.45,2.7,2.2c1.95,1.66,3.92,3.3,5.83,5c0.86,0.77,1.64,1.66,2.37,2.55c1.1,1.38,2.3,2.65,3.63,3.8
		c1.28,1.11,2.31,2.42,3.39,3.7c1.8,2.16,3.09,4.61,4.34,7.09c0.66,1.29,1.42,2.55,2.1,3.83c0.32,0.61,0.61,1.24,0.86,1.88
		c0.52,1.32,1.02,2.64,1.51,3.98c0.18,0.48,0.29,0.99,0.47,1.46c0.25,0.68,0.49,1.37,0.79,2.03c0.37,0.84,0.59,1.7,0.73,2.61
		c0.11,0.74,0.26,1.47,0.51,2.17c0.57,1.57,0.61,3.16,0.39,4.79c-0.27,1.99-0.98,3.81-2.12,5.46c-0.93,1.34-2.06,2.43-3.6,3.05
		c-0.26,0.1-0.37,0.26-0.37,0.53c0.01,2.03-0.54,3.98-0.87,5.96c-0.11,0.69-0.19,1.41-0.19,2.12c0.01,1.32-0.19,2.6-0.45,3.87
		c-0.31,1.5-0.37,3.01-0.53,4.51c-0.08,0.76-0.11,1.53-0.17,2.3c-0.14,1.99-0.26,3.97-0.43,5.96c-0.12,1.51-0.32,3.02-0.5,4.53
		c-0.26,2.16-0.54,4.3-0.81,6.45c-0.28,2.43-0.51,4.86-0.83,7.28c-0.18,1.43-0.43,2.85-0.74,4.25c-0.33,1.55-0.45,3.12-0.57,4.68
		c-0.11,1.51-2.11,8.67-2.28,9.51c-0.33,1.54-0.65,3.09-0.95,4.63c-0.41,2.05-0.77,4.11-1.21,6.15c-0.23,1.02-0.58,2.01-0.88,3.01
		c-0.9,2.86-1.68,5.75-2.43,8.66c-0.35,1.35-0.87,2.65-1.29,3.99c-0.62,1.97-1.25,3.95-1.84,5.93c-0.6,2.04-1.15,4.1-1.76,6.14
		c-0.88,2.92-1.96,5.74-3.54,8.36c-0.57,0.94-0.98,1.97-1.49,2.96c-0.56,1.07-1.12,2.12-1.72,3.16c-0.77,1.37-1.63,2.7-2.36,4.1
		c-1.28,2.46-2.81,4.74-4.64,6.83c-1.13,1.3-2.23,2.65-3.43,3.91c-0.78,0.83-1.71,1.51-2.58,2.26c-0.69,0.59-1.4,1.16-2.08,1.75
		c-0.49,0.42-0.95,0.88-1.45,1.29c-0.23,0.19-0.26,0.36-0.15,0.61c0.23,0.49,0.44,0.96,0.67,1.45c1.07,2.35,2.42,4.51,4.02,6.52
		c0.52,0.66,1.09,1.29,1.67,1.91c1,1.05,2.02,2.11,3.05,3.13c1.07,1.05,2.22,2,3.64,2.58c0.25,0.1,0.51,0.23,0.74,0.37
		c0.43,0.31,0.87,0.28,1.26-0.03c1.34-1.1,2.86-1.96,4.1-3.2c1.02-1.02,2.18-1.87,3.37-2.69c1.28-0.87,2.5-1.86,3.69-2.86
		c1.26-1.05,2.61-1.97,3.97-2.89c1.59-1.07,3.16-2.14,4.74-3.22c1.09-0.74,2.25-1.3,3.53-1.61c1.72-0.41,3.45-0.84,5.17-1.25
		c2.3-0.54,4.46-0.22,6.43,1.13c0.71,0.48,1.2,1.13,1.63,1.84c0.7,1.16,1.26,2.36,1.33,3.74c0.05,1.04-0.15,2.03-0.56,2.99
		c-0.78,1.84-1.68,3.6-2.79,5.26c-1.78,2.68-3.88,5.12-5.94,7.58c-0.83,0.99-1.83,1.85-2.78,2.73c-1.72,1.59-3.47,3.15-5.22,4.72
		c-0.32,0.28-0.68,0.53-1.03,0.79c-0.77,0.6-1.59,1.17-2.31,1.83c-1.07,0.96-2.3,1.64-3.48,2.44c-1.68,1.13-3.36,2.28-5.05,3.41
		c-1.27,0.85-2.62,1.54-4.21,1.55c-0.93,0-1.85-0.02-2.78-0.05c-0.45-0.01-0.91-0.02-1.36-0.08c-0.76-0.11-1.52-0.22-2.26-0.41
		c-1.28-0.33-2.54-0.71-3.8-1.09c-0.32-0.09-0.64-0.24-0.91-0.42c-0.5-0.34-1.05-0.51-1.63-0.66c-1.24-0.31-2.35-0.91-3.49-1.43
		c-0.74-0.34-1.45-0.7-2.19-1.03c-0.34-0.16-0.69-0.29-1.05-0.37c-1.08-0.24-2.04-0.7-3.01-1.21c-1.34-0.7-2.69-1.41-4.03-2.11
		c-0.29-0.16-0.61-0.29-0.87-0.5c-1.23-0.93-2.68-1.43-4.03-2.11c-0.07-0.03-0.15-0.03-0.28-0.07c-0.06,0.17-0.11,0.33-0.16,0.49
		c-0.47,1.97-1.52,3.55-3.27,4.59c-0.7,0.42-1.47,0.75-2.23,1.07c-0.92,0.37-1.88,0.54-2.87,0.7c-1.03,0.16-2.04,0.41-3.07,0.59
		c-1.53,0.27-3.06,0.54-4.61,0.75c-2.37,0.32-4.67-0.01-6.9-0.94c-0.91-0.39-1.86-0.68-2.75-1.1c-2-0.96-3.74-2.25-5.12-4.02
		c-0.92-1.18-1.84-2.37-2.76-3.55c-0.24-0.31-0.5-0.6-0.77-0.9c-1.64-1.79-2.86-3.85-3.69-6.15c-0.65-1.79-1.34-3.58-2.02-5.37
		c-1.09-2.84-1.62-5.8-2.03-8.79c-0.33-2.38,0.11-4.61,1.28-6.67c1.11-1.97,2.75-3.31,5.03-3.8c1.17-0.25,5.41-1.33,6.4-1.11
		c0.09,0.02,0.19,0,0.37,0c-0.1-0.22-0.16-0.4-0.25-0.56c-0.86-1.46-1.7-2.93-2.6-4.37c-1.16-1.87-2.02-3.88-2.8-5.92
		c-0.57-1.47-1.2-2.92-1.79-4.38c-0.69-1.74-1.36-3.49-2.06-5.22c-0.49-1.18-1.02-2.35-1.53-3.52c-0.85-1.95-1.71-3.9-2.58-5.84
		c-0.5-1.11-1.05-2.21-1.5-3.35c-0.56-1.41-1.05-2.85-1.53-4.29c-0.7-2.13-1.37-4.28-2.05-6.42c-0.59-1.88-1.18-3.75-1.74-5.65
		c-0.24-0.81-0.37-1.66-0.58-2.47c-0.27-1.09-0.57-2.17-0.85-3.26c-0.1-0.37-0.19-0.75-0.31-1.25c-0.23,0.23-0.37,0.36-0.51,0.51
		c-0.52,0.59-1,1.24-1.57,1.77c-1.08,1.01-2.19,1.99-3.32,2.94c-0.73,0.61-1.5,1.16-2.27,1.7c-1.44,1.02-3.05,1.63-4.74,2.09
		c-1.47,0.4-2.98,0.69-4.5,0.54c-2.46-0.23-4.41-1.3-5.57-3.62c-0.61-1.23-1.01-2.48-1.13-3.83c-0.06-0.68,0.05-1.37,0.1-2.05
		c0.1-1.21,0.41-2.36,1.01-3.43c0.28-0.51,0.41-1.11,0.68-1.63c0.57-1.05,1.16-2.11,1.82-3.12c1.16-1.78,2.36-3.54,3.56-5.3
		c0.87-1.27,1.57-2.64,2.37-3.96c1.45-2.38,2.84-4.82,4.42-7.14c1.23-1.78,2.33-3.66,3.05-5.73c0.56-1.58,1.16-3.14,1.67-4.74
		c0.19-0.61,0.18-1.28,0.27-1.93c0.27-1.96,0.17-3.94,0.12-5.91c-0.02-1.15-0.02-2.29,0.05-3.43c0.15-2.9,0.05-5.8-0.23-8.68
		c-0.14-1.47-0.39-2.94-0.48-4.41c-0.11-1.69-0.17-3.39-0.17-5.08c0-2.94,0.11-5.88,0.1-8.81c-0.01-2.77,0.15-5.51,0.48-8.26
		C195.87,129.31,195.86,129.14,195.86,128.84z M266.2,76.04c-1.2-0.58-2.4-1.19-3.66-1.66c-1.13-0.43-2.35-0.66-3.52-1.02
		c-1.35-0.42-2.73-0.58-4.14-0.51c-0.39,0.02-0.78-0.08-1.17-0.14c-0.35-0.05-0.69-0.17-1.04-0.17c-0.94,0.01-1.89,0.09-2.84,0.12
		c-1.38,0.06-2.76,0.12-4.14,0.14c-1.68,0.01-3.35-0.01-5.01,0.26c-2.08,0.34-4.17,0.62-6.24,1.02c-1.45,0.27-2.88,0.65-4.31,1.03
		c-0.95,0.26-1.87,0.6-2.8,0.92c-0.54,0.19-1.07,0.41-1.6,0.62c-2.35,0.92-4.73,1.77-6.97,2.95c-1.37,0.73-2.8,1.37-4.07,2.28
		c-0.69,0.49-1.37,1-2.08,1.46c-2.55,1.63-4.84,3.58-7,5.71c-1.11,1.09-2.21,2.2-3.06,3.52c-0.73,1.12-1.4,2.29-2.08,3.44
		c-0.79,1.36-1.57,2.73-2.56,3.97c-0.79,0.96-1.42,2.03-1.92,3.18c-0.73,1.64-1.45,3.28-2.19,4.91c-0.43,0.95-0.93,1.87-1.27,2.86
		c-0.47,1.32-0.77,2.69-1.19,4.03c-0.44,1.45-0.91,2.89-1.41,4.32c-0.62,1.79-0.94,3.66-1.43,5.49c-0.2,0.76-0.16,1.55,0.1,2.34
		c0.18,0.53,0.51,0.82,1.08,0.81c0.29-0.01,0.59,0.03,0.88,0.01c0.9-0.05,1.63-0.54,2.4-0.94c0.98-0.5,1.95-1.02,2.95-1.5
		c0.28-0.14,0.42-0.28,0.45-0.6c0.08-0.74,0.22-1.47,0.33-2.22c0.08-0.49,0.16-0.98,0.24-1.45c0.28-1.67,0.53-3.35,0.84-5.01
		c0.16-0.88,0.6-1.67,1.11-2.4c0.25-0.36,0.6-0.49,0.92-0.37c0.35,0.12,0.57,0.45,0.52,0.9c-0.05,0.37-0.16,0.73-0.25,1.09
		c-0.12,0.56-0.29,1.11-0.36,1.67c-0.1,0.86-0.12,1.72-0.18,2.59c-0.1,1.58-0.22,3.14-0.32,4.72c-0.1,1.63-0.18,3.27-0.27,4.9
		c-0.1,1.91-0.26,3.82-0.29,5.73c-0.05,3.1-0.01,6.19,0.01,9.28c0.02,2.94,0.03,5.86,0.42,8.79c0.45,3.44,0.65,6.91,0.56,10.38
		c-0.06,2.43-0.16,4.84-0.08,7.27c0.06,1.71-0.19,3.38-0.58,5.04c-0.17,0.73-0.47,1.42-0.69,2.13c-0.47,1.52-0.86,3.07-1.41,4.57
		c-0.61,1.69-1.46,3.27-2.4,4.8c-1.09,1.78-2.37,3.44-3.35,5.3c-0.56,1.04-1.27,2-1.82,3.04c-1.36,2.59-3.06,4.96-4.7,7.37
		c-1.24,1.83-2.5,3.64-3.23,5.75c-0.08,0.23-0.22,0.42-0.31,0.65c-0.17,0.45-0.36,0.92-0.47,1.4c-0.32,1.49-0.19,2.92,0.45,4.32
		c0.64,1.38,1.77,1.95,3.16,1.96c1.87,0.01,3.66-0.49,5.37-1.26c1.54-0.7,2.85-1.77,4.17-2.78c2.1-1.59,3.86-3.54,5.54-5.56
		c0.37-0.45,0.74-0.91,0.88-1.52c0.06-0.25,0.36-0.44,0.57-0.65c0.14-0.14,0.33-0.23,0.44-0.39c0.9-1.2,1.76-2.43,2.68-3.61
		c0.76-0.98,1.52-1.96,2.51-2.75c0.27-0.22,0.49-0.5,0.76-0.73c0.1-0.09,0.31-0.18,0.39-0.14c0.1,0.06,0.17,0.25,0.18,0.39
		c0.01,0.35-0.01,0.7-0.05,1.05c-0.02,0.22-0.06,0.43-0.11,0.64c-0.23,0.83-0.69,1.54-1.15,2.26c-1.17,1.85-2.34,3.7-3.52,5.55
		c-0.18,0.28-0.2,0.53-0.1,0.84c0.22,0.66,0.42,1.32,0.64,1.97c0.41,1.26,0.84,2.51,1.21,3.77c0.24,0.81,0.35,1.67,0.61,2.46
		c0.94,2.93,1.91,5.84,2.88,8.76c0.71,2.13,1.41,4.27,2.19,6.38c0.52,1.38,1.19,2.71,1.78,4.05c0.98,2.18,1.94,4.36,2.92,6.53
		c0.26,0.58,0.54,1.15,0.77,1.72c0.51,1.3,1,2.61,1.51,3.91c1.34,3.49,2.68,6.99,4.03,10.48c0.42,1.1,0.79,2.23,1.32,3.29
		c1.01,2.01,2.2,3.91,3.48,5.76c0.39,0.54,0.75,1.11,1.1,1.68c0.66,1.08,1.28,2.17,1.97,3.23c0.61,0.94,1.29,1.84,1.92,2.77
		c1.24,1.86,2.67,3.56,4.16,5.22c1.43,1.58,2.86,3.14,4,4.96c0.94,1.49,2.12,2.79,3.55,3.85c1.55,1.15,3.04,2.37,4.41,3.74
		c1.25,1.25,2.63,2.37,3.96,3.55c1.21,1.08,2.55,1.97,4.07,2.59c0.64,0.26,1.25,0.59,1.84,0.94c2.1,1.21,4.17,2.47,6.28,3.65
		c0.77,0.43,1.66,0.64,2.45,1.02c1.55,0.77,3.09,1.58,4.61,2.4c1.35,0.74,2.73,1.41,4.22,1.83c1.38,0.4,2.78,0.71,4.17,1.07
		c0.17,0.05,0.35,0.07,0.52,0.07c1.38,0.05,2.76,0.08,4.14,0.11c0.73,0.02,1.42-0.15,2.05-0.48c0.59-0.31,1.19-0.62,1.75-0.99
		c1.29-0.83,2.58-1.68,3.85-2.55c1.02-0.7,2.16-1.24,3.09-2.09c0.36-0.33,0.73-0.67,1.11-0.98c1.43-1.13,2.92-2.22,4.22-3.52
		c1.3-1.28,2.68-2.5,4-3.77c0.66-0.62,1.33-1.25,1.88-1.96c1.82-2.33,3.73-4.58,5.37-7.06c1.15-1.74,2.1-3.56,2.81-5.51
		c0.23-0.61,0.29-1.25,0.1-1.86c-0.18-0.56-0.45-1.09-0.71-1.61c-0.31-0.61-0.85-0.98-1.47-1.2c-0.86-0.31-1.76-0.47-2.67-0.23
		c-1.91,0.5-3.86,0.82-5.71,1.54c-0.71,0.28-1.43,0.59-2.06,1.01c-1.61,1.05-3.19,2.18-4.76,3.29c-1.16,0.82-2.36,1.59-3.45,2.5
		c-1.64,1.38-3.34,2.7-5.14,3.88c-0.34,0.23-0.66,0.5-0.98,0.77c-0.83,0.73-1.6,1.53-2.48,2.18c-1.12,0.83-2.3,1.6-3.52,2.28
		c-1.11,0.62-2.37,0.7-3.62,0.47c-0.49-0.09-0.94-0.29-1.32-0.64c-0.1-0.09-0.23-0.16-0.35-0.22c-0.54-0.28-1.1-0.53-1.62-0.85
		c-1.16-0.73-2.22-1.55-3.07-2.65c-0.53-0.7-1.13-1.36-1.71-2.03c-0.57-0.66-1.21-1.25-1.71-1.95c-0.78-1.11-1.51-2.26-2.19-3.44
		c-1.16-1.97-2.01-4.11-2.88-6.22c-0.54-1.33-1.17-2.63-1.67-3.98c-0.67-1.79-1.41-3.55-2.3-5.25c-0.36-0.69-0.67-1.43-0.99-2.14
		c-0.17-0.39-0.23-0.79-0.12-1.21c0.09-0.39,0.33-0.65,0.65-0.68c0.34-0.05,0.54,0.12,0.74,0.54c0.28,0.6,0.57,1.21,0.88,1.8
		c0.33,0.62,0.74,1.21,1.04,1.86c0.54,1.13,1.04,2.29,1.58,3.44c0.08,0.17,0.17,0.33,0.28,0.56c0.31-0.29,0.56-0.52,0.77-0.76
		c0.74-0.79,1.58-1.47,2.43-2.16c0.82-0.65,1.61-1.34,2.31-2.1c1.08-1.16,2.05-2.39,3.09-3.57c1.51-1.72,2.79-3.61,3.9-5.63
		c0.71-1.32,1.38-2.65,2.28-3.87c0.29-0.41,0.48-0.9,0.7-1.36c0.12-0.25,0.2-0.52,0.35-0.74c0.43-0.65,0.75-1.34,0.95-2.09
		c0.06-0.18,0.12-0.41,0.26-0.51c0.36-0.28,0.51-0.69,0.71-1.07c0.24-0.43,0.43-0.88,0.69-1.3c1.35-2.18,2.26-4.55,3.03-6.98
		c0.47-1.44,0.84-2.92,1.26-4.38c0.57-1.99,1.09-3.99,1.7-5.97c0.88-2.88,1.99-5.69,2.7-8.63c0.52-2.18,1.26-4.31,1.91-6.47
		c0.07-0.24,0.12-0.47-0.02-0.68c-0.42-0.62-0.35-1.26-0.11-1.93c0.35-0.98,0.7-1.96,1.04-2.95c0.06-0.17,0.11-0.34,0.15-0.51
		c0.18-0.83,0.34-1.66,0.54-2.47c0.51-2.09,1.04-4.16,1.58-6.24c0.25-0.98,0.54-1.93,0.81-2.9c0.07-0.25,0.11-0.5,0.15-0.75
		c0.06-0.45,0.1-0.9,0.16-1.35c0.12-0.94,0.34-1.87,0.36-2.81c0.02-0.76-0.06-1.5,0.41-2.16c0.03-0.05,0.03-0.11,0.05-0.17
		c0.2-0.91,0.37-1.82,0.86-2.63c0.03-0.05,0.05-0.11,0.06-0.17c0.2-1.2,0.45-2.4,0.6-3.62c0.32-2.7,0.57-5.41,0.88-8.11
		c0.23-2,0.51-3.98,0.77-5.98c0.09-0.75,0.22-1.49,0.28-2.23c0.14-1.61,0.23-3.22,0.36-4.83c0.18-2.16,0.36-4.32,0.58-6.48
		c0.12-1.18,0.29-2.35,0.49-3.51c0.22-1.28,0.51-2.54,0.59-3.85c0.1-1.74,0.59-3.41,1.1-5.07c0.32-1.03,0.44-2.08,0.54-3.14
		c0.01-0.12-0.06-0.34-0.15-0.4c-0.43-0.23-0.88-0.41-1.28-0.58c-0.56,0.73-1.08,1.42-1.61,2.09c-0.25,0.31-0.51,0.61-0.82,0.85
		c-1.23,0.93-2.55,1.23-4.06,0.73c-0.9-0.31-1.61-0.75-1.99-1.62c-0.18-0.43-0.28-0.9-0.4-1.35c-0.06-0.25-0.05-0.51-0.33-0.66
		c-0.15,0.07-0.29,0.12-0.42,0.2c-1.92,1.12-3.98,1.89-6.08,2.6c-1.01,0.34-2.01,0.7-2.99,1.11c-1,0.42-1.96,0.93-2.96,1.34
		c-1.37,0.54-2.77,1.04-4.16,1.53c-1.08,0.37-2.16,0.75-3.26,1.08c-0.62,0.18-1.28,0.24-1.91,0.4c-1.72,0.44-3.46,0.75-5.24,0.86
		c-1.15,0.08-2.27,0.24-3.38,0.52c-3.31,0.85-6.69,1.29-10.11,1.45c-2.55,0.11-5.12,0.09-7.68,0.12c-0.11,0-0.24,0-0.35-0.01
		c-1.26-0.02-2.52-0.1-3.78-0.05c-1.57,0.07-3.1-0.06-4.65-0.28c-2.42-0.35-4.86-0.58-7.28-0.82c-1.02-0.1-2.04-0.1-3.07-0.11
		c-1.5-0.02-2.95-0.23-4.32-0.85c-0.66-0.31-1.32-0.64-1.99-0.92c-0.4-0.17-0.82-0.27-1.24-0.37c-0.48-0.12-0.96-0.19-1.44-0.33
		c-0.59-0.17-0.95-0.61-1.17-1.17c-0.28-0.77,0.02-1.54,0.77-1.88c0.27-0.12,0.6-0.19,0.91-0.19c0.43,0,0.86,0.08,1.29,0.12
		c0.6,0.07,0.62,0.07,0.78-0.5c0.23-0.78,0.57-1.51,0.99-2.2c0.42-0.69,0.95-1.29,1.74-1.54c1.16-0.36,2.37-0.47,3.56-0.26
		c1.36,0.24,2.5,0.93,3.28,2.13c0.08,0.12,0.19,0.23,0.28,0.32c0.07-0.03,0.09-0.03,0.1-0.05c0.03-0.05,0.08-0.09,0.11-0.14
		c0.66-1.34,1.72-2.29,2.97-3.04c0.93-0.57,1.85-1.12,2.96-1.3c0.82-0.14,1.62-0.11,2.34,0.35c0.85,0.56,1.59,1.25,2.05,2.17
		c0.58,1.15,1.13,2.29,1.69,3.45c0.51,1.07,0.83,2.17,0.78,3.37c-0.01,0.15,0.03,0.29,0.06,0.44c0.1,0.02,0.16,0.06,0.22,0.06
		c1.87,0.06,3.74,0.12,5.6,0.15c1.46,0.01,2.92-0.02,4.38-0.1c1.28-0.07,2.55-0.23,3.82-0.39c1.88-0.23,3.74-0.52,5.58-0.99
		c1.17-0.29,2.35-0.48,3.55-0.57c1.19-0.09,2.39-0.26,3.57-0.47c1.17-0.2,2.31-0.49,3.47-0.74c0.19-0.05,0.39-0.08,0.57-0.15
		c1.27-0.43,2.53-0.9,3.8-1.3c1.53-0.5,3.09-0.96,4.54-1.69c1.4-0.7,2.87-1.19,4.36-1.69c1.27-0.42,2.54-0.85,3.77-1.38
		c1.67-0.71,3.28-1.54,4.93-2.29c1.47-0.67,2.96-1.29,4.45-1.94c0.7-0.31,1.43-0.57,2.1-0.94c1.58-0.9,3.12-1.85,4.68-2.76
		c1-0.59,1.85-1.35,2.62-2.2c0.2-0.23,0.41-0.47,0.66-0.75c-0.85-2.9-1.18-2.55-1.32-2.81c-0.47-0.87-0.83-1.79-1.09-2.75
		c-0.17-0.59-0.35-1.17-0.57-1.75c-0.32-0.83-0.71-1.62-0.99-2.46c-0.39-1.15-0.87-2.23-1.58-3.22c-0.33-0.47-0.64-0.95-0.91-1.45
		c-0.83-1.5-1.63-3.02-2.45-4.53c-0.58-1.05-1.16-2.11-1.97-3.01c-0.32-0.35-0.6-0.74-0.88-1.11c-0.67-0.88-1.43-1.68-2.27-2.4
		c-1.38-1.2-2.62-2.56-3.81-3.96c-0.82-0.96-1.64-1.93-2.58-2.77c-1.66-1.51-3.38-2.95-5.1-4.4c-1.64-1.38-3.32-2.71-4.97-4.1
		c-1.12-0.94-2.28-1.82-3.53-2.58c-0.56-0.34-1.07-0.75-1.54-1.19c-1.13-1.05-2.17-2.22-3.49-3.07c-0.23-0.15-0.42-0.35-0.62-0.54
		 M238.21,289.81c0.02,0.03-0.02-0.07-0.09-0.14c-0.96-1.04-1.77-2.22-2.5-3.44c-0.14-0.22-0.27-0.43-0.44-0.64
		c-0.96-1.17-1.94-2.34-2.9-3.51c-1.86-2.23-3.44-4.66-5-7.1c-0.83-1.29-1.53-2.67-2.3-3.99c-0.11-0.2-0.24-0.4-0.35-0.58
		c-1.21,0.42-1.21,0.43-2.63,0.24c-0.49-0.07-0.95-0.06-1.4,0.11c-1.36,0.53-2.78,0.87-4.19,1.25c-0.36,0.1-0.74,0.29-1.03,0.53
		c-1.71,1.4-2.31,3.29-2.21,5.42c0.06,1.13,0.32,2.26,0.49,3.39c0.26,1.68,0.69,3.31,1.29,4.91c0.75,1.97,1.51,3.94,2.23,5.92
		c0.58,1.57,1.41,2.99,2.47,4.28c0.85,1.03,1.7,2.06,2.55,3.11c0.7,0.85,1.38,1.72,2.1,2.56c0.94,1.1,2.13,1.86,3.44,2.45
		c0.84,0.37,1.72,0.68,2.58,1.04c1.5,0.65,3.06,0.9,4.68,0.69c1.7-0.22,3.39-0.48,5.09-0.74c1.11-0.17,2.22-0.34,3.32-0.54
		c1.42-0.27,2.8-0.64,4-1.51c1.72-1.25,1.94-3.53,0.44-5.04c-1.26-1.27-2.65-2.36-4.27-3.15c-0.51-0.25-1.02-0.42-1.59-0.41
		c-1.45,0.01-2.92-0.08-4.37,0.14c-0.59,0.09-1.18,0.06-1.71-0.28c-0.6-0.39-0.86-0.98-0.64-1.62c0.11-0.32,0.37-0.59,0.61-0.85
		C236.66,291.51,237.41,290.69,238.21,289.81z M239.35,145.86c0.15-0.76,0.08-1.46-0.22-2.12c-0.6-1.35-1.23-2.69-1.88-4
		c-0.15-0.31-0.44-0.54-0.67-0.82c-0.25-0.28-0.57-0.34-0.92-0.25c-0.23,0.06-0.47,0.11-0.67,0.24c-0.71,0.42-1.44,0.82-2.1,1.3
		c-0.41,0.31-0.78,0.74-1.03,1.19c-0.52,0.95-0.77,2.02-0.95,3.09c-0.06,0.34,0.01,0.42,0.35,0.47c0.62,0.08,1.25,0.15,1.87,0.23
		c1.46,0.19,2.93,0.39,4.39,0.59C238.12,145.85,238.7,145.99,239.35,145.86z M302.15,133.91c0.2,0.74,0.41,1.4,1.01,1.87
		c0.37,0.31,0.75,0.61,1.24,0.61c0.52,0,1.04-0.1,1.57-0.17c0.06-0.01,0.1-0.06,0.15-0.1c0.4-0.37,0.84-0.71,1.18-1.15
		c1.4-1.72,2.04-3.74,2.26-5.92c0.01-0.12-0.02-0.26-0.03-0.53C307.34,130.84,304.5,132.01,302.15,133.91z M227.34,144.51
		c-0.12-0.91-0.25-1.83-0.66-2.67c-0.43-0.88-1.23-1.3-2.21-1.32c-0.4,0-0.78,0.03-1.18,0.06c-0.42,0.02-0.76,0.22-0.98,0.58
		c-0.31,0.51-0.61,1.01-0.86,1.54c-0.28,0.59-0.25,0.62,0.37,0.91c0.12,0.06,0.26,0.1,0.37,0.17c1.54,0.91,3.23,0.91,4.93,0.82
		C227.19,144.6,227.23,144.56,227.34,144.51z M295.38,137.22c0.14,0.54,0.23,1.01,0.35,1.46c0.09,0.32,0.2,0.64,0.53,0.82
		c0.78,0.4,1.61,0.29,2.22-0.35c0.4-0.41,0.75-0.86,1.11-1.3c0.09-0.1,0.17-0.23,0.19-0.36c0.17-0.79,0.1-1.59,0.15-2.51
		C298.3,135.68,296.84,136.45,295.38,137.22z M239.64,291.99c0.27-0.02,0.44-0.05,0.71-0.07
		C239.97,291.63,239.97,291.63,239.64,291.99z"/>
</g>
</svg>
