<?xml version="1.0" encoding="utf-8"?>
<!-- Generator: Adobe Illustrator 23.0.3, SVG Export Plug-In . SVG Version: 6.00 Build 0)  -->
<svg version="1.1" id="Calque_1" xmlns="http://www.w3.org/2000/svg" xmlns:xlink="http://www.w3.org/1999/xlink" x="0px" y="0px"
	 viewBox="0 0 500 500" style="enable-background:new 0 0 500 500;" xml:space="preserve">
<style type="text/css">
	.st0{fill:#FFFFFF;}
	.st1{fill-rule:evenodd;clip-rule:evenodd;fill:#FFFFFF;}
</style>
<g>
	<g>
		<path class="st0" d="M196.39,307.1c1.78-0.12,3.57-0.16,5.34-0.38c4.68-0.59,9.17-1.95,13.3-4.19
			c8.55-4.64,17.09-9.32,25.49-14.23c17.74-10.38,35.41-20.87,53.06-31.41c7.39-4.41,14.63-9.06,21.92-13.63
			c0.78-0.49,1.49-1.12,2.1-1.81c0.81-0.92,0.73-1.95-0.11-2.85c-0.36-0.38-0.79-0.72-1.24-0.97c-0.82-0.43-1.68-0.79-2.53-1.16
			c-8.91-3.96-17.82-7.93-26.74-11.87c-0.54-0.24-1.15-0.36-1.75-0.41c-2.3-0.2-4.5,0.35-6.64,1.12c-4.46,1.61-8.55,3.96-12.33,6.76
			c-7.06,5.22-14.04,10.56-21.02,15.89c-8.78,6.7-17.37,13.67-26.51,19.9c-4.93,3.36-10.15,6.24-15.65,8.59
			c-2.25,0.96-4.25,0.39-5.87-1.25c-1-1.02-1.84-2.28-2.47-3.57c-1.71-3.5-2.67-7.28-3.35-11.08c-0.85-4.77-1.47-9.58-2-14.4
			c-0.61-5.55-1.04-11.12-1.49-16.68c-0.4-4.94-0.71-9.88-1.11-14.82c-0.46-5.71-0.95-11.43-1.48-17.14
			c-0.38-4.11-1.07-8.17-2.28-12.13c-0.85-2.78-1.86-5.5-3.78-7.74c-0.65-0.77-1.46-1.53-2.36-1.94
			c-9.32-4.22-18.68-8.37-28.03-12.52c-0.77-0.34-1.61-0.58-2.44-0.75c-1.37-0.28-2.49,0.43-2.6,1.81c-0.1,1.26-0.03,2.56,0.19,3.81
			c0.99,5.87,2.01,11.73,3.11,17.58c1.74,9.3,3.51,18.6,5.36,27.89c2.09,10.52,4.21,21.03,6.44,31.52
			c2.44,11.44,4.98,22.86,7.57,34.27c1.55,6.8,4.42,13,9.24,18.14C181.32,303.39,187.87,307.37,196.39,307.1z M356.2,256.77
			c-0.09,0-0.18,0-0.27,0c0-5.49,0.03-10.98-0.01-16.47c-0.04-5.29-0.13-10.57-0.24-15.86c-0.14-6.49-0.28-12.98-0.53-19.47
			c-0.14-3.77-0.3-7.55-0.78-11.28c-0.99-7.67-4.12-14.41-9.44-20.07c-2.76-2.94-5.91-5.35-9.79-6.57
			c-6.96-2.19-14.06-2.54-21.14-0.79c-4.41,1.09-8.74,2.49-13.05,3.91c-22.8,7.53-45.43,15.58-67.98,23.84
			c-10.5,3.85-20.92,7.89-31.37,11.88c-0.76,0.29-1.5,0.73-2.14,1.23c-1.1,0.86-1.25,1.94-0.38,3.03c0.59,0.74,1.31,1.4,2.09,1.94
			c8.21,5.74,16.43,11.47,24.67,17.16c0.78,0.54,1.72,0.94,2.64,1.19c1.9,0.53,3.85,0.36,5.77,0.09c4.24-0.59,8.29-1.89,12.16-3.65
			c5.42-2.46,10.78-5.07,16.13-7.7c12.15-5.96,24.24-12.01,36.42-17.92c5.96-2.89,12.27-4.87,18.72-6.4c2.9-0.69,4.88,0.05,6.45,2.3
			c0.94,1.34,1.45,2.87,1.78,4.45c0.99,4.78,1.21,9.64,1.02,14.5c-0.18,4.5-0.6,8.98-1,13.47c-0.36,4.03-0.8,8.05-1.25,12.07
			c-0.51,4.6-1.09,9.18-1.61,13.78c-0.59,5.19-1.11,10.4-1.72,15.59c-0.64,5.51-1.03,11.02-0.55,16.57
			c0.22,2.56,0.68,5.09,1.68,7.47c0.59,1.4,1.32,2.71,2.62,3.62c8.33,5.83,16.65,11.68,24.99,17.49c0.85,0.59,1.84,1.01,2.83,1.35
			c0.95,0.33,1.85-0.11,2.23-1.04c0.32-0.78,0.55-1.63,0.59-2.47c0.16-3.29,0.27-6.59,0.31-9.88c0.08-6.27,0.14-12.54,0.15-18.81
			C356.22,275.81,356.2,266.29,356.2,256.77z"/>
		<path class="st1" d="M196.39,307.1c-8.52,0.27-15.07-3.7-20.65-9.65c-4.82-5.14-7.69-11.34-9.24-18.14
			c-2.59-11.41-5.13-22.83-7.57-34.27c-2.24-10.49-4.35-21-6.44-31.52c-1.85-9.28-3.61-18.58-5.36-27.89
			c-1.1-5.85-2.12-11.71-3.11-17.58c-0.21-1.25-0.28-2.55-0.19-3.81c0.11-1.38,1.23-2.09,2.6-1.81c0.83,0.17,1.66,0.41,2.44,0.75
			c9.36,4.15,18.71,8.3,28.03,12.52c0.9,0.41,1.7,1.17,2.36,1.94c1.92,2.24,2.93,4.96,3.78,7.74c1.21,3.96,1.9,8.02,2.28,12.13
			c0.52,5.71,1.02,11.42,1.48,17.14c0.4,4.94,0.71,9.89,1.11,14.82c0.46,5.56,0.88,11.13,1.49,16.68c0.53,4.82,1.15,9.63,2,14.4
			c0.67,3.8,1.63,7.58,3.35,11.08c0.63,1.29,1.47,2.55,2.47,3.57c1.61,1.64,3.62,2.21,5.87,1.25c5.5-2.35,10.72-5.23,15.65-8.59
			c9.14-6.23,17.73-13.19,26.51-19.9c6.98-5.33,13.96-10.67,21.02-15.89c3.79-2.8,7.87-5.15,12.33-6.76
			c2.14-0.77,4.34-1.32,6.64-1.12c0.59,0.05,1.21,0.17,1.75,0.41c8.92,3.94,17.83,7.91,26.74,11.87c0.85,0.38,1.71,0.73,2.53,1.16
			c0.46,0.24,0.89,0.59,1.24,0.97c0.85,0.89,0.92,1.93,0.11,2.85c-0.61,0.69-1.33,1.32-2.1,1.81c-7.29,4.57-14.53,9.22-21.92,13.63
			c-17.64,10.54-35.32,21.03-53.06,31.41c-8.4,4.91-16.94,9.59-25.49,14.23c-4.13,2.24-8.62,3.6-13.3,4.19
			C199.96,306.93,198.17,306.97,196.39,307.1z"/>
		<path class="st1" d="M356.2,256.77c0,9.52,0.02,19.04-0.01,28.55c-0.02,6.27-0.07,12.54-0.15,18.81c-0.04,3.3-0.16,6.59-0.31,9.88
			c-0.04,0.83-0.28,1.69-0.59,2.47c-0.38,0.93-1.29,1.37-2.23,1.04c-0.98-0.34-1.98-0.76-2.83-1.35
			c-8.35-5.81-16.66-11.66-24.99-17.49c-1.3-0.91-2.03-2.21-2.62-3.62c-1-2.39-1.46-4.91-1.68-7.47
			c-0.47-5.54-0.09-11.06,0.55-16.57c0.61-5.19,1.13-10.4,1.72-15.59c0.52-4.6,1.1-9.18,1.61-13.78c0.45-4.02,0.9-8.04,1.25-12.07
			c0.4-4.48,0.82-8.97,1-13.47c0.2-4.86-0.03-9.71-1.02-14.5c-0.33-1.58-0.84-3.11-1.78-4.45c-1.57-2.25-3.56-2.99-6.45-2.3
			c-6.45,1.53-12.76,3.51-18.72,6.4c-12.17,5.9-24.27,11.96-36.42,17.92c-5.35,2.62-10.71,5.23-16.13,7.7
			c-3.87,1.76-7.92,3.05-12.16,3.65c-1.92,0.27-3.87,0.44-5.77-0.09c-0.92-0.26-1.86-0.65-2.64-1.19
			c-8.24-5.69-16.46-11.42-24.67-17.16c-0.77-0.54-1.5-1.2-2.09-1.94c-0.87-1.1-0.72-2.17,0.38-3.03c0.64-0.5,1.38-0.94,2.14-1.23
			c10.45-3.98,20.87-8.03,31.37-11.88c22.55-8.26,45.18-16.31,67.98-23.84c4.31-1.43,8.65-2.83,13.05-3.91
			c7.09-1.75,14.18-1.39,21.14,0.79c3.88,1.22,7.04,3.64,9.79,6.57c5.32,5.66,8.45,12.4,9.44,20.07c0.48,3.73,0.64,7.52,0.78,11.28
			c0.24,6.49,0.38,12.98,0.53,19.47c0.12,5.29,0.2,10.57,0.24,15.86c0.04,5.49,0.01,10.98,0.01,16.47
			C356.03,256.77,356.11,256.77,356.2,256.77z"/>
	</g>
</g>
</svg>
